ply
format ascii 1.0
element face 0
property list uchar int vertex_indices
element vertex 376
property float x
property float y
property float z
property uchar diffuse_red
property uchar diffuse_green
property uchar diffuse_blue
end_header
-9.288745e-01 -1.553017e-01 -7.043711e+00 30 31 52
-9.280231e-01 -1.574027e-01 -7.041927e+00 23 21 21
-9.243848e-01 -1.574290e-01 -7.045011e+00 26 27 30
-9.252866e-01 -1.613498e-01 -7.039449e+00 93 90 102
-9.238886e-01 -1.614119e-01 -7.040906e+00 95 93 105
-9.366429e-01 -1.513746e-01 -7.045973e+00 64 64 74
-9.238213e-01 -1.613788e-01 -7.040679e+00 95 93 105
-9.286244e-01 -1.610722e-01 -7.036977e+00 96 92 107
-9.295561e-01 -1.609095e-01 -7.036235e+00 97 94 113
-9.196833e-01 -1.618650e-01 -7.044767e+00 90 89 105
-9.369801e-01 -1.540137e-01 -7.044352e+00 55 58 65
-9.371241e-01 -1.653284e-01 -7.039716e+00 50 56 63
-9.152009e-01 -1.688164e-01 -7.050340e+00 103 105 104
-9.348071e-01 -1.606185e-01 -7.034983e+00 39 48 51
-9.352969e-01 -1.673745e-01 -7.038807e+00 76 83 93
-9.296482e-01 -1.608684e-01 -7.036821e+00 97 94 113
-9.196447e-01 -1.618132e-01 -7.043732e+00 90 89 105
-9.388741e-01 -1.524714e-01 -7.042514e+00 66 68 73
-9.319701e-01 -1.628794e-01 -7.035190e+00 86 97 119
-9.268726e-01 -1.523938e-01 -7.050696e+00 76 73 87
-1.063663e+00 -4.684593e-02 -7.321382e+00 118 116 117
-9.183925e-01 -1.686466e-01 -7.049774e+00 88 94 100
-9.335310e-01 -1.674910e-01 -7.039416e+00 70 76 97
-9.361124e-01 -1.641630e-01 -7.034770e+00 88 93 97
-9.332651e-01 -1.728964e-01 -7.033803e+00 176 176 176
-9.152423e-01 -1.733602e-01 -7.049491e+00 171 173 170
-9.223204e-01 -1.533614e-01 -7.055987e+00 66 65 81
-1.063759e+00 -4.711793e-02 -7.334574e+00 124 122 123
-9.362609e-01 -1.679058e-01 -7.038236e+00 177 179 178
-9.260376e-01 -1.678709e-01 -7.044244e+00 75 86 108
-9.368585e-01 -1.668367e-01 -7.038088e+00 46 53 59
-9.364670e-01 -1.607460e-01 -7.036001e+00 151 160 163
-9.284409e-01 -1.523336e-01 -7.049201e+00 78 76 90
-9.259827e-01 -1.679890e-01 -7.044634e+00 73 84 106
-9.205105e-01 -1.684360e-01 -7.048259e+00 77 85 107
-9.367192e-01 -1.513009e-01 -7.044895e+00 65 65 75
-1.070721e+00 -3.958920e-02 -7.329292e+00 10 12 13
-9.367808e-01 -1.656570e-01 -7.036264e+00 90 96 102
-9.228950e-01 -1.603111e-01 -7.043094e+00 32 30 38
-9.284934e-01 -1.582816e-01 -7.040761e+00 83 82 104
-9.375823e-01 -1.576757e-01 -7.037275e+00 99 104 108
-9.402787e-01 -1.535872e-01 -7.041360e+00 86 90 93
-9.355352e-01 -1.633624e-01 -7.034890e+00 95 102 106
-9.351197e-01 -1.632037e-01 -7.033592e+00 95 102 106
-9.345079e-01 -1.617371e-01 -7.034057e+00 80 89 92
-9.257969e-01 -1.582949e-01 -7.042602e+00 65 63 66
-9.264807e-01 -1.582452e-01 -7.042013e+00 64 62 63
-9.253130e-01 -1.574206e-01 -7.044018e+00 65 65 67
-9.253216e-01 -1.573874e-01 -7.043932e+00 65 65 67
-9.271390e-01 -1.573956e-01 -7.042794e+00 66 64 65
-9.282133e-01 -1.564763e-01 -7.042913e+00 63 65 69
-9.275444e-01 -1.564716e-01 -7.043413e+00 68 71 74
-9.275409e-01 -1.564727e-01 -7.043417e+00 68 71 74
-9.339025e-01 -1.423060e-01 -7.047988e+00 183 183 183
-9.130183e-01 -1.741575e-01 -7.049778e+00 179 179 178
-9.465710e-01 -1.519233e-01 -7.052082e+00 121 123 122
-9.349943e-01 -1.527078e-01 -7.043483e+00 64 61 80
-9.354272e-01 -1.623268e-01 -7.033758e+00 47 54 60
-9.361934e-01 -1.609619e-01 -7.035091e+00 148 156 159
-9.354340e-01 -1.653703e-01 -7.032551e+00 112 120 125
-9.358257e-01 -1.653298e-01 -7.033888e+00 112 120 125
-9.344706e-01 -1.617797e-01 -7.033864e+00 91 100 103
-1.060623e+00 -1.770076e-01 -7.310703e+00 166 168 164
-1.079810e+00 -2.287289e-02 -7.356827e+00 49 50 50
-1.062281e+00 -2.837945e-02 -7.320987e+00 95 94 90
-1.062281e+00 -2.837945e-02 -7.320987e+00 95 94 90
-9.258848e-01 -1.552911e-01 -7.046203e+00 33 35 51
-9.355715e-01 -1.647637e-01 -7.036768e+00 48 54 60
-9.362714e-01 -1.605294e-01 -7.035244e+00 152 160 163
-9.291986e-01 -1.540931e-01 -7.045391e+00 92 88 105
-9.252865e-01 -1.613218e-01 -7.039439e+00 98 91 109
-9.293045e-01 -1.566438e-01 -7.041500e+00 80 82 108
-9.285264e-01 -1.610592e-01 -7.036566e+00 98 94 111
-9.354259e-01 -1.628736e-01 -7.035668e+00 154 159 163
-9.250365e-01 -1.565019e-01 -7.045238e+00 62 66 69
-9.393818e-01 -1.534090e-01 -7.040081e+00 138 144 148
-1.017490e+00 -1.596991e-01 -7.213000e+00 55 57 54
-9.352606e-01 -1.590878e-01 -7.034388e+00 43 51 54
-9.246892e-01 -1.682651e-01 -7.046206e+00 81 89 110
-9.197172e-01 -1.621166e-01 -7.045795e+00 93 90 109
-9.335217e-01 -1.674385e-01 -7.039504e+00 72 78 100
-9.220750e-01 -1.540282e-01 -7.051234e+00 68 65 82
-9.349074e-01 -1.630447e-01 -7.033724e+00 107 114 120
-9.349074e-01 -1.630447e-01 -7.033724e+00 107 114 120
-9.371154e-01 -1.606096e-01 -7.038735e+00 154 159 163
-9.058548e-01 -1.675310e-01 -7.045136e+00 132 132 132
-9.387936e-01 -1.520037e-01 -7.042736e+00 66 73 76
-9.364825e-01 -1.607997e-01 -7.036342e+00 152 160 163
-9.367503e-01 -1.649655e-01 -7.036551e+00 106 113 119
-9.367503e-01 -1.649655e-01 -7.036551e+00 106 113 119
-9.376961e-01 -1.663237e-01 -7.037749e+00 131 135 138
-9.376961e-01 -1.663237e-01 -7.037749e+00 131 135 138
-9.364698e-01 -1.594809e-01 -7.037879e+00 94 101 107
-9.271261e-01 -1.575687e-01 -7.042998e+00 69 69 70
-9.403677e-01 -1.531671e-01 -7.042686e+00 135 139 142
-1.140735e+00 -2.216386e-01 -7.372171e+00 52 53 56
-9.256636e-01 -1.564260e-01 -7.044876e+00 66 67 72
-9.376718e-01 -1.549169e-01 -7.038671e+00 84 87 92
-9.372251e-01 -1.652097e-01 -7.039906e+00 48 55 61
-9.050200e-01 -1.687386e-01 -7.047518e+00 132 132 132
-9.178685e-01 -1.698211e-01 -7.055900e+00 163 164 166
-9.378899e-01 -1.645358e-01 -7.037051e+00 67 78 82
-9.430448e-01 -1.528813e-01 -7.046943e+00 179 183 184
-9.272233e-01 -1.537738e-01 -7.046115e+00 99 95 110
-9.409791e-01 -1.533705e-01 -7.041853e+00 79 85 88
-9.366300e-01 -1.504830e-01 -7.041824e+00 70 68 82
-9.385272e-01 -1.506409e-01 -7.040137e+00 85 86 89
-9.270946e-01 -1.575918e-01 -7.043314e+00 66 66 68
-9.247237e-01 -1.554814e-01 -7.043235e+00 30 28 39
-9.288291e-01 -1.564356e-01 -7.043295e+00 22 22 32
-9.407179e-01 -1.641247e-01 -7.015708e+00 32 34 33
-9.407179e-01 -1.641247e-01 -7.015708e+00 32 34 33
-9.357117e-01 -1.648794e-01 -7.042770e+00 38 46 49
-9.416623e-01 -1.650187e-01 -7.017112e+00 15 17 15
-9.257451e-01 -1.566753e-01 -7.043358e+00 21 22 24
-9.418388e-01 -1.659490e-01 -7.017275e+00 5 7 4
-9.408873e-01 -1.588590e-01 -7.049367e+00 99 108 113
-9.368772e-01 -1.524262e-01 -7.010691e+00 108 110 107
-9.418972e-01 -1.660575e-01 -7.016818e+00 30 32 29
-9.349537e-01 -1.486085e-01 -7.006703e+00 3 5 2
-9.372945e-01 -1.668013e-01 -7.037617e+00 72 76 79
-9.347942e-01 -1.486252e-01 -7.006766e+00 49 51 48
-9.347942e-01 -1.486252e-01 -7.006766e+00 49 51 48
-9.187368e-01 -1.694213e-01 -7.046564e+00 165 167 166
-9.738872e-01 -2.491193e-01 -7.122116e+00 174 173 174
-1.042021e+00 -2.979723e-01 -7.261824e+00 35 34 32
-1.042021e+00 -2.979723e-01 -7.261824e+00 35 34 32
-9.402545e-01 -1.708723e-01 -7.040868e+00 179 179 177
-9.360896e-01 -1.502230e-01 -7.009119e+00 62 64 61
-9.388713e-01 -1.596656e-01 -7.014981e+00 71 71 68
-9.365301e-01 -1.513225e-01 -7.009881e+00 130 131 129
-9.376266e-01 -1.531362e-01 -7.011283e+00 28 29 26
-9.271714e-01 -1.592437e-01 -7.037355e+00 33 25 25
-1.008907e+00 -2.702802e-02 -7.229906e+00 73 76 75
-9.327602e-01 -1.671410e-01 -7.039870e+00 63 72 97
-9.313108e-01 -1.678530e-01 -7.040472e+00 79 83 102
-9.238626e-01 -1.615331e-01 -7.039911e+00 97 93 107
-9.346801e-01 -1.555849e-01 -7.010149e+00 5 5 3
-9.351686e-01 -1.568412e-01 -7.004037e+00 66 66 64
-9.359467e-01 -1.564010e-01 -7.004357e+00 8 10 7
-9.386250e-01 -1.659931e-01 -7.040594e+00 66 76 81
-9.397567e-01 -1.525440e-01 -7.010002e+00 7 9 6
-9.352394e-01 -1.567571e-01 -7.004713e+00 5 7 4
-9.369799e-01 -1.562418e-01 -7.005093e+00 81 83 80
-9.350730e-01 -1.569135e-01 -7.004464e+00 61 63 60
-9.339490e-01 -1.541886e-01 -7.009955e+00 57 64 77
-9.352254e-01 -1.570035e-01 -7.002798e+00 67 69 66
-9.368771e-01 -1.564418e-01 -7.003984e+00 8 10 7
-9.363540e-01 -1.567367e-01 -7.004289e+00 87 90 87
-9.368103e-01 -1.563683e-01 -7.004128e+00 79 81 77
-9.329991e-01 -1.551183e-01 -7.008892e+00 12 12 10
-9.334355e-01 -1.550335e-01 -7.008436e+00 41 41 39
-9.347319e-01 -1.548379e-01 -7.008112e+00 76 33 35
-9.359128e-01 -1.566666e-01 -7.005002e+00 52 53 50
-9.342567e-01 -1.563863e-01 -7.008187e+00 39 41 38
-9.350987e-01 -1.548266e-01 -7.008867e+00 72 42 46
-9.368606e-01 -1.503738e-01 -7.011229e+00 37 37 35
-9.358300e-01 -1.564486e-01 -7.005157e+00 0 1 0
-9.348264e-01 -1.561547e-01 -7.006424e+00 5 7 4
-9.371756e-01 -1.561025e-01 -7.005525e+00 83 85 83
-9.349275e-01 -1.550240e-01 -7.007831e+00 63 64 59
-9.360281e-01 -1.545278e-01 -7.010976e+00 52 52 52
-9.393434e-01 -1.537713e-01 -7.008606e+00 198 200 195
-9.357403e-01 -1.500303e-01 -7.012965e+00 110 109 106
-9.357403e-01 -1.500303e-01 -7.012965e+00 110 109 106
-9.246497e-01 -1.682702e-01 -7.044377e+00 76 84 103
-9.113519e-01 -1.483347e-01 -7.048170e+00 178 178 178
-9.482497e-01 -1.492940e-01 -7.024563e+00 81 83 80
-9.469637e-01 -1.532395e-01 -7.023554e+00 4 6 2
-9.242480e-01 -1.613550e-01 -7.040894e+00 96 91 104
-9.430958e-01 -1.496743e-01 -7.025518e+00 15 14 12
-9.451783e-01 -1.504921e-01 -7.025043e+00 136 138 135
-9.429544e-01 -1.493113e-01 -7.025498e+00 80 79 77
-9.418930e-01 -1.522012e-01 -7.024168e+00 84 84 76
-9.506867e-01 -1.508791e-01 -7.024393e+00 46 48 49
-9.498560e-01 -1.482615e-01 -7.023904e+00 42 44 41
-9.535206e-01 -1.485278e-01 -7.023957e+00 102 104 99
-9.256737e-01 -1.560844e-01 -7.044376e+00 60 59 65
-9.340273e-01 -1.614952e-01 -7.037191e+00 42 47 53
-9.350465e-01 -1.532492e-01 -7.041618e+00 66 65 81
-9.398433e-01 -1.626460e-01 -7.039966e+00 67 72 75
-9.333942e-01 -1.600383e-01 -7.035210e+00 90 93 98
-9.358874e-01 -1.583513e-01 -7.035815e+00 45 53 56
-9.359464e-01 -1.581547e-01 -7.036460e+00 45 53 56
-9.352654e-01 -1.646513e-01 -7.035140e+00 38 47 54
-9.361706e-01 -1.619782e-01 -7.036447e+00 47 54 60
-9.360352e-01 -1.616980e-01 -7.033917e+00 221 226 230
-9.360465e-01 -1.616922e-01 -7.033971e+00 221 226 230
-9.356107e-01 -1.651516e-01 -7.033565e+00 148 155 161
-9.351072e-01 -1.639598e-01 -7.033362e+00 163 170 177
-9.351104e-01 -1.639104e-01 -7.033503e+00 163 170 177
-9.314692e-01 -1.677727e-01 -7.041361e+00 72 78 103
-9.382039e-01 -1.655284e-01 -7.035860e+00 188 191 194
-9.377408e-01 -1.656531e-01 -7.033368e+00 102 106 109
-9.341178e-01 -1.628466e-01 -7.033683e+00 46 50 56
-1.085124e+00 4.150452e-02 -7.324321e+00 138 136 128
-1.070100e+00 3.665389e-02 -7.337052e+00 75 77 74
-9.397448e-01 -1.511776e-01 -7.011604e+00 83 85 82
-9.398815e-01 -1.554806e-01 -7.008534e+00 104 109 105
-9.415763e-01 -1.481213e-01 -7.011518e+00 3 4 0
-9.379618e-01 -1.552726e-01 -7.008479e+00 86 88 85
-9.363851e-01 -1.569660e-01 -7.004212e+00 88 90 87
-9.420170e-01 -1.500918e-01 -7.011100e+00 2 4 2
-9.414864e-01 -1.525594e-01 -7.010072e+00 134 134 132
-9.401847e-01 -1.518067e-01 -7.011596e+00 89 91 88
-9.418529e-01 -1.475551e-01 -7.011422e+00 107 109 105
-9.402528e-01 -1.542246e-01 -7.008318e+00 127 127 124
-9.418577e-01 -1.482513e-01 -7.011381e+00 5 5 0
-9.365381e-01 -1.464556e-01 -7.013722e+00 13 13 13
-9.310262e-01 -1.588254e-01 -7.005431e+00 11 12 11
-9.336377e-01 -1.553519e-01 -7.008957e+00 41 41 39
-9.408044e-01 -1.523821e-01 -7.010541e+00 131 132 130
-9.342977e-01 -1.562488e-01 -7.012508e+00 175 176 174
-9.405458e-01 -1.493783e-01 -7.012240e+00 7 7 5
-9.407554e-01 -1.480803e-01 -7.011738e+00 107 104 99
-9.350205e-01 -1.573670e-01 -7.002562e+00 56 58 57
-9.389719e-01 -1.526565e-01 -7.009793e+00 8 10 7
-9.410759e-01 -1.494074e-01 -7.009886e+00 101 101 101
-9.403016e-01 -1.546671e-01 -7.008244e+00 111 111 109
-9.401144e-01 -1.538856e-01 -7.008727e+00 60 60 58
-9.405509e-01 -1.526558e-01 -7.009484e+00 85 86 81
-9.421820e-01 -1.525607e-01 -7.010259e+00 98 92 74
-9.423081e-01 -1.503396e-01 -7.011168e+00 101 103 100
-9.423951e-01 -1.500110e-01 -7.011267e+00 108 109 110
-9.421768e-01 -1.477262e-01 -7.011645e+00 95 95 89
-9.956320e-01 2.720348e-02 -7.228342e+00 116 118 117
-9.861727e-01 1.699463e-03 -7.192565e+00 22 26 26
-9.909563e-01 1.724437e-03 -7.188531e+00 96 97 94
-9.831187e-01 -1.270855e-03 -7.181253e+00 118 121 114
-1.013943e+00 3.275524e-02 -7.246432e+00 56 58 55
-9.322443e-01 -1.460188e-01 -7.001817e+00 6 5 1
-9.404305e-01 -1.486301e-01 -7.046841e+00 180 182 181
-9.344717e-01 -1.628199e-01 -7.032921e+00 163 171 173
-9.417434e-01 -1.611194e-01 -7.046236e+00 72 76 81
-9.375213e-01 -1.640354e-01 -7.037831e+00 56 61 65
-9.142363e-01 -1.625383e-01 -7.049689e+00 50 51 55
-9.280206e-01 -1.681749e-01 -7.043240e+00 84 87 106
-9.368322e-01 -1.661708e-01 -7.035949e+00 75 86 91
-9.363631e-01 -1.640105e-01 -7.035317e+00 131 135 140
-9.333291e-01 -1.619358e-01 -7.034720e+00 41 46 52
-9.357150e-01 -1.522275e-01 -7.043965e+00 75 75 87
-9.306248e-01 -1.678762e-01 -7.042162e+00 89 92 111
-1.084056e+00 3.452790e-02 -7.357675e+00 7 9 6
-1.079666e+00 3.843942e-02 -7.358431e+00 100 103 98
-1.077878e+00 -3.399856e-02 -7.351392e+00 114 114 116
-1.171608e+00 -3.363161e-01 -7.373906e+00 81 80 78
-1.006632e+00 1.557767e-02 -7.230711e+00 42 44 45
-1.006632e+00 1.557767e-02 -7.230711e+00 42 44 45
-9.379062e-01 -1.470453e-01 -7.011690e+00 1 3 0
-9.325535e-01 -1.561512e-01 -7.008124e+00 10 10 8
-9.328195e-01 -1.554310e-01 -7.008576e+00 10 11 8
-9.364141e-01 -1.565093e-01 -7.004193e+00 2 4 1
-9.372499e-01 -1.522156e-01 -7.010857e+00 28 30 27
-9.408433e-01 -1.526459e-01 -7.042656e+00 79 87 89
-9.349045e-01 -1.564678e-01 -7.002078e+00 4 6 4
-9.340358e-01 -1.554540e-01 -7.009785e+00 32 32 32
-9.357797e-01 -1.565920e-01 -7.004750e+00 3 5 3
-9.373739e-01 -1.518567e-01 -7.011497e+00 124 126 123
-9.466108e-01 -1.579231e-01 -7.039248e+00 47 46 43
-1.008414e+00 2.146386e-02 -7.232602e+00 28 30 29
-9.346769e-01 -1.480976e-01 -7.007878e+00 14 13 11
-9.338059e-01 -1.502486e-01 -7.006030e+00 41 41 39
-9.402874e-01 -1.551929e-01 -7.044543e+00 122 129 135
-9.350203e-01 -1.492762e-01 -7.007182e+00 61 63 60
-9.343385e-01 -1.485841e-01 -7.007288e+00 110 109 104
-9.971856e-01 1.673852e-02 -7.208609e+00 92 92 89
-9.258560e-01 -1.682431e-01 -7.045414e+00 75 79 102
-1.015143e+00 3.099494e-02 -7.247690e+00 6 7 9
-9.184946e-01 -1.686424e-01 -7.049640e+00 73 76 83
-9.381725e-01 -1.659695e-01 -7.037821e+00 50 58 61
-9.381725e-01 -1.659695e-01 -7.037821e+00 50 58 61
-9.201942e-01 -1.689364e-01 -7.048148e+00 73 73 91
-9.366999e-01 -1.663061e-01 -7.035455e+00 105 110 114
-9.208019e-01 -1.683091e-01 -7.047513e+00 69 76 91
-9.203668e-01 -1.682957e-01 -7.048941e+00 75 81 97
-9.279503e-01 -1.686090e-01 -7.054596e+00 181 183 182
-9.333682e-01 -1.599362e-01 -7.035542e+00 116 119 124
-9.386621e-01 -1.514707e-01 -7.041266e+00 178 180 179
-1.014690e+00 -2.034267e-02 -7.245014e+00 79 83 91
-9.922122e-01 5.796698e-03 -7.181639e+00 132 132 126
-9.987471e-01 4.654553e-03 -7.178342e+00 132 123 118
-1.002205e+00 5.703303e-03 -7.179676e+00 63 60 51
-9.839280e-01 9.942432e-03 -7.183323e+00 116 117 109
-9.839280e-01 9.942432e-03 -7.183323e+00 116 117 109
-1.000273e+00 4.423130e-03 -7.171342e+00 122 114 111
-9.879641e-01 8.227003e-03 -7.195906e+00 83 90 83
-1.013696e+00 1.248267e-02 -7.191122e+00 25 24 22
-9.991304e-01 7.924373e-03 -7.189669e+00 115 110 105
-9.910642e-01 3.095785e-03 -7.184724e+00 122 126 113
-9.935980e-01 4.768576e-03 -7.185094e+00 44 43 38
-1.004933e+00 6.585808e-03 -7.179718e+00 128 121 115
-1.004350e+00 6.238009e-03 -7.177170e+00 58 48 42
-1.004350e+00 6.238009e-03 -7.177170e+00 58 48 42
-9.991575e-01 6.789093e-03 -7.173136e+00 61 52 47
-9.815283e-01 8.256624e-03 -7.180158e+00 60 72 70
-9.815283e-01 8.256624e-03 -7.180158e+00 60 72 70
-9.955577e-01 6.130968e-03 -7.189377e+00 38 36 31
-1.012548e+00 7.746204e-03 -7.184904e+00 149 148 146
-1.008637e+00 6.604972e-03 -7.184861e+00 92 90 88
-1.005775e+00 6.591486e-03 -7.182898e+00 105 102 97
-1.006823e+00 6.485972e-03 -7.181740e+00 53 45 42
-9.911986e-01 7.049737e-03 -7.178329e+00 56 55 43
-9.867784e-01 7.970956e-03 -7.179252e+00 121 120 108
-9.469510e-01 -1.530804e-01 -7.064654e+00 71 75 76
-9.352786e-01 -1.634150e-01 -7.034239e+00 133 142 147
-9.347881e-01 -1.581073e-01 -7.036792e+00 117 118 122
-9.342285e-01 -1.615451e-01 -7.032651e+00 59 63 66
-9.456916e-01 -1.449028e-01 -7.030274e+00 33 33 33
-9.203086e-01 -1.578834e-01 -6.987495e+00 0 255 0
-9.238680e-01 -1.633198e-01 -7.037071e+00 255 255 0
-9.217617e-01 -1.647896e-01 -6.987873e+00 255 0 0
-9.258836e-01 -1.617354e-01 -7.037609e+00 255 255 0
-9.222785e-01 -1.465221e-01 -6.986592e+00 0 255 0
-9.279728e-01 -1.586150e-01 -7.034773e+00 255 255 0
-9.215139e-01 -1.535273e-01 -6.989371e+00 255 0 0
-9.239362e-01 -1.702085e-01 -7.036444e+00 255 255 0
-9.220162e-01 -1.570484e-01 -6.988731e+00 0 255 0
-9.255059e-01 -1.660685e-01 -7.037787e+00 255 255 0
-9.221445e-01 -1.594598e-01 -6.988209e+00 255 0 0
-9.250459e-01 -1.626850e-01 -7.038021e+00 255 255 0
-9.222633e-01 -1.661620e-01 -6.986578e+00 0 255 0
-9.290295e-01 -1.752145e-01 -7.035284e+00 255 255 0
-9.227326e-01 -1.669048e-01 -6.986624e+00 255 0 0
-9.293519e-01 -1.692771e-01 -7.036128e+00 255 255 0
-9.228848e-01 -1.676270e-01 -6.986829e+00 0 255 0
-9.294566e-01 -1.654315e-01 -7.036347e+00 255 255 0
-9.229352e-01 -1.672466e-01 -6.987200e+00 255 0 0
-9.285684e-01 -1.606675e-01 -7.036444e+00 255 255 0
-9.266526e-01 -1.573589e-01 -6.997196e+00 0 255 0
-9.309137e-01 -1.661324e-01 -7.046235e+00 255 255 0
-9.273291e-01 -1.667512e-01 -6.998126e+00 255 0 0
-9.306144e-01 -1.667398e-01 -7.048018e+00 255 255 0
-9.262970e-01 -1.449272e-01 -6.990749e+00 0 255 0
-9.293144e-01 -1.651070e-01 -7.036396e+00 255 255 0
-9.262498e-01 -1.436749e-01 -6.990965e+00 255 0 0
-9.295247e-01 -1.626423e-01 -7.037112e+00 255 255 0
-9.261966e-01 -1.428955e-01 -6.991242e+00 0 255 0
-9.316764e-01 -1.598483e-01 -7.037960e+00 255 255 0
-9.264135e-01 -1.431536e-01 -6.991332e+00 255 0 0
-9.323800e-01 -1.562319e-01 -7.039221e+00 255 255 0
-9.230246e-01 -1.671413e-01 -6.986935e+00 0 255 0
-9.288002e-01 -1.576951e-01 -7.035694e+00 255 255 0
-9.319039e-01 -1.453095e-01 -7.001139e+00 255 0 0
-9.294791e-01 -1.693575e-01 -7.044909e+00 255 255 0
-9.291629e-01 -1.519062e-01 -6.996871e+00 0 255 0
-9.280708e-01 -1.678943e-01 -7.044233e+00 255 255 0
-9.270018e-01 -1.400625e-01 -6.990868e+00 255 0 0
-9.286461e-01 -1.609536e-01 -7.036265e+00 255 255 0
-9.276331e-01 -1.883256e-01 -7.090976e+00 0 255 0
-9.237525e-01 -2.124554e-01 -7.134595e+00 255 255 0
-9.265923e-01 -1.230713e-01 -6.996380e+00 255 0 0
-9.326685e-01 -1.548526e-01 -7.034498e+00 255 255 0
-9.266834e-01 -1.535364e-01 -6.993199e+00 0 255 0
-9.305054e-01 -1.594541e-01 -7.042700e+00 255 255 0
-9.240453e-01 -1.717959e-01 -6.990366e+00 255 0 0
-9.280863e-01 -1.618553e-01 -7.039201e+00 255 255 0
-9.240297e-01 -1.742077e-01 -6.989959e+00 0 255 0
-9.294057e-01 -1.654911e-01 -7.038899e+00 255 255 0
-9.279955e-01 -1.703528e-01 -6.999598e+00 255 0 0
-9.303076e-01 -1.644790e-01 -7.049198e+00 255 255 0
-9.277431e-01 -1.718179e-01 -7.000892e+00 0 255 0
-9.307860e-01 -1.653203e-01 -7.050374e+00 255 255 0
-9.246507e-01 -1.772856e-01 -6.989961e+00 255 0 0
-9.299482e-01 -1.650337e-01 -7.038146e+00 255 255 0
-9.285528e-01 -1.735605e-01 -7.002203e+00 0 255 0
-9.287934e-01 -1.638851e-01 -7.051257e+00 255 255 0
-9.271634e-01 -1.792103e-01 -6.994525e+00 255 0 0
-9.314328e-01 -1.668402e-01 -7.042782e+00 255 255 0
-9.315753e-01 -1.595182e-01 -7.007010e+00 0 255 0
-9.276718e-01 -1.650956e-01 -7.056545e+00 255 255 0
-9.316657e-01 -1.457146e-01 -7.001161e+00 255 0 0
-9.262099e-01 -1.721896e-01 -7.043225e+00 255 255 0
-9.292736e-01 -1.767497e-01 -7.002436e+00 0 255 0
-9.294171e-01 -1.623962e-01 -7.050331e+00 255 255 0
-9.292518e-01 -1.787091e-01 -7.002821e+00 255 0 0
-9.299813e-01 -1.626668e-01 -7.050172e+00 255 255 0
