ply
format ascii 1.0
element face 0
property list uchar int vertex_indices
element vertex 620
property float x
property float y
property float z
property uchar diffuse_red
property uchar diffuse_green
property uchar diffuse_blue
end_header
-9.289804e-01 -1.551933e-01 -7.044469e+00 30 31 52
-9.281219e-01 -1.573089e-01 -7.042663e+00 23 21 21
-9.244580e-01 -1.573408e-01 -7.045804e+00 26 27 30
-9.253649e-01 -1.612920e-01 -7.040202e+00 93 90 102
-9.239600e-01 -1.613542e-01 -7.041672e+00 95 93 105
-9.367940e-01 -1.512441e-01 -7.046673e+00 64 64 74
-9.238807e-01 -1.613198e-01 -7.041442e+00 95 93 105
-9.287323e-01 -1.610111e-01 -7.037696e+00 96 92 107
-9.296713e-01 -1.608437e-01 -7.036928e+00 97 94 113
-9.197112e-01 -1.618124e-01 -7.045609e+00 90 89 105
-9.371581e-01 -1.538876e-01 -7.045159e+00 55 58 65
-9.373456e-01 -1.653112e-01 -7.040577e+00 50 56 63
-9.151785e-01 -1.688303e-01 -7.051256e+00 103 105 104
-9.349809e-01 -1.605558e-01 -7.035677e+00 39 48 51
-9.355176e-01 -1.673923e-01 -7.039816e+00 76 83 93
-9.297698e-01 -1.608082e-01 -7.037529e+00 97 94 113
-9.196802e-01 -1.617602e-01 -7.044527e+00 90 89 105
-9.390693e-01 -1.523361e-01 -7.043268e+00 66 68 73
-9.321353e-01 -1.628266e-01 -7.035970e+00 86 97 119
-9.269576e-01 -1.522672e-01 -7.051527e+00 76 73 87
-1.064410e+00 -4.608160e-02 -7.324258e+00 118 116 117
-9.183735e-01 -1.686646e-01 -7.050610e+00 88 94 100
-9.337147e-01 -1.674934e-01 -7.040286e+00 70 76 97
-9.363090e-01 -1.641277e-01 -7.035526e+00 88 93 97
-9.333515e-01 -1.728519e-01 -7.034337e+00 176 176 176
-9.151912e-01 -1.734726e-01 -7.050641e+00 171 173 170
-9.223485e-01 -1.532117e-01 -7.056950e+00 66 65 81
-1.063438e+00 -4.729222e-02 -7.334934e+00 124 122 123
-9.365066e-01 -1.679283e-01 -7.039189e+00 177 179 178
-9.261259e-01 -1.678728e-01 -7.045091e+00 75 86 108
-9.370444e-01 -1.668210e-01 -7.038858e+00 46 53 59
-9.366248e-01 -1.606745e-01 -7.036647e+00 151 160 163
-9.285339e-01 -1.522067e-01 -7.049968e+00 78 76 90
-9.260662e-01 -1.679980e-01 -7.045514e+00 73 84 106
-9.205241e-01 -1.684573e-01 -7.049193e+00 77 85 107
-9.368850e-01 -1.511542e-01 -7.045681e+00 65 65 75
-1.070401e+00 -3.977598e-02 -7.329619e+00 10 12 13
-9.369820e-01 -1.656386e-01 -7.037047e+00 90 96 102
-9.229533e-01 -1.602441e-01 -7.043886e+00 32 30 38
-9.285980e-01 -1.581950e-01 -7.041479e+00 83 82 104
-9.377417e-01 -1.575846e-01 -7.037920e+00 99 104 108
-9.404405e-01 -1.534626e-01 -7.042026e+00 86 90 93
-9.357182e-01 -1.633203e-01 -7.035628e+00 95 102 106
-9.352472e-01 -1.631435e-01 -7.034130e+00 95 102 106
-9.346073e-01 -1.616637e-01 -7.034511e+00 80 89 92
-9.258821e-01 -1.582079e-01 -7.043357e+00 65 63 66
-9.265710e-01 -1.581557e-01 -7.042755e+00 64 62 63
-9.253942e-01 -1.573293e-01 -7.044790e+00 65 65 67
-9.254038e-01 -1.572963e-01 -7.044702e+00 65 65 67
-9.272334e-01 -1.573004e-01 -7.043533e+00 66 64 65
-9.283149e-01 -1.563724e-01 -7.043642e+00 63 65 69
-9.276422e-01 -1.563688e-01 -7.044157e+00 68 71 74
-9.276388e-01 -1.563697e-01 -7.044160e+00 68 71 74
-9.340185e-01 -1.422009e-01 -7.048507e+00 183 183 183
-9.467212e-01 -1.518561e-01 -7.052669e+00 121 123 122
-9.351403e-01 -1.525945e-01 -7.044185e+00 64 61 80
-9.356766e-01 -1.622487e-01 -7.034722e+00 47 54 60
-9.364006e-01 -1.608874e-01 -7.035899e+00 148 156 159
-9.356931e-01 -1.653318e-01 -7.033534e+00 112 120 125
-9.361272e-01 -1.652930e-01 -7.035021e+00 112 120 125
-9.346852e-01 -1.617027e-01 -7.034745e+00 91 100 103
-1.059847e+00 -1.771462e-01 -7.310403e+00 166 168 164
-1.079444e+00 -2.308297e-02 -7.357166e+00 49 50 50
-1.061960e+00 -2.860957e-02 -7.321264e+00 95 94 90
-1.061960e+00 -2.860957e-02 -7.321264e+00 95 94 90
-9.259729e-01 -1.551888e-01 -7.046992e+00 33 35 51
-9.357365e-01 -1.647237e-01 -7.037476e+00 48 54 60
-9.364464e-01 -1.604755e-01 -7.035952e+00 152 160 163
-9.293113e-01 -1.539762e-01 -7.046142e+00 92 88 105
-9.253590e-01 -1.612654e-01 -7.040201e+00 98 91 109
-9.294143e-01 -1.565378e-01 -7.042214e+00 80 82 108
-9.286247e-01 -1.609905e-01 -7.037274e+00 98 94 111
-9.355928e-01 -1.628307e-01 -7.036374e+00 154 159 163
-9.251177e-01 -1.564076e-01 -7.046022e+00 62 66 69
-9.395540e-01 -1.532845e-01 -7.040776e+00 138 144 148
-1.016205e+00 -1.595029e-01 -7.210821e+00 55 57 54
-9.353847e-01 -1.589982e-01 -7.034907e+00 43 51 54
-9.247584e-01 -1.682751e-01 -7.047118e+00 81 89 110
-9.197404e-01 -1.620567e-01 -7.046614e+00 93 90 109
-9.336767e-01 -1.674280e-01 -7.040265e+00 72 78 100
-9.221237e-01 -1.540025e-01 -7.051635e+00 68 65 82
-9.351350e-01 -1.629836e-01 -7.034629e+00 107 114 120
-9.351350e-01 -1.629836e-01 -7.034629e+00 107 114 120
-9.372852e-01 -1.605618e-01 -7.039365e+00 154 159 163
-9.058043e-01 -1.674364e-01 -7.045822e+00 132 132 132
-9.389344e-01 -1.518653e-01 -7.043300e+00 66 73 76
-9.366593e-01 -1.607484e-01 -7.037076e+00 152 160 163
-9.368908e-01 -1.648820e-01 -7.037130e+00 106 113 119
-9.368908e-01 -1.648820e-01 -7.037130e+00 106 113 119
-9.378177e-01 -1.662101e-01 -7.038259e+00 131 135 138
-9.378177e-01 -1.662101e-01 -7.038259e+00 131 135 138
-9.366401e-01 -1.594117e-01 -7.038605e+00 94 101 107
-9.272216e-01 -1.574732e-01 -7.043740e+00 69 69 70
-9.404995e-01 -1.530283e-01 -7.043188e+00 135 139 142
-1.139781e+00 -2.199719e-01 -7.372421e+00 52 53 56
-9.257499e-01 -1.563310e-01 -7.045658e+00 66 67 72
-9.378376e-01 -1.548114e-01 -7.039355e+00 84 87 92
-9.374081e-01 -1.651767e-01 -7.040693e+00 48 55 61
-9.047387e-01 -1.689186e-01 -7.048813e+00 132 132 132
-9.178235e-01 -1.699871e-01 -7.057123e+00 163 164 166
-9.381788e-01 -1.648051e-01 -7.038369e+00 67 78 82
-9.438071e-01 -1.531106e-01 -7.049680e+00 179 183 184
-9.273261e-01 -1.536614e-01 -7.046886e+00 99 95 110
-9.411160e-01 -1.532300e-01 -7.042366e+00 79 85 88
-9.367595e-01 -1.503263e-01 -7.042309e+00 70 68 82
-9.386099e-01 -1.504548e-01 -7.040420e+00 85 86 89
-9.271901e-01 -1.574996e-01 -7.044062e+00 66 66 68
-9.248042e-01 -1.553674e-01 -7.043980e+00 30 28 39
-9.289372e-01 -1.563306e-01 -7.044023e+00 22 22 32
-9.409006e-01 -1.641066e-01 -7.016315e+00 32 34 33
-9.409006e-01 -1.641066e-01 -7.016315e+00 32 34 33
-9.358331e-01 -1.648231e-01 -7.043444e+00 38 46 49
-9.418918e-01 -1.651019e-01 -7.017814e+00 15 17 15
-9.258311e-01 -1.565804e-01 -7.044124e+00 21 22 24
-9.421015e-01 -1.661071e-01 -7.018036e+00 5 7 4
-9.409872e-01 -1.586842e-01 -7.049759e+00 99 108 113
-9.367568e-01 -1.520166e-01 -7.010715e+00 108 110 107
-9.421445e-01 -1.661845e-01 -7.017550e+00 30 32 29
-9.346619e-01 -1.481319e-01 -7.006426e+00 3 5 2
-9.375653e-01 -1.671616e-01 -7.039040e+00 72 76 79
-9.344762e-01 -1.480871e-01 -7.006380e+00 49 51 48
-9.344762e-01 -1.480871e-01 -7.006380e+00 49 51 48
-9.187766e-01 -1.694063e-01 -7.047424e+00 165 167 166
-9.734929e-01 -2.475691e-01 -7.121839e+00 174 173 174
-1.041886e+00 -2.967716e-01 -7.263197e+00 35 34 32
-1.041886e+00 -2.967716e-01 -7.263197e+00 35 34 32
-9.403721e-01 -1.707939e-01 -7.041459e+00 179 179 177
-9.357722e-01 -1.496670e-01 -7.008765e+00 62 64 61
-9.389427e-01 -1.594547e-01 -7.015385e+00 71 71 68
-9.362818e-01 -1.507989e-01 -7.009680e+00 130 131 129
-9.374577e-01 -1.526803e-01 -7.011260e+00 28 29 26
-9.272496e-01 -1.590335e-01 -7.037732e+00 33 25 25
-1.008448e+00 -2.750928e-02 -7.229920e+00 73 76 75
-9.329247e-01 -1.671452e-01 -7.040730e+00 63 72 97
-9.314953e-01 -1.678525e-01 -7.041631e+00 79 83 102
-9.239069e-01 -1.614779e-01 -7.040660e+00 97 93 107
-9.344842e-01 -1.549576e-01 -7.009960e+00 5 5 3
-9.351004e-01 -1.563886e-01 -7.004244e+00 66 66 64
-9.358352e-01 -1.559080e-01 -7.004510e+00 8 10 7
-9.387961e-01 -1.659198e-01 -7.041176e+00 66 76 81
-9.391970e-01 -1.518673e-01 -7.009501e+00 7 9 6
-9.351395e-01 -1.562615e-01 -7.004865e+00 5 7 4
-9.368184e-01 -1.557135e-01 -7.005186e+00 81 83 80
-9.350042e-01 -1.564584e-01 -7.004663e+00 61 63 60
-9.337327e-01 -1.535355e-01 -7.009666e+00 57 64 77
-9.351977e-01 -1.566078e-01 -7.003073e+00 67 69 66
-9.367664e-01 -1.559654e-01 -7.004157e+00 8 10 7
-9.362509e-01 -1.562623e-01 -7.004463e+00 87 90 87
-9.366952e-01 -1.558865e-01 -7.004293e+00 79 81 77
-9.328451e-01 -1.544849e-01 -7.008729e+00 12 12 10
-9.332849e-01 -1.544382e-01 -7.008342e+00 41 41 39
-9.345081e-01 -1.541951e-01 -7.007938e+00 76 33 35
-9.357943e-01 -1.561618e-01 -7.005134e+00 52 53 50
-9.341242e-01 -1.558243e-01 -7.008183e+00 39 41 38
-9.348537e-01 -1.541759e-01 -7.008649e+00 72 42 46
-9.367679e-01 -1.499841e-01 -7.011326e+00 37 37 35
-9.357075e-01 -1.559409e-01 -7.005278e+00 0 1 0
-9.346793e-01 -1.555880e-01 -7.006449e+00 5 7 4
-9.369912e-01 -1.555549e-01 -7.005583e+00 83 85 83
-9.347192e-01 -1.544013e-01 -7.007703e+00 63 64 59
-9.357406e-01 -1.538732e-01 -7.010648e+00 52 52 52
-9.388992e-01 -1.531118e-01 -7.008301e+00 198 200 195
-9.352932e-01 -1.494179e-01 -7.012171e+00 110 109 106
-9.352932e-01 -1.494179e-01 -7.012171e+00 110 109 106
-9.247254e-01 -1.682833e-01 -7.045326e+00 76 84 103
-9.111986e-01 -1.482319e-01 -7.049363e+00 178 178 178
-9.479176e-01 -1.489732e-01 -7.024299e+00 81 83 80
-9.466859e-01 -1.528534e-01 -7.023330e+00 4 6 2
-9.243256e-01 -1.613028e-01 -7.041654e+00 96 91 104
-9.429141e-01 -1.493687e-01 -7.025354e+00 15 14 12
-9.449458e-01 -1.501646e-01 -7.024842e+00 136 138 135
-9.427731e-01 -1.490112e-01 -7.025334e+00 80 79 77
-9.417433e-01 -1.518592e-01 -7.024036e+00 84 84 76
-9.502831e-01 -1.505193e-01 -7.024082e+00 46 48 49
-9.494560e-01 -1.479517e-01 -7.023604e+00 42 44 41
-9.529937e-01 -1.482025e-01 -7.023586e+00 102 104 99
-9.257580e-01 -1.559880e-01 -7.045141e+00 60 59 65
-9.342002e-01 -1.614417e-01 -7.037919e+00 42 47 53
-9.352130e-01 -1.531411e-01 -7.042332e+00 66 65 81
-9.401539e-01 -1.625616e-01 -7.040956e+00 67 72 75
-9.335559e-01 -1.599810e-01 -7.035867e+00 90 93 98
-9.361360e-01 -1.582004e-01 -7.036668e+00 45 53 56
-9.360747e-01 -1.581557e-01 -7.036899e+00 45 53 56
-9.354111e-01 -1.646580e-01 -7.035660e+00 38 47 54
-9.363880e-01 -1.619224e-01 -7.037218e+00 47 54 60
-9.362470e-01 -1.616439e-01 -7.034618e+00 221 226 230
-9.362687e-01 -1.616312e-01 -7.034705e+00 221 226 230
-9.358491e-01 -1.651116e-01 -7.034416e+00 148 155 161
-9.353210e-01 -1.639163e-01 -7.034135e+00 163 170 177
-9.353246e-01 -1.638701e-01 -7.034270e+00 163 170 177
-9.316478e-01 -1.677031e-01 -7.042635e+00 72 78 103
-9.385053e-01 -1.654795e-01 -7.036831e+00 188 191 194
-9.380051e-01 -1.656360e-01 -7.034161e+00 102 106 109
-9.343075e-01 -1.627967e-01 -7.034419e+00 46 50 56
-1.085040e+00 4.131923e-02 -7.324903e+00 138 136 128
-1.073676e+00 4.084627e-02 -7.346125e+00 75 77 74
-9.391247e-01 -1.505304e-01 -7.010931e+00 83 85 82
-9.395086e-01 -1.548442e-01 -7.008351e+00 104 109 105
-9.406301e-01 -1.475617e-01 -7.010533e+00 3 4 0
-9.376694e-01 -1.546555e-01 -7.008331e+00 86 88 85
-9.363253e-01 -1.565397e-01 -7.004442e+00 88 90 87
-9.411628e-01 -1.494541e-01 -7.010298e+00 2 4 2
-9.408342e-01 -1.518765e-01 -7.009538e+00 134 134 132
-9.395579e-01 -1.511393e-01 -7.010946e+00 89 91 88
-9.408645e-01 -1.470271e-01 -7.010414e+00 107 109 105
-9.397890e-01 -1.535637e-01 -7.008043e+00 127 127 124
-9.408994e-01 -1.476864e-01 -7.010415e+00 5 5 0
-9.359898e-01 -1.460182e-01 -7.012756e+00 13 13 13
-9.310409e-01 -1.585358e-01 -7.005812e+00 11 12 11
-9.334750e-01 -1.547477e-01 -7.008844e+00 41 41 39
-9.401908e-01 -1.517125e-01 -7.010004e+00 131 132 130
-9.341250e-01 -1.556263e-01 -7.012280e+00 175 176 174
-9.397755e-01 -1.487802e-01 -7.011368e+00 7 7 5
-9.398919e-01 -1.475330e-01 -7.010781e+00 107 104 99
-9.350489e-01 -1.570548e-01 -7.002916e+00 56 58 57
-9.384875e-01 -1.520001e-01 -7.009361e+00 8 10 7
-9.402528e-01 -1.487941e-01 -7.009124e+00 101 101 101
-9.398813e-01 -1.540230e-01 -7.008023e+00 111 111 109
-9.395996e-01 -1.531942e-01 -7.008359e+00 60 60 58
-9.399725e-01 -1.519854e-01 -7.009028e+00 85 86 81
-9.414691e-01 -1.518673e-01 -7.009690e+00 98 92 74
-9.414704e-01 -1.497023e-01 -7.010404e+00 101 103 100
-9.415131e-01 -1.493773e-01 -7.010440e+00 108 109 110
-9.411729e-01 -1.471910e-01 -7.010632e+00 95 95 89
-9.951087e-01 2.566493e-02 -7.226885e+00 116 118 117
-9.896259e-01 1.073873e-02 -7.203071e+00 22 26 26
-9.912802e-01 2.265687e-03 -7.189386e+00 96 97 94
-9.837821e-01 5.316749e-04 -7.183593e+00 118 121 114
-1.013622e+00 3.204956e-02 -7.246010e+00 56 58 55
-9.323191e-01 -1.458758e-01 -7.002175e+00 6 5 1
-9.405605e-01 -1.486145e-01 -7.047237e+00 180 182 181
-9.346685e-01 -1.627746e-01 -7.033635e+00 163 171 173
-9.420671e-01 -1.610211e-01 -7.047291e+00 72 76 81
-9.377870e-01 -1.639843e-01 -7.038741e+00 56 61 65
-9.143094e-01 -1.628083e-01 -7.049026e+00 50 51 55
-9.280874e-01 -1.682294e-01 -7.043957e+00 84 87 106
-9.370675e-01 -1.661793e-01 -7.036749e+00 75 86 91
-9.366201e-01 -1.639514e-01 -7.036204e+00 131 135 140
-9.335227e-01 -1.618381e-01 -7.035570e+00 41 46 52
-9.359722e-01 -1.518921e-01 -7.045090e+00 75 75 87
-9.307311e-01 -1.678989e-01 -7.043008e+00 89 92 111
-1.083940e+00 3.431816e-02 -7.358230e+00 7 9 6
-1.080527e+00 3.928174e-02 -7.361769e+00 100 103 98
-1.077468e+00 -3.418297e-02 -7.351725e+00 114 114 116
-1.171029e+00 -3.345317e-01 -7.375519e+00 81 80 78
-1.006550e+00 1.526468e-02 -7.230770e+00 42 44 45
-1.007014e+00 1.659178e-02 -7.232655e+00 42 44 45
-9.372540e-01 -1.465569e-01 -7.010772e+00 1 3 0
-9.324362e-01 -1.555212e-01 -7.008034e+00 10 10 8
-9.326310e-01 -1.546970e-01 -7.008297e+00 10 11 8
-9.363110e-01 -1.560421e-01 -7.004371e+00 2 4 1
-9.367730e-01 -1.515182e-01 -7.010258e+00 28 30 27
-9.409711e-01 -1.525171e-01 -7.043116e+00 79 87 89
-9.348573e-01 -1.560411e-01 -7.002333e+00 4 6 4
-9.338013e-01 -1.547290e-01 -7.009459e+00 32 32 32
-9.356716e-01 -1.561012e-01 -7.004899e+00 3 5 3
-9.368784e-01 -1.511683e-01 -7.010841e+00 124 126 123
-9.466600e-01 -1.577749e-01 -7.039484e+00 47 46 43
-1.006986e+00 1.844791e-02 -7.228832e+00 28 30 29
-9.344364e-01 -1.477009e-01 -7.007471e+00 14 13 11
-9.338406e-01 -1.499435e-01 -7.006253e+00 41 41 39
-9.404568e-01 -1.550562e-01 -7.045206e+00 122 129 135
-9.348001e-01 -1.488005e-01 -7.006989e+00 61 63 60
-9.341856e-01 -1.481759e-01 -7.007062e+00 110 109 104
-9.972614e-01 1.582006e-02 -7.207559e+00 92 92 89
-9.258888e-01 -1.682752e-01 -7.046004e+00 75 79 102
-1.014355e+00 2.997669e-02 -7.247026e+00 6 7 9
-9.183107e-01 -1.685171e-01 -7.051033e+00 73 76 83
-9.384522e-01 -1.659454e-01 -7.038767e+00 50 58 61
-9.384522e-01 -1.659454e-01 -7.038767e+00 50 58 61
-9.200496e-01 -1.688290e-01 -7.049550e+00 73 73 91
-9.369411e-01 -1.663055e-01 -7.036280e+00 105 110 114
-9.208421e-01 -1.683918e-01 -7.047911e+00 69 76 91
-9.204081e-01 -1.683810e-01 -7.049309e+00 75 81 97
-9.282142e-01 -1.699813e-01 -7.046916e+00 181 183 182
-9.335811e-01 -1.597708e-01 -7.036448e+00 116 119 124
-9.390881e-01 -1.509429e-01 -7.042661e+00 178 180 179
-1.014140e+00 -2.099009e-02 -7.244309e+00 79 83 91
-9.916943e-01 3.965703e-03 -7.180047e+00 132 132 126
-9.986577e-01 3.741813e-03 -7.177662e+00 132 123 118
-1.001516e+00 3.578152e-03 -7.177835e+00 63 60 51
-9.831987e-01 7.480639e-03 -7.181075e+00 116 117 109
-9.831979e-01 7.445447e-03 -7.181023e+00 116 117 109
-1.000372e+00 4.191506e-03 -7.171483e+00 122 114 111
-9.879757e-01 8.030543e-03 -7.195941e+00 83 90 83
-1.013602e+00 1.156372e-02 -7.190224e+00 25 24 22
-9.993084e-01 7.724123e-03 -7.189645e+00 115 110 105
-9.914544e-01 3.624784e-03 -7.185717e+00 122 126 113
-9.935868e-01 4.375704e-03 -7.184983e+00 44 43 38
-1.003967e+00 3.838932e-03 -7.177185e+00 128 121 115
-1.003857e+00 4.464007e-03 -7.175610e+00 58 48 42
-1.003857e+00 4.464007e-03 -7.175610e+00 58 48 42
-9.984256e-01 4.099063e-03 -7.170654e+00 61 52 47
-9.815263e-01 7.808401e-03 -7.179896e+00 60 72 70
-9.815420e-01 7.847154e-03 -7.179934e+00 60 72 70
-9.955382e-01 5.817309e-03 -7.189399e+00 38 36 31
-1.012901e+00 7.676936e-03 -7.185070e+00 149 148 146
-1.009014e+00 6.679078e-03 -7.185226e+00 92 90 88
-1.005025e+00 4.396452e-03 -7.181051e+00 105 102 97
-1.006304e+00 4.676437e-03 -7.180183e+00 53 45 42
-9.907502e-01 5.276104e-03 -7.176778e+00 56 55 43
-9.864787e-01 6.422965e-03 -7.177829e+00 121 120 108
-9.469464e-01 -1.533459e-01 -7.064668e+00 71 75 76
-9.354255e-01 -1.635508e-01 -7.034594e+00 133 142 147
-9.350080e-01 -1.580148e-01 -7.037550e+00 117 118 122
-9.344511e-01 -1.614769e-01 -7.033411e+00 59 63 66
-9.463551e-01 -1.441787e-01 -7.031367e+00 33 33 33
-1.104199e+00 6.481208e-02 -7.383872e+00 83 84 79
-1.085059e+00 -2.655700e-03 -7.377086e+00 97 90 84
-1.085059e+00 -2.655700e-03 -7.377086e+00 97 90 84
-9.292196e-01 -1.681102e-01 -7.043924e+00 80 83 98
-1.066912e+00 -8.281742e-03 -7.333642e+00 19 19 17
-1.012839e+00 2.864904e-02 -7.243801e+00 15 16 17
-1.010569e+00 -2.294564e-02 -7.236223e+00 60 61 65
-1.037934e+00 4.597236e-02 -7.205580e+00 146 147 147
-1.032303e+00 4.154460e-02 -7.201086e+00 6 18 41
-1.033261e+00 4.532151e-02 -7.211090e+00 118 118 119
-1.033023e+00 4.464228e-02 -7.210434e+00 118 118 119
-9.994551e-01 6.167503e-03 -7.179799e+00 134 125 120
-1.003946e+00 3.813479e-03 -7.177170e+00 128 121 115
-9.835545e-01 2.648450e-03 -7.178647e+00 70 76 56
-1.021167e+00 3.373778e-02 -7.201116e+00 7 16 43
-9.969508e-01 4.271710e-03 -7.171892e+00 126 113 110
-9.886198e-01 8.404902e-03 -7.175999e+00 53 49 44
-1.009082e+00 2.490193e-02 -7.237896e+00 47 49 47
-1.013588e+00 1.530887e-02 -7.188210e+00 168 167 164
-1.011114e+00 3.762483e-02 -7.227315e+00 109 108 106
-9.845082e-01 -1.908682e-03 -7.183235e+00 34 40 37
-1.000431e+00 6.544486e-03 -7.174209e+00 125 115 111
-9.980486e-01 6.711606e-03 -7.182693e+00 126 122 117
-1.037246e+00 5.247231e-02 -7.218571e+00 130 133 132
-1.000904e+00 4.139816e-03 -7.174717e+00 131 120 116
-1.000640e+00 3.198186e-03 -7.173865e+00 131 120 116
-1.029914e+00 3.398470e-02 -7.195251e+00 4 14 39
-1.041736e+00 5.224973e-02 -7.207838e+00 37 40 44
-9.844687e-01 3.073448e-03 -7.173486e+00 77 74 65
-9.914306e-01 3.723460e-03 -7.170981e+00 91 77 70
-9.928680e-01 3.690439e-03 -7.167743e+00 139 128 125
-9.928729e-01 3.776785e-03 -7.167804e+00 139 128 125
-9.986276e-01 4.548539e-03 -7.166722e+00 140 129 123
-9.995423e-01 8.043855e-03 -7.166383e+00 56 51 46
-9.954825e-01 4.879441e-03 -7.166297e+00 133 123 115
-9.928889e-01 5.140425e-04 -7.167190e+00 72 57 52
-9.957692e-01 -1.995769e-03 -7.160324e+00 134 122 116
-9.917782e-01 4.742265e-03 -7.166021e+00 60 52 50
-9.366818e-01 -1.639770e-01 -7.036484e+00 93 100 104
-9.176182e-01 -1.630808e-01 -7.044895e+00 53 50 66
-9.343414e-01 -1.574160e-01 -7.060302e+00 69 72 95
-9.324008e-01 -1.621530e-01 -7.037154e+00 80 91 113
-9.391037e-01 -1.652736e-01 -7.040696e+00 63 67 71
-9.369844e-01 -1.662584e-01 -7.036195e+00 88 95 101
-9.356841e-01 -1.599859e-01 -7.035926e+00 127 134 138
-9.393174e-01 -1.650812e-01 -7.039706e+00 141 149 152
-9.251139e-01 -1.664951e-01 -7.050732e+00 58 59 77
-1.010060e+00 2.759161e-02 -7.238202e+00 10 11 13
-9.903992e-01 4.583710e-03 -7.185489e+00 79 85 64
-1.035904e+00 3.688650e-02 -7.193266e+00 19 20 24
-1.117942e+00 4.249363e-02 -7.458234e+00 51 51 51
-1.000741e+00 9.482722e-03 -7.194771e+00 9 10 6
-9.791127e-01 6.099138e-03 -7.181562e+00 54 57 57
-9.830981e-01 1.292795e-02 -7.181394e+00 128 129 125
-9.772765e-01 1.376624e-02 -7.179802e+00 20 20 22
-9.836134e-01 2.369415e-02 -7.185775e+00 28 28 28
-9.791479e-01 6.435475e-03 -7.177618e+00 130 125 122
-1.013171e+00 2.947609e-02 -7.244580e+00 11 12 11
-9.860255e-01 7.689370e-03 -7.197146e+00 97 100 93
-1.036129e+00 4.588162e-02 -7.211061e+00 43 45 44
-1.001544e+00 4.468384e-04 -7.170451e+00 125 115 109
-9.405485e-01 -1.692741e-01 -7.042070e+00 191 191 191
-9.998206e-01 7.965660e-03 -7.175559e+00 100 88 82
-1.030469e+00 5.717213e-02 -7.210388e+00 6 28 58
-1.038304e+00 5.078055e-02 -7.199321e+00 130 129 127
-9.729965e-01 9.360274e-03 -7.173704e+00 45 46 48
-9.905157e-01 1.707412e-02 -7.179162e+00 132 128 125
-9.946482e-01 3.689190e-02 -7.187187e+00 47 42 36
-9.882912e-01 5.664109e-03 -7.176117e+00 65 67 54
-9.884154e-01 5.822758e-03 -7.176289e+00 65 67 54
-9.878099e-01 6.049751e-03 -7.174790e+00 75 73 58
-9.806406e-01 2.390825e-02 -7.184978e+00 107 107 109
-9.906145e-01 2.341742e-02 -7.179371e+00 47 44 41
-1.001368e+00 1.934134e-03 -7.167441e+00 92 86 77
-1.048354e+00 5.470917e-02 -7.202150e+00 140 139 139
-1.041215e+00 5.091713e-02 -7.191737e+00 117 118 117
-9.782944e-01 2.563842e-02 -7.186181e+00 33 34 36
-1.048313e+00 4.602554e-02 -7.187044e+00 119 119 117
-1.048313e+00 4.602554e-02 -7.187044e+00 119 119 117
-9.801729e-01 1.076104e-02 -7.185788e+00 46 52 52
-9.965551e-01 1.122482e-01 -7.227241e+00 43 50 68
-9.995439e-01 7.160895e-03 -7.168779e+00 133 127 122
-1.049247e+00 5.012089e-02 -7.187219e+00 120 118 119
-1.052088e+00 5.762471e-02 -7.190256e+00 8 8 8
-1.053202e+00 6.011962e-02 -7.192218e+00 8 8 8
-1.010855e+00 1.533277e-01 -7.264229e+00 96 98 99
-9.824788e-01 1.441511e-02 -7.179638e+00 109 107 108
-9.972940e-01 5.864247e-03 -7.164940e+00 124 116 113
-9.946099e-01 1.551636e-02 -7.170977e+00 124 116 114
-9.822985e-01 6.856566e-02 -7.191422e+00 76 81 86
-1.049803e+00 2.889413e-02 -7.190867e+00 6 6 6
-9.273491e-01 -1.691014e-01 -7.047657e+00 174 175 177
-9.333264e-01 -1.654240e-01 -7.038012e+00 82 91 120
-9.384445e-01 -1.500357e-01 -7.043388e+00 177 177 177
-9.971716e-01 2.898756e-02 -7.227289e+00 19 21 18
-1.027379e+00 4.220402e-02 -7.212813e+00 1 1 2
-9.945742e-01 -1.600320e-03 -7.157899e+00 120 119 114
-9.892011e-01 1.654231e-02 -7.208310e+00 21 23 22
-1.004923e+00 3.592404e-03 -7.180418e+00 109 100 95
-1.021071e+00 4.593198e-02 -7.192076e+00 18 31 56
-9.749141e-01 2.436749e-02 -7.183525e+00 80 81 83
-9.202486e-01 -1.686611e-01 -7.049718e+00 58 57 73
-9.792253e-01 1.236760e-02 -7.182134e+00 102 103 105
-9.909047e-01 6.868568e-03 -7.168107e+00 120 112 110
-1.035973e+00 4.326992e-02 -7.184750e+00 7 7 7
-9.959240e-01 7.500968e-04 -7.168942e+00 119 109 102
-9.380202e-01 -1.519505e-01 -7.043708e+00 68 70 73
-9.405852e-01 -1.629950e-01 -7.042426e+00 72 75 78
-9.140903e-01 -1.732806e-01 -7.044855e+00 174 174 174
-9.345263e-01 -1.675254e-01 -7.037991e+00 83 91 114
-9.325834e-01 -1.633510e-01 -7.034042e+00 57 57 69
-9.925293e-01 7.651515e-03 -7.168460e+00 60 52 50
-9.897836e-01 2.120465e-03 -7.173954e+00 60 56 45
-1.002910e+00 6.251103e-03 -7.182999e+00 116 109 103
-9.941123e-01 -3.873981e-02 -7.154710e+00 169 169 169
-9.941123e-01 -3.873981e-02 -7.154710e+00 169 169 169
-9.744375e-01 6.148031e-02 -7.181711e+00 107 107 114
-9.842476e-01 9.779445e-02 -7.192104e+00 51 62 84
-9.866143e-01 8.719548e-02 -7.183895e+00 0 9 21
-9.836984e-01 8.888217e-02 -7.181412e+00 2 13 41
-9.802509e-01 9.774004e-02 -7.185937e+00 2 15 34
-9.733226e-01 5.354226e-02 -7.180224e+00 114 115 119
-9.819240e-01 9.289304e-02 -7.181230e+00 60 72 112
-9.819362e-01 9.273230e-02 -7.181156e+00 60 72 112
-9.925317e-01 1.358205e-03 -7.170261e+00 119 114 104
-9.897393e-01 2.827518e-03 -7.164752e+00 120 112 110
-9.502811e-01 2.699944e-02 -7.133709e+00 13 13 11
-9.918229e-01 4.397194e-03 -7.180526e+00 133 133 119
-9.788581e-01 8.771289e-02 -7.175355e+00 63 73 110
-9.479112e-01 3.174692e-02 -7.129264e+00 109 107 108
-1.020507e+00 6.309789e-02 -7.243877e+00 3 1 1
-9.698821e-01 4.929086e-02 -7.178296e+00 18 19 23
-9.544816e-01 3.416351e-02 -7.144132e+00 114 116 113
-9.902980e-01 -1.382062e-03 -7.183749e+00 12 17 11
-9.489655e-01 2.875539e-02 -7.127740e+00 110 108 109
-9.489655e-01 2.875539e-02 -7.127740e+00 110 108 109
-9.727788e-01 4.548923e-02 -7.175006e+00 119 119 127
-9.758135e-01 9.138822e-02 -7.178119e+00 1 10 36
-9.896794e-01 9.841440e-03 -7.197511e+00 86 93 84
-9.227578e-01 -1.632151e-01 -7.036411e+00 168 170 169
-9.825691e-01 1.103687e-02 -7.179811e+00 118 119 114
-9.425895e-01 6.198386e-02 -7.126798e+00 109 107 108
-9.793865e-01 2.684647e-02 -7.190272e+00 29 30 32
-9.474984e-01 6.304764e-02 -7.133907e+00 98 98 98
-9.388546e-01 -1.684060e-01 -7.035184e+00 140 148 150
-9.352542e-01 -1.644391e-01 -7.033538e+00 103 110 114
-9.478209e-01 2.241854e-02 -7.124461e+00 110 110 110
-9.436485e-01 7.230380e-02 -7.126693e+00 58 56 51
-9.841388e-01 1.015158e-01 -7.174746e+00 67 80 118
-9.238261e-01 -1.717102e-01 -7.037006e+00 51 62 74
-9.238261e-01 -1.717102e-01 -7.037006e+00 51 62 74
-9.358725e-01 -1.655488e-01 -7.036230e+00 27 34 38
-9.148251e-01 -1.749548e-01 -7.042587e+00 153 155 152
-9.779667e-01 1.603452e-02 -7.165454e+00 106 106 108
-9.583249e-01 7.131046e-02 -7.144940e+00 84 84 84
-9.412770e-01 -1.683742e-01 -7.033611e+00 72 77 81
-9.393412e-01 -1.630063e-01 -7.033318e+00 70 76 85
-9.823203e-01 9.790947e-03 -7.178671e+00 104 106 103
-9.911383e-01 1.921285e-02 -7.181386e+00 109 106 102
-9.330785e-01 -1.671182e-01 -7.030004e+00 47 50 58
-9.630401e-01 6.171177e-02 -7.141483e+00 95 95 97
-9.428887e-01 3.518618e-02 -7.118459e+00 23 21 22
-9.774380e-01 8.220981e-02 -7.186931e+00 16 20 26
-9.578474e-01 2.437324e-02 -7.135761e+00 105 105 107
-9.389226e-01 -1.685876e-01 -7.034964e+00 98 105 108
-9.748891e-01 9.631829e-02 -7.169612e+00 6 6 10
-9.714195e-01 8.214015e-02 -7.161900e+00 81 86 89
-1.014317e+00 3.666448e-02 -7.250249e+00 52 54 53
-1.014317e+00 3.666448e-02 -7.250249e+00 52 54 53
-9.481647e-01 5.403870e-02 -7.123813e+00 92 89 88
-9.861684e-01 6.956013e-02 -7.165327e+00 69 74 80
-9.589894e-01 8.878382e-02 -7.146633e+00 96 96 98
-9.979699e-01 4.162866e-02 -7.189307e+00 30 28 24
-9.795298e-01 1.534531e-02 -7.184758e+00 95 99 102
-1.002051e+00 6.570123e-03 -7.180265e+00 52 46 43
-9.472075e-01 5.074440e-02 -7.125758e+00 98 96 97
-1.024808e+00 3.694794e-02 -7.205006e+00 106 107 110
-1.044293e+00 4.199534e-02 -7.189510e+00 131 130 128
-9.894970e-01 1.226166e-01 -7.211625e+00 43 56 85
-9.748964e-01 1.139759e-01 -7.188600e+00 30 41 64
-9.560013e-01 3.241696e-02 -7.145284e+00 113 114 118
-9.452802e-01 2.131225e-02 -7.132280e+00 122 120 123
-9.361573e-01 -1.662958e-01 -7.034994e+00 27 34 38
-9.687268e-01 1.270519e-01 -7.199601e+00 95 96 100
-9.793288e-01 1.161580e-01 -7.185943e+00 52 64 91
-9.928780e-01 1.003077e-02 -7.166516e+00 101 96 92
-9.413342e-01 -1.642188e-01 -7.038396e+00 70 75 78
-9.348233e-01 -1.643487e-01 -7.037948e+00 61 66 69
-9.095533e-01 -1.657464e-01 -7.035799e+00 108 108 108
-9.368317e-01 -1.617614e-01 -7.051897e+00 163 163 163
-9.229834e-01 -1.579982e-01 -7.063587e+00 152 153 155
-9.412730e-01 -1.610048e-01 -7.046225e+00 163 164 166
-9.335628e-01 -1.642662e-01 -7.033142e+00 43 48 52
-9.304546e-01 -1.646808e-01 -7.047831e+00 60 61 66
-9.336570e-01 -1.638172e-01 -7.032464e+00 36 41 42
-9.326245e-01 -1.629304e-01 -7.032117e+00 157 159 158
-9.175299e-01 -1.650703e-01 -7.042335e+00 46 51 55
-9.356177e-01 -1.650695e-01 -7.030751e+00 58 62 63
-9.350257e-01 -1.650226e-01 -7.031632e+00 153 158 161
-9.350257e-01 -1.650226e-01 -7.031632e+00 153 158 161
-9.369622e-01 -1.680412e-01 -7.034336e+00 117 125 127
-9.356906e-01 -1.660345e-01 -7.032471e+00 134 141 147
-1.038324e+00 5.078373e-02 -7.193801e+00 130 128 130
-9.733865e-01 5.045542e-02 -7.182667e+00 110 109 115
-1.003184e+00 4.235890e-03 -7.183799e+00 93 83 81
-1.023689e+00 3.031620e-02 -7.190769e+00 34 49 73
-9.364833e-01 -1.663210e-01 -7.035268e+00 119 125 128
-9.364833e-01 -1.663210e-01 -7.035268e+00 119 125 128
-9.353397e-01 -1.639754e-01 -7.034018e+00 103 110 114
-9.662115e-01 3.703746e-03 -7.164814e+00 48 49 51
-9.662115e-01 3.703746e-03 -7.164814e+00 48 49 51
-9.408027e-01 6.217285e-02 -7.119738e+00 72 70 71
-9.128755e-01 -3.104612e-02 -7.042243e+00 182 180 181
-9.211210e-01 -1.581531e-01 -7.036574e+00 156 158 155
-9.386770e-01 -1.643570e-01 -7.043117e+00 88 89 94
-9.389024e-01 -1.660190e-01 -7.038076e+00 51 55 58
-9.405368e-01 -1.647501e-01 -7.042041e+00 86 87 89
-9.204077e-01 -1.577668e-01 -6.987797e+00 0 255 0
-9.239115e-01 -1.632248e-01 -7.037375e+00 255 255 0
-9.218786e-01 -1.647010e-01 -6.988319e+00 255 0 0
-9.259754e-01 -1.616946e-01 -7.038060e+00 255 255 0
-9.224542e-01 -1.464732e-01 -6.986900e+00 0 255 0
-9.280506e-01 -1.584583e-01 -7.035118e+00 255 255 0
-9.217024e-01 -1.535903e-01 -6.989689e+00 255 0 0
-9.240144e-01 -1.701103e-01 -7.036825e+00 255 255 0
-9.222569e-01 -1.571951e-01 -6.989038e+00 0 255 0
-9.255875e-01 -1.659968e-01 -7.038145e+00 255 255 0
-9.222561e-01 -1.593497e-01 -6.988506e+00 255 0 0
-9.251016e-01 -1.626040e-01 -7.038319e+00 255 255 0
-9.223391e-01 -1.661323e-01 -6.986833e+00 0 255 0
-9.290857e-01 -1.751986e-01 -7.035539e+00 255 255 0
-9.228828e-01 -1.668747e-01 -6.987027e+00 255 0 0
-9.294398e-01 -1.692504e-01 -7.036538e+00 255 255 0
-9.229891e-01 -1.675848e-01 -6.987030e+00 0 255 0
-9.295089e-01 -1.654368e-01 -7.036557e+00 255 255 0
-9.230479e-01 -1.672185e-01 -6.987445e+00 255 0 0
-9.286287e-01 -1.606655e-01 -7.036698e+00 255 255 0
-9.268064e-01 -1.572506e-01 -6.997592e+00 0 255 0
-9.310021e-01 -1.660376e-01 -7.046635e+00 255 255 0
-9.274692e-01 -1.667441e-01 -6.998360e+00 255 0 0
-9.306879e-01 -1.667555e-01 -7.048257e+00 255 255 0
-9.262483e-01 -1.444489e-01 -6.991117e+00 0 255 0
-9.293744e-01 -1.648764e-01 -7.036646e+00 255 255 0
-9.263025e-01 -1.432915e-01 -6.991376e+00 255 0 0
-9.295857e-01 -1.624319e-01 -7.037451e+00 255 255 0
-9.263113e-01 -1.426027e-01 -6.991671e+00 0 255 0
-9.317534e-01 -1.596616e-01 -7.038355e+00 255 255 0
-9.265137e-01 -1.428205e-01 -6.991758e+00 255 0 0
-9.324711e-01 -1.560498e-01 -7.039606e+00 255 255 0
-9.231211e-01 -1.671254e-01 -6.987150e+00 0 255 0
-9.288567e-01 -1.576947e-01 -7.035916e+00 255 255 0
-9.320533e-01 -1.453241e-01 -7.001643e+00 255 0 0
-9.296041e-01 -1.692010e-01 -7.045505e+00 255 255 0
-9.293737e-01 -1.520044e-01 -6.997296e+00 0 255 0
-9.281882e-01 -1.677538e-01 -7.044736e+00 255 255 0
-9.271146e-01 -1.399576e-01 -6.991266e+00 255 0 0
-9.287301e-01 -1.607722e-01 -7.036699e+00 255 255 0
-9.277070e-01 -1.883951e-01 -7.091958e+00 0 255 0
-9.238073e-01 -2.125330e-01 -7.135572e+00 255 255 0
-9.267102e-01 -1.227863e-01 -6.996912e+00 255 0 0
-9.327647e-01 -1.545842e-01 -7.035020e+00 255 255 0
-9.266734e-01 -1.530549e-01 -6.993457e+00 0 255 0
-9.306120e-01 -1.592890e-01 -7.042910e+00 255 255 0
-9.241728e-01 -1.718592e-01 -6.990560e+00 255 0 0
-9.281475e-01 -1.619080e-01 -7.039399e+00 255 255 0
-9.240933e-01 -1.743468e-01 -6.989841e+00 0 255 0
-9.293999e-01 -1.656630e-01 -7.038794e+00 255 255 0
-9.281459e-01 -1.703620e-01 -6.999992e+00 255 0 0
-9.304238e-01 -1.645126e-01 -7.049597e+00 255 255 0
-9.278799e-01 -1.718707e-01 -7.001130e+00 0 255 0
-9.308659e-01 -1.654115e-01 -7.050621e+00 255 255 0
-9.247742e-01 -1.775007e-01 -6.989910e+00 255 0 0
-9.299550e-01 -1.652171e-01 -7.038100e+00 255 255 0
-9.287012e-01 -1.736875e-01 -7.002421e+00 0 255 0
-9.288617e-01 -1.639999e-01 -7.051473e+00 255 255 0
-9.273686e-01 -1.794679e-01 -6.994601e+00 255 0 0
-9.314784e-01 -1.670279e-01 -7.042854e+00 255 255 0
-9.316085e-01 -1.592501e-01 -7.007421e+00 0 255 0
-9.278614e-01 -1.650806e-01 -7.056938e+00 255 255 0
-9.317981e-01 -1.456270e-01 -7.001594e+00 255 0 0
-9.263493e-01 -1.720146e-01 -7.043713e+00 255 255 0
-9.294615e-01 -1.769689e-01 -7.002708e+00 0 255 0
-9.295009e-01 -1.625291e-01 -7.050577e+00 255 255 0
-9.294315e-01 -1.789200e-01 -7.003208e+00 255 0 0
-9.301030e-01 -1.627907e-01 -7.050530e+00 255 255 0
-9.290226e-01 -1.826970e-01 -6.996845e+00 0 255 0
-9.322050e-01 -1.644131e-01 -7.043273e+00 255 255 0
-9.320314e-01 -1.863016e-01 -7.001454e+00 255 0 0
-9.335019e-01 -1.642734e-01 -7.046316e+00 255 255 0
-9.314021e-01 -1.832376e-01 -7.003600e+00 0 255 0
-9.301119e-01 -1.660282e-01 -7.050527e+00 255 255 0
-9.326446e-01 -1.878691e-01 -7.004010e+00 255 0 0
-9.303951e-01 -1.668900e-01 -7.049340e+00 255 255 0
-9.335816e-01 -1.891077e-01 -7.005510e+00 0 255 0
-9.318036e-01 -1.628706e-01 -7.048036e+00 255 255 0
-9.359453e-01 -1.942990e-01 -7.007305e+00 255 0 0
-9.324425e-01 -1.653939e-01 -7.047953e+00 255 255 0
-9.328644e-01 -1.861482e-01 -7.005896e+00 0 255 0
-9.322318e-01 -1.602998e-01 -7.048692e+00 255 255 0
-9.385073e-01 -2.017704e-01 -6.992846e+00 255 0 0
-9.245362e-01 -1.752168e-01 -7.032843e+00 255 255 0
-9.412021e-01 -2.037711e-01 -6.994474e+00 0 255 0
-9.264604e-01 -1.745390e-01 -7.032265e+00 255 255 0
-9.503925e-01 -2.019768e-01 -7.002987e+00 255 0 0
-9.316613e-01 -1.681229e-01 -7.034658e+00 255 255 0
-9.435426e-01 -2.058806e-01 -6.996663e+00 0 255 0
-9.265730e-01 -1.746631e-01 -7.031841e+00 255 255 0
-9.479590e-01 -2.069935e-01 -7.000913e+00 255 0 0
-9.292627e-01 -1.743876e-01 -7.033887e+00 255 255 0
-9.329138e-01 -1.948216e-01 -7.009950e+00 0 255 0
-9.255563e-01 -1.615466e-01 -7.046538e+00 255 255 0
-9.475443e-01 -1.959612e-01 -7.013669e+00 255 0 0
-9.256300e-01 -1.624040e-01 -7.043564e+00 255 255 0
