ply
format ascii 1.0
element face 0
property list uchar int vertex_indices
element vertex 431
property float x
property float y
property float z
property uchar diffuse_red
property uchar diffuse_green
property uchar diffuse_blue
end_header
-9.289125e-01 -1.552943e-01 -7.043806e+00 30 31 52
-9.280615e-01 -1.573971e-01 -7.042027e+00 23 21 21
-9.244198e-01 -1.574214e-01 -7.045101e+00 26 27 30
-9.253237e-01 -1.613473e-01 -7.039555e+00 93 90 102
-9.239241e-01 -1.614074e-01 -7.041002e+00 95 93 105
-9.366787e-01 -1.513649e-01 -7.046030e+00 64 64 74
-9.238554e-01 -1.613766e-01 -7.040790e+00 95 93 105
-9.286662e-01 -1.610697e-01 -7.037081e+00 96 92 107
-9.295951e-01 -1.609043e-01 -7.036322e+00 97 94 113
-9.197135e-01 -1.618612e-01 -7.044870e+00 90 89 105
-9.370243e-01 -1.540030e-01 -7.044447e+00 55 58 65
-9.371832e-01 -1.653308e-01 -7.039836e+00 50 56 63
-9.152195e-01 -1.688234e-01 -7.050461e+00 103 105 104
-9.348577e-01 -1.606152e-01 -7.035080e+00 39 48 51
-9.353194e-01 -1.673745e-01 -7.038821e+00 76 83 93
-9.296922e-01 -1.608657e-01 -7.036925e+00 97 94 113
-9.196748e-01 -1.618087e-01 -7.043818e+00 90 89 105
-9.389233e-01 -1.524584e-01 -7.042612e+00 66 68 73
-9.320224e-01 -1.628761e-01 -7.035291e+00 86 97 119
-9.269040e-01 -1.523852e-01 -7.050774e+00 76 73 87
-1.063719e+00 -4.677913e-02 -7.321782e+00 118 116 117
-9.184079e-01 -1.686592e-01 -7.049956e+00 88 94 100
-9.335812e-01 -1.674925e-01 -7.039530e+00 70 76 97
-9.361552e-01 -1.641601e-01 -7.034845e+00 88 93 97
-9.333033e-01 -1.728976e-01 -7.033887e+00 176 176 176
-9.152652e-01 -1.733709e-01 -7.049617e+00 171 173 170
-9.223515e-01 -1.533473e-01 -7.056095e+00 66 65 81
-1.063717e+00 -4.715457e-02 -7.334619e+00 124 122 123
-9.363385e-01 -1.679157e-01 -7.038405e+00 177 179 178
-9.260726e-01 -1.678660e-01 -7.044316e+00 75 86 108
-9.369026e-01 -1.668345e-01 -7.038170e+00 46 53 59
-9.365075e-01 -1.607394e-01 -7.036068e+00 151 160 163
-9.284758e-01 -1.523262e-01 -7.049263e+00 78 76 90
-9.260198e-01 -1.679979e-01 -7.044770e+00 73 84 106
-9.205361e-01 -1.684465e-01 -7.048420e+00 77 85 107
-9.367555e-01 -1.512898e-01 -7.044958e+00 65 65 75
-1.070669e+00 -3.962849e-02 -7.329339e+00 10 12 13
-9.368217e-01 -1.656524e-01 -7.036330e+00 90 96 102
-9.229299e-01 -1.603067e-01 -7.043193e+00 32 30 38
-9.285300e-01 -1.582741e-01 -7.040829e+00 83 82 104
-9.376207e-01 -1.576678e-01 -7.037332e+00 99 104 108
-9.403021e-01 -1.535796e-01 -7.041383e+00 86 90 93
-9.355749e-01 -1.633568e-01 -7.034953e+00 95 102 106
-9.351536e-01 -1.631968e-01 -7.033634e+00 95 102 106
-9.345386e-01 -1.617296e-01 -7.034089e+00 80 89 92
-9.258342e-01 -1.582878e-01 -7.042693e+00 65 63 66
-9.265182e-01 -1.582377e-01 -7.042102e+00 64 62 63
-9.253503e-01 -1.574124e-01 -7.044105e+00 65 65 67
-9.253592e-01 -1.573791e-01 -7.044018e+00 65 65 67
-9.271765e-01 -1.573876e-01 -7.042880e+00 66 64 65
-9.282508e-01 -1.564673e-01 -7.042994e+00 63 65 69
-9.275820e-01 -1.564627e-01 -7.043497e+00 68 71 74
-9.275785e-01 -1.564637e-01 -7.043500e+00 68 71 74
-9.339358e-01 -1.422996e-01 -7.048042e+00 183 183 183
-9.125039e-01 -1.743032e-01 -7.052121e+00 179 179 178
-9.465921e-01 -1.519287e-01 -7.052106e+00 121 123 122
-9.350388e-01 -1.526940e-01 -7.043587e+00 64 61 80
-9.354639e-01 -1.623252e-01 -7.033813e+00 47 54 60
-9.362325e-01 -1.609591e-01 -7.035152e+00 148 156 159
-9.354771e-01 -1.653696e-01 -7.032624e+00 112 120 125
-9.358597e-01 -1.653287e-01 -7.033932e+00 112 120 125
-9.345105e-01 -1.617768e-01 -7.033931e+00 91 100 103
-1.060530e+00 -1.770646e-01 -7.310683e+00 166 168 164
-1.079768e+00 -2.292109e-02 -7.356876e+00 49 50 50
-1.062217e+00 -2.843442e-02 -7.321041e+00 95 94 90
-1.062217e+00 -2.843442e-02 -7.321041e+00 95 94 90
-9.259229e-01 -1.552816e-01 -7.046281e+00 33 35 51
-9.356129e-01 -1.647580e-01 -7.036839e+00 48 54 60
-9.363132e-01 -1.605236e-01 -7.035313e+00 152 160 163
-9.292357e-01 -1.540827e-01 -7.045463e+00 92 88 105
-9.253244e-01 -1.613211e-01 -7.039547e+00 98 91 109
-9.293421e-01 -1.566346e-01 -7.041582e+00 80 82 108
-9.285636e-01 -1.610541e-01 -7.036656e+00 98 94 111
-9.354671e-01 -1.628675e-01 -7.035737e+00 154 159 163
-9.250747e-01 -1.564929e-01 -7.045320e+00 62 66 69
-9.394198e-01 -1.533982e-01 -7.040144e+00 138 144 148
-1.017331e+00 -1.596688e-01 -7.212663e+00 55 57 54
-9.352964e-01 -1.590789e-01 -7.034435e+00 43 51 54
-9.247221e-01 -1.682736e-01 -7.046337e+00 81 89 110
-9.197499e-01 -1.621110e-01 -7.045891e+00 93 90 109
-9.335603e-01 -1.674335e-01 -7.039566e+00 72 78 100
-9.221022e-01 -1.540093e-01 -7.051373e+00 68 65 82
-9.349397e-01 -1.630456e-01 -7.033759e+00 107 114 120
-9.349397e-01 -1.630456e-01 -7.033759e+00 107 114 120
-9.371475e-01 -1.606109e-01 -7.038782e+00 154 159 163
-9.058863e-01 -1.675219e-01 -7.045223e+00 132 132 132
-9.388269e-01 -1.519932e-01 -7.042788e+00 66 73 76
-9.365225e-01 -1.607917e-01 -7.036403e+00 152 160 163
-9.367815e-01 -1.649439e-01 -7.036578e+00 106 113 119
-9.367815e-01 -1.649439e-01 -7.036578e+00 106 113 119
-9.377214e-01 -1.662935e-01 -7.037759e+00 131 135 138
-9.377214e-01 -1.662935e-01 -7.037759e+00 131 135 138
-9.365089e-01 -1.594717e-01 -7.037938e+00 94 101 107
-9.271635e-01 -1.575598e-01 -7.043083e+00 69 69 70
-9.403985e-01 -1.531557e-01 -7.042732e+00 135 139 142
-1.140594e+00 -2.214145e-01 -7.372221e+00 52 53 56
-9.257014e-01 -1.564169e-01 -7.044957e+00 66 67 72
-9.377094e-01 -1.549084e-01 -7.038724e+00 84 87 92
-9.372660e-01 -1.652034e-01 -7.039979e+00 48 55 61
-9.050367e-01 -1.687490e-01 -7.047649e+00 132 132 132
-9.179038e-01 -1.698165e-01 -7.055984e+00 163 164 166
-9.379401e-01 -1.645623e-01 -7.037202e+00 67 78 82
-9.431688e-01 -1.529263e-01 -7.047330e+00 179 183 184
-9.272616e-01 -1.537643e-01 -7.046188e+00 99 95 110
-9.410099e-01 -1.533587e-01 -7.041902e+00 79 85 88
-9.366585e-01 -1.504689e-01 -7.041850e+00 70 68 82
-9.385457e-01 -1.506218e-01 -7.040134e+00 85 86 89
-9.271326e-01 -1.575833e-01 -7.043397e+00 66 66 68
-9.247621e-01 -1.554688e-01 -7.043302e+00 30 28 39
-9.288664e-01 -1.564260e-01 -7.043374e+00 22 22 32
-9.407522e-01 -1.641198e-01 -7.015798e+00 32 34 33
-9.407522e-01 -1.641198e-01 -7.015798e+00 32 34 33
-9.357360e-01 -1.648425e-01 -7.042784e+00 38 46 49
-9.417017e-01 -1.650257e-01 -7.017213e+00 15 17 15
-9.257835e-01 -1.566654e-01 -7.043437e+00 21 22 24
-9.418854e-01 -1.659717e-01 -7.017389e+00 5 7 4
-9.409220e-01 -1.588455e-01 -7.049426e+00 99 108 113
-9.368769e-01 -1.523856e-01 -7.010712e+00 108 110 107
-9.419399e-01 -1.660730e-01 -7.016926e+00 30 32 29
-9.349134e-01 -1.485451e-01 -7.006653e+00 3 5 2
-9.373394e-01 -1.668234e-01 -7.037760e+00 72 76 79
-9.347519e-01 -1.485530e-01 -7.006701e+00 49 51 48
-9.347519e-01 -1.485530e-01 -7.006701e+00 49 51 48
-9.187654e-01 -1.694254e-01 -7.046690e+00 165 167 166
-9.738404e-01 -2.489099e-01 -7.122120e+00 174 173 174
-1.041974e+00 -2.977688e-01 -7.262036e+00 35 34 32
-1.041974e+00 -2.977688e-01 -7.262036e+00 35 34 32
-9.402878e-01 -1.708607e-01 -7.040939e+00 179 179 177
-9.360493e-01 -1.501502e-01 -7.009063e+00 62 64 61
-9.388893e-01 -1.596345e-01 -7.015038e+00 71 71 68
-9.365006e-01 -1.512536e-01 -7.009850e+00 130 131 129
-9.376072e-01 -1.530741e-01 -7.011276e+00 28 29 26
-9.272065e-01 -1.592152e-01 -7.037387e+00 33 25 25
-1.008535e+00 -2.722350e-02 -7.229745e+00 73 76 75
-9.328150e-01 -1.671468e-01 -7.039994e+00 63 72 97
-9.313669e-01 -1.678563e-01 -7.040657e+00 79 83 102
-9.238971e-01 -1.615136e-01 -7.040101e+00 97 93 107
-9.346659e-01 -1.555017e-01 -7.010131e+00 5 5 3
-9.351679e-01 -1.567757e-01 -7.004074e+00 66 66 64
-9.359392e-01 -1.563310e-01 -7.004387e+00 8 10 7
-9.386665e-01 -1.659848e-01 -7.040668e+00 66 76 81
-9.396839e-01 -1.524549e-01 -7.009936e+00 7 9 6
-9.352350e-01 -1.566871e-01 -7.004744e+00 5 7 4
-9.369650e-01 -1.561680e-01 -7.005115e+00 81 83 80
-9.350722e-01 -1.568476e-01 -7.004500e+00 61 63 60
-9.339328e-01 -1.541035e-01 -7.009924e+00 57 64 77
-9.352297e-01 -1.569450e-01 -7.002846e+00 67 69 66
-9.368684e-01 -1.563738e-01 -7.004017e+00 8 10 7
-9.363483e-01 -1.566702e-01 -7.004324e+00 87 90 87
-9.368010e-01 -1.562995e-01 -7.004160e+00 79 81 77
-9.329926e-01 -1.550354e-01 -7.008880e+00 12 12 10
-9.334316e-01 -1.549595e-01 -7.008440e+00 41 41 39
-9.347118e-01 -1.547511e-01 -7.008095e+00 76 33 35
-9.359051e-01 -1.565955e-01 -7.005029e+00 52 53 50
-9.342533e-01 -1.563140e-01 -7.008201e+00 39 41 38
-9.350753e-01 -1.547388e-01 -7.008843e+00 72 42 46
-9.368732e-01 -1.503367e-01 -7.011276e+00 37 37 35
-9.358227e-01 -1.563783e-01 -7.005184e+00 0 1 0
-9.348181e-01 -1.560785e-01 -7.006438e+00 5 7 4
-9.371576e-01 -1.560264e-01 -7.005542e+00 83 85 83
-9.349108e-01 -1.549414e-01 -7.007823e+00 63 64 59
-9.359993e-01 -1.544412e-01 -7.010936e+00 52 52 52
-9.392873e-01 -1.536832e-01 -7.008569e+00 198 200 195
-9.356873e-01 -1.499535e-01 -7.012855e+00 110 109 106
-9.356873e-01 -1.499535e-01 -7.012855e+00 110 109 106
-9.246961e-01 -1.682750e-01 -7.044465e+00 76 84 103
-9.113833e-01 -1.483319e-01 -7.048266e+00 178 178 178
-9.482206e-01 -1.492662e-01 -7.024548e+00 81 83 80
-9.469436e-01 -1.532010e-01 -7.023547e+00 4 6 2
-9.242872e-01 -1.613426e-01 -7.040963e+00 96 91 104
-9.430895e-01 -1.496481e-01 -7.025515e+00 15 14 12
-9.451643e-01 -1.504626e-01 -7.025036e+00 136 138 135
-9.429482e-01 -1.492861e-01 -7.025494e+00 80 79 77
-9.418924e-01 -1.521688e-01 -7.024171e+00 84 84 76
-9.506467e-01 -1.508453e-01 -7.024372e+00 46 48 49
-9.498172e-01 -1.482359e-01 -7.023885e+00 42 44 41
-9.534620e-01 -1.485002e-01 -7.023928e+00 102 104 99
-9.257117e-01 -1.560746e-01 -7.044455e+00 60 59 65
-9.340778e-01 -1.614983e-01 -7.037278e+00 42 47 53
-9.350905e-01 -1.532482e-01 -7.041702e+00 66 65 81
-9.399114e-01 -1.626434e-01 -7.040091e+00 67 72 75
-9.334520e-01 -1.600278e-01 -7.035333e+00 90 93 98
-9.359413e-01 -1.583579e-01 -7.035878e+00 45 53 56
-9.359893e-01 -1.581632e-01 -7.036512e+00 45 53 56
-9.353069e-01 -1.646618e-01 -7.035177e+00 38 47 54
-9.362334e-01 -1.619758e-01 -7.036562e+00 47 54 60
-9.360926e-01 -1.617000e-01 -7.034000e+00 221 226 230
-9.361070e-01 -1.616916e-01 -7.034056e+00 221 226 230
-9.356770e-01 -1.651508e-01 -7.033688e+00 148 155 161
-9.351698e-01 -1.639586e-01 -7.033476e+00 163 170 177
-9.351726e-01 -1.639117e-01 -7.033610e+00 163 170 177
-9.315082e-01 -1.677656e-01 -7.041429e+00 72 78 103
-9.382891e-01 -1.655200e-01 -7.036028e+00 188 191 194
-9.377941e-01 -1.656653e-01 -7.033428e+00 102 106 109
-9.341772e-01 -1.628445e-01 -7.033794e+00 46 50 56
-1.085103e+00 4.139463e-02 -7.324499e+00 138 136 128
-1.069984e+00 3.648488e-02 -7.337592e+00 75 77 74
-9.396632e-01 -1.510942e-01 -7.011512e+00 83 85 82
-9.398345e-01 -1.553934e-01 -7.008514e+00 104 109 105
-9.414451e-01 -1.480533e-01 -7.011380e+00 3 4 0
-9.379289e-01 -1.551890e-01 -7.008465e+00 86 88 85
-9.363867e-01 -1.569075e-01 -7.004256e+00 88 90 87
-9.418980e-01 -1.500101e-01 -7.010988e+00 2 4 2
-9.414040e-01 -1.524722e-01 -7.010008e+00 134 134 132
-9.401016e-01 -1.517196e-01 -7.011507e+00 89 91 88
-9.417165e-01 -1.474926e-01 -7.011283e+00 107 109 105
-9.401922e-01 -1.541350e-01 -7.008285e+00 127 127 124
-9.417242e-01 -1.481824e-01 -7.011246e+00 5 5 0
-9.364754e-01 -1.464088e-01 -7.013599e+00 13 13 13
-9.310477e-01 -1.587921e-01 -7.005496e+00 11 12 11
-9.336287e-01 -1.552716e-01 -7.008950e+00 41 41 39
-9.407235e-01 -1.522944e-01 -7.010471e+00 131 132 130
-9.342871e-01 -1.561652e-01 -7.012481e+00 175 176 174
-9.404417e-01 -1.493037e-01 -7.012119e+00 7 7 5
-9.406434e-01 -1.480160e-01 -7.011614e+00 107 104 99
-9.350359e-01 -1.573244e-01 -7.002626e+00 56 58 57
-9.389129e-01 -1.525717e-01 -7.009741e+00 8 10 7
-9.409641e-01 -1.493308e-01 -7.009783e+00 101 101 101
-9.402484e-01 -1.545803e-01 -7.008220e+00 111 111 109
-9.400455e-01 -1.537913e-01 -7.008678e+00 60 60 58
-9.404746e-01 -1.525674e-01 -7.009426e+00 85 86 81
-9.420831e-01 -1.524681e-01 -7.010181e+00 98 92 74
-9.421935e-01 -1.502584e-01 -7.011065e+00 101 103 100
-9.422835e-01 -1.499342e-01 -7.011167e+00 108 109 110
-9.420383e-01 -1.476624e-01 -7.011506e+00 95 95 89
-9.955205e-01 2.701127e-02 -7.228252e+00 116 118 117
-9.862679e-01 1.748648e-03 -7.192920e+00 22 26 26
-9.909958e-01 1.802023e-03 -7.188704e+00 96 97 94
-9.831194e-01 -1.234650e-03 -7.181542e+00 118 121 114
-1.013839e+00 3.264466e-02 -7.246454e+00 56 58 55
-9.322516e-01 -1.459753e-01 -7.001844e+00 6 5 1
-9.404702e-01 -1.486347e-01 -7.046876e+00 180 182 181
-9.345343e-01 -1.628166e-01 -7.033034e+00 163 171 173
-9.418357e-01 -1.611016e-01 -7.046429e+00 72 76 81
-9.375858e-01 -1.640397e-01 -7.037941e+00 56 61 65
-9.142356e-01 -1.625841e-01 -7.049663e+00 50 51 55
-9.280618e-01 -1.681926e-01 -7.043370e+00 84 87 106
-9.369021e-01 -1.661817e-01 -7.036058e+00 75 86 91
-9.364247e-01 -1.640156e-01 -7.035414e+00 131 135 140
-9.333887e-01 -1.619316e-01 -7.034842e+00 41 46 52
-9.357881e-01 -1.521673e-01 -7.044171e+00 75 75 87
-9.305929e-01 -1.680785e-01 -7.041199e+00 89 92 111
-1.084062e+00 3.437401e-02 -7.357840e+00 7 9 6
-1.079356e+00 3.820933e-02 -7.358945e+00 100 103 98
-1.077782e+00 -3.406539e-02 -7.351489e+00 114 114 116
-1.171505e+00 -3.360648e-01 -7.374137e+00 81 80 78
-1.006597e+00 1.548596e-02 -7.230836e+00 42 44 45
-1.006547e+00 1.550650e-02 -7.230917e+00 42 44 45
-9.378427e-01 -1.469959e-01 -7.011601e+00 1 3 0
-9.325543e-01 -1.560715e-01 -7.008128e+00 10 10 8
-9.328057e-01 -1.553291e-01 -7.008542e+00 10 11 8
-9.364150e-01 -1.564528e-01 -7.004237e+00 2 4 1
-9.371999e-01 -1.521311e-01 -7.010792e+00 28 30 27
-9.408740e-01 -1.526365e-01 -7.042697e+00 79 87 89
-9.349088e-01 -1.564093e-01 -7.002128e+00 4 6 4
-9.340192e-01 -1.553613e-01 -7.009754e+00 32 32 32
-9.357808e-01 -1.565328e-01 -7.004791e+00 3 5 3
-9.373224e-01 -1.517745e-01 -7.011426e+00 124 126 123
-9.466246e-01 -1.579085e-01 -7.039254e+00 47 46 43
-1.008027e+00 2.133967e-02 -7.232088e+00 28 30 29
-9.346465e-01 -1.480487e-01 -7.007806e+00 14 13 11
-9.338475e-01 -1.502734e-01 -7.006127e+00 41 41 39
-9.403258e-01 -1.551795e-01 -7.044611e+00 122 129 135
-9.350028e-01 -1.492247e-01 -7.007165e+00 61 63 60
-9.343306e-01 -1.485422e-01 -7.007266e+00 110 109 104
-9.973750e-01 1.672135e-02 -7.208416e+00 92 92 89
-9.258855e-01 -1.682649e-01 -7.045504e+00 75 79 102
-1.014933e+00 3.094006e-02 -7.247735e+00 6 7 9
-9.185671e-01 -1.686980e-01 -7.049401e+00 73 76 83
-9.382531e-01 -1.659724e-01 -7.037964e+00 50 58 61
-9.382531e-01 -1.659724e-01 -7.037964e+00 50 58 61
-9.202054e-01 -1.689545e-01 -7.048266e+00 73 73 91
-9.367498e-01 -1.663367e-01 -7.035480e+00 105 110 114
-9.208391e-01 -1.683362e-01 -7.047583e+00 69 76 91
-9.204009e-01 -1.683211e-01 -7.049024e+00 75 81 97
-9.280535e-01 -1.699303e-01 -7.047072e+00 181 183 182
-9.333928e-01 -1.600300e-01 -7.035431e+00 116 119 124
-9.388679e-01 -1.512086e-01 -7.041800e+00 178 180 179
-1.014511e+00 -2.035952e-02 -7.244973e+00 79 83 91
-9.922498e-01 5.760476e-03 -7.181630e+00 132 132 126
-9.988871e-01 4.631013e-03 -7.178338e+00 132 123 118
-1.002236e+00 5.653569e-03 -7.179751e+00 63 60 51
-9.839339e-01 9.908092e-03 -7.183233e+00 116 117 109
-9.839339e-01 9.908092e-03 -7.183233e+00 116 117 109
-1.000275e+00 4.320481e-03 -7.171583e+00 122 114 111
-9.879097e-01 8.179896e-03 -7.195930e+00 83 90 83
-1.013761e+00 1.245846e-02 -7.191061e+00 25 24 22
-9.992196e-01 7.891182e-03 -7.189680e+00 115 110 105
-9.911112e-01 3.019080e-03 -7.184871e+00 122 126 113
-9.936036e-01 4.722896e-03 -7.185131e+00 44 43 38
-1.004998e+00 6.547383e-03 -7.179715e+00 128 121 115
-1.004431e+00 6.203466e-03 -7.177174e+00 58 48 42
-1.004431e+00 6.203466e-03 -7.177174e+00 58 48 42
-9.992943e-01 6.759822e-03 -7.173108e+00 61 52 47
-9.815863e-01 8.226296e-03 -7.180131e+00 60 72 70
-9.815863e-01 8.226296e-03 -7.180131e+00 60 72 70
-9.955655e-01 6.089898e-03 -7.189403e+00 38 36 31
-1.012659e+00 7.693359e-03 -7.184978e+00 149 148 146
-1.008696e+00 6.537813e-03 -7.184969e+00 92 90 88
-1.005855e+00 6.528185e-03 -7.183011e+00 105 102 97
-1.006898e+00 6.439286e-03 -7.181768e+00 53 45 42
-9.912624e-01 7.020396e-03 -7.178309e+00 56 55 43
-9.868533e-01 7.947941e-03 -7.179190e+00 121 120 108
-9.469814e-01 -1.531350e-01 -7.064630e+00 71 75 76
-9.352322e-01 -1.636422e-01 -7.033777e+00 133 142 147
-9.348313e-01 -1.581559e-01 -7.036778e+00 117 118 122
-9.342669e-01 -1.616114e-01 -7.032603e+00 59 63 66
-9.457544e-01 -1.449183e-01 -7.030302e+00 33 33 33
-1.104415e+00 6.504144e-02 -7.383691e+00 83 84 79
-1.085644e+00 -2.111616e-03 -7.378013e+00 97 90 84
-1.085644e+00 -2.111616e-03 -7.378013e+00 97 90 84
-9.291414e-01 -1.682142e-01 -7.042195e+00 80 83 98
-1.066234e+00 -7.736590e-03 -7.333497e+00 19 19 17
-1.013215e+00 2.901970e-02 -7.244176e+00 15 16 17
-1.011255e+00 -2.177963e-02 -7.237754e+00 60 61 65
-1.037601e+00 4.607629e-02 -7.205571e+00 146 147 147
-1.032360e+00 4.232806e-02 -7.201885e+00 6 18 41
-1.033549e+00 4.632695e-02 -7.212126e+00 118 118 119
-1.033144e+00 4.529695e-02 -7.211089e+00 118 118 119
-9.997630e-01 6.734491e-03 -7.180170e+00 134 125 120
-1.004817e+00 6.127237e-03 -7.179311e+00 128 121 115
-9.833816e-01 2.372766e-03 -7.177859e+00 70 76 56
-1.021528e+00 3.493231e-02 -7.202114e+00 7 16 43
-9.975921e-01 6.245671e-03 -7.173649e+00 126 113 110
-9.886671e-01 8.656858e-03 -7.175995e+00 53 49 44
-1.008886e+00 2.458714e-02 -7.237167e+00 47 49 47
-1.013388e+00 1.540094e-02 -7.188155e+00 168 167 164
-1.010391e+00 3.663411e-02 -7.226471e+00 109 108 106
-9.835424e-01 -4.266371e-03 -7.180194e+00 34 40 37
-1.001823e+00 1.005157e-02 -7.177510e+00 125 115 111
-9.991605e-01 9.156646e-03 -7.184932e+00 126 122 117
-1.037310e+00 5.304325e-02 -7.219402e+00 130 133 132
-1.001138e+00 4.961736e-03 -7.175399e+00 131 120 116
-1.000808e+00 3.904521e-03 -7.174407e+00 131 120 116
-1.029903e+00 3.432874e-02 -7.195571e+00 4 14 39
-1.041894e+00 5.316294e-02 -7.208825e+00 37 40 44
-9.844555e-01 3.174598e-03 -7.173271e+00 77 74 65
-9.913620e-01 3.846610e-03 -7.170924e+00 91 77 70
-9.929922e-01 4.384912e-03 -7.168199e+00 139 128 125
-9.929922e-01 4.384912e-03 -7.168199e+00 139 128 125
-9.989581e-01 5.784103e-03 -7.167708e+00 140 129 123
-9.995085e-01 8.345380e-03 -7.166610e+00 56 51 46
-9.951720e-01 4.581675e-03 -7.165916e+00 133 123 115
-9.923545e-01 -2.478870e-04 -7.166341e+00 72 57 52
-9.944541e-01 -3.894664e-03 -7.158372e+00 134 122 116
-9.910519e-01 3.326841e-03 -7.164610e+00 60 52 50
-9.364623e-01 -1.640327e-01 -7.035626e+00 93 100 104
-9.171976e-01 -1.621624e-01 -7.045505e+00 53 50 66
-9.344886e-01 -1.524772e-01 -7.069178e+00 69 72 95
-9.322395e-01 -1.628738e-01 -7.035287e+00 80 91 113
-9.402152e-01 -1.611055e-01 -7.047544e+00 63 67 71
-9.370924e-01 -1.648921e-01 -7.037676e+00 88 95 101
-9.353354e-01 -1.614423e-01 -7.033409e+00 127 134 138
-9.403990e-01 -1.612672e-01 -7.045661e+00 141 149 152
-9.223882e-01 -1.592594e-01 -7.067675e+00 58 59 77
-9.203457e-01 -1.578739e-01 -6.987538e+00 0 255 0
-9.239001e-01 -1.633121e-01 -7.037114e+00 255 255 0
-9.218142e-01 -1.647711e-01 -6.987898e+00 255 0 0
-9.259108e-01 -1.617297e-01 -7.037637e+00 255 255 0
-9.223277e-01 -1.465239e-01 -6.986639e+00 0 255 0
-9.280096e-01 -1.586029e-01 -7.034825e+00 255 255 0
-9.215715e-01 -1.535325e-01 -6.989418e+00 255 0 0
-9.239728e-01 -1.701996e-01 -7.036498e+00 255 255 0
-9.220799e-01 -1.570792e-01 -6.988773e+00 0 255 0
-9.255432e-01 -1.660641e-01 -7.037837e+00 255 255 0
-9.221847e-01 -1.594487e-01 -6.988252e+00 255 0 0
-9.250791e-01 -1.626788e-01 -7.038063e+00 255 255 0
-9.222961e-01 -1.661648e-01 -6.986611e+00 0 255 0
-9.290618e-01 -1.752166e-01 -7.035317e+00 255 255 0
-9.227684e-01 -1.669044e-01 -6.986626e+00 255 0 0
-9.293740e-01 -1.692794e-01 -7.036131e+00 255 255 0
-9.229328e-01 -1.676146e-01 -6.986833e+00 0 255 0
-9.294820e-01 -1.654346e-01 -7.036354e+00 255 255 0
-9.229869e-01 -1.672398e-01 -6.987240e+00 255 0 0
-9.286031e-01 -1.606702e-01 -7.036487e+00 255 255 0
-9.266930e-01 -1.573507e-01 -6.997249e+00 0 255 0
-9.309513e-01 -1.661245e-01 -7.046289e+00 255 255 0
-9.273804e-01 -1.667451e-01 -6.998244e+00 255 0 0
-9.306607e-01 -1.667298e-01 -7.048136e+00 255 255 0
-9.263080e-01 -1.448741e-01 -6.990829e+00 0 255 0
-9.293477e-01 -1.650913e-01 -7.036458e+00 255 255 0
-9.262754e-01 -1.436366e-01 -6.991051e+00 255 0 0
-9.295579e-01 -1.626304e-01 -7.037186e+00 255 255 0
-9.262304e-01 -1.428732e-01 -6.991330e+00 0 255 0
-9.317125e-01 -1.598399e-01 -7.038042e+00 255 255 0
-9.264473e-01 -1.431199e-01 -6.991420e+00 255 0 0
-9.324175e-01 -1.562249e-01 -7.039301e+00 255 255 0
-9.230770e-01 -1.671326e-01 -6.986978e+00 0 255 0
-9.288349e-01 -1.576975e-01 -7.035741e+00 255 255 0
-9.319444e-01 -1.453356e-01 -7.001231e+00 255 0 0
-9.295161e-01 -1.693522e-01 -7.045018e+00 255 255 0
-9.292253e-01 -1.519364e-01 -6.996932e+00 0 255 0
-9.281094e-01 -1.678823e-01 -7.044308e+00 255 255 0
-9.270518e-01 -1.400645e-01 -6.990962e+00 255 0 0
-9.286828e-01 -1.609493e-01 -7.036362e+00 255 255 0
-9.276670e-01 -1.882677e-01 -7.090983e+00 0 255 0
-9.237843e-01 -2.123986e-01 -7.134602e+00 255 255 0
-9.266329e-01 -1.231028e-01 -6.996526e+00 255 0 0
-9.327068e-01 -1.548861e-01 -7.034643e+00 255 255 0
-9.267105e-01 -1.534896e-01 -6.993270e+00 0 255 0
-9.305447e-01 -1.594399e-01 -7.042767e+00 255 255 0
-9.240941e-01 -1.718129e-01 -6.990343e+00 255 0 0
-9.281128e-01 -1.618794e-01 -7.039182e+00 255 255 0
-9.240789e-01 -1.742356e-01 -6.989877e+00 0 255 0
-9.294221e-01 -1.655394e-01 -7.038824e+00 255 255 0
-9.280695e-01 -1.703520e-01 -6.999697e+00 255 0 0
-9.303554e-01 -1.644794e-01 -7.049298e+00 255 255 0
-9.278135e-01 -1.718165e-01 -7.000957e+00 0 255 0
-9.308308e-01 -1.653367e-01 -7.050443e+00 255 255 0
-9.246808e-01 -1.773382e-01 -6.989859e+00 255 0 0
-9.299641e-01 -1.650972e-01 -7.038049e+00 255 255 0
-9.286181e-01 -1.735718e-01 -7.002266e+00 0 255 0
-9.288425e-01 -1.639084e-01 -7.051323e+00 255 255 0
-9.272223e-01 -1.792634e-01 -6.994464e+00 255 0 0
-9.314699e-01 -1.669001e-01 -7.042724e+00 255 255 0
-9.315990e-01 -1.594873e-01 -7.007079e+00 0 255 0
-9.277173e-01 -1.650921e-01 -7.056612e+00 255 255 0
-9.316939e-01 -1.457168e-01 -7.001230e+00 255 0 0
-9.262550e-01 -1.721782e-01 -7.043304e+00 255 255 0
-9.293347e-01 -1.767983e-01 -7.002435e+00 0 255 0
-9.294555e-01 -1.624411e-01 -7.050329e+00 255 255 0
-9.293008e-01 -1.787340e-01 -7.002829e+00 255 0 0
-9.300246e-01 -1.626953e-01 -7.050181e+00 255 255 0
-9.289452e-01 -1.822893e-01 -6.996867e+00 0 255 0
-9.321576e-01 -1.640577e-01 -7.043314e+00 255 255 0
-9.322049e-01 -1.859637e-01 -7.001485e+00 255 0 0
-9.332542e-01 -1.637160e-01 -7.046250e+00 255 255 0
-9.315192e-01 -1.826921e-01 -7.003897e+00 0 255 0
-9.297604e-01 -1.652014e-01 -7.050705e+00 255 255 0
-9.322993e-01 -1.877643e-01 -7.002837e+00 255 0 0
-9.304308e-01 -1.672221e-01 -7.048384e+00 255 255 0
