ply
format ascii 1.0
element face 0
property list uchar int vertex_indices
element vertex 500
property float x
property float y
property float z
property uchar diffuse_red
property uchar diffuse_green
property uchar diffuse_blue
end_header
-9.289701e-01 -1.552812e-01 -7.044053e+00 30 31 52
-9.281190e-01 -1.573867e-01 -7.042268e+00 23 21 21
-9.244708e-01 -1.574109e-01 -7.045349e+00 26 27 30
-9.253784e-01 -1.613417e-01 -7.039793e+00 93 90 102
-9.239757e-01 -1.614012e-01 -7.041238e+00 95 93 105
-9.367450e-01 -1.513484e-01 -7.046268e+00 64 64 74
-9.239072e-01 -1.613707e-01 -7.041032e+00 95 93 105
-9.287273e-01 -1.610635e-01 -7.037315e+00 96 92 107
-9.296543e-01 -1.608967e-01 -7.036543e+00 97 94 113
-9.197563e-01 -1.618562e-01 -7.045122e+00 90 89 105
-9.370915e-01 -1.539871e-01 -7.044695e+00 55 58 65
-9.372576e-01 -1.653311e-01 -7.040094e+00 50 56 63
-9.152428e-01 -1.688375e-01 -7.050760e+00 103 105 104
-9.349277e-01 -1.606089e-01 -7.035306e+00 39 48 51
-9.353559e-01 -1.673804e-01 -7.039023e+00 76 83 93
-9.297555e-01 -1.608597e-01 -7.037156e+00 97 94 113
-9.197196e-01 -1.618035e-01 -7.044058e+00 90 89 105
-9.389934e-01 -1.524409e-01 -7.042859e+00 66 68 73
-9.321007e-01 -1.628665e-01 -7.035578e+00 86 97 119
-9.269542e-01 -1.523699e-01 -7.051021e+00 76 73 87
-1.063664e+00 -4.667461e-02 -7.322510e+00 118 116 117
-9.184433e-01 -1.686675e-01 -7.050234e+00 88 94 100
-9.336505e-01 -1.674940e-01 -7.039774e+00 70 76 97
-9.362250e-01 -1.641553e-01 -7.035065e+00 88 93 97
-9.333516e-01 -1.728820e-01 -7.034061e+00 176 176 176
-9.152901e-01 -1.734007e-01 -7.049949e+00 171 173 170
-9.223911e-01 -1.533254e-01 -7.056402e+00 66 65 81
-1.063498e+00 -4.730257e-02 -7.334792e+00 124 122 123
-9.364137e-01 -1.679204e-01 -7.038668e+00 177 179 178
-9.261240e-01 -1.678653e-01 -7.044547e+00 75 86 108
-9.369666e-01 -1.668306e-01 -7.038392e+00 46 53 59
-9.365607e-01 -1.607282e-01 -7.036246e+00 151 160 163
-9.285264e-01 -1.523148e-01 -7.049470e+00 78 76 90
-9.260748e-01 -1.680043e-01 -7.045040e+00 73 84 106
-9.205754e-01 -1.684571e-01 -7.048714e+00 77 85 107
-9.368204e-01 -1.512712e-01 -7.045203e+00 65 65 75
-1.070424e+00 -3.981676e-02 -7.329541e+00 10 12 13
-9.368783e-01 -1.656424e-01 -7.036519e+00 90 96 102
-9.229789e-01 -1.603004e-01 -7.043441e+00 32 30 38
-9.285849e-01 -1.582639e-01 -7.041041e+00 83 82 104
-9.376788e-01 -1.576575e-01 -7.037529e+00 99 104 108
-9.403411e-01 -1.535682e-01 -7.041537e+00 86 90 93
-9.356291e-01 -1.633454e-01 -7.035130e+00 95 102 106
-9.351870e-01 -1.631786e-01 -7.033739e+00 95 102 106
-9.345675e-01 -1.617124e-01 -7.034175e+00 80 89 92
-9.258882e-01 -1.582782e-01 -7.042934e+00 65 63 66
-9.265733e-01 -1.582276e-01 -7.042341e+00 64 62 63
-9.254039e-01 -1.574027e-01 -7.044352e+00 65 65 67
-9.254131e-01 -1.573695e-01 -7.044265e+00 65 65 67
-9.272324e-01 -1.573768e-01 -7.043119e+00 66 64 65
-9.283077e-01 -1.564547e-01 -7.043231e+00 63 65 69
-9.276386e-01 -1.564507e-01 -7.043738e+00 68 71 74
-9.276351e-01 -1.564517e-01 -7.043741e+00 68 71 74
-9.340001e-01 -1.422516e-01 -7.048324e+00 183 183 183
-9.466086e-01 -1.519500e-01 -7.052205e+00 121 123 122
-9.351051e-01 -1.526751e-01 -7.043837e+00 64 61 80
-9.355184e-01 -1.623244e-01 -7.033966e+00 47 54 60
-9.362809e-01 -1.609594e-01 -7.035284e+00 148 156 159
-9.355325e-01 -1.653683e-01 -7.032791e+00 112 120 125
-9.359041e-01 -1.653281e-01 -7.034047e+00 112 120 125
-9.345708e-01 -1.617735e-01 -7.034108e+00 91 100 103
-1.060181e+00 -1.770584e-01 -7.310662e+00 166 168 164
-1.079525e+00 -2.309164e-02 -7.357066e+00 49 50 50
-1.061968e+00 -2.863474e-02 -7.321237e+00 95 94 90
-1.061968e+00 -2.863474e-02 -7.321237e+00 95 94 90
-9.259778e-01 -1.552694e-01 -7.046529e+00 33 35 51
-9.356736e-01 -1.647505e-01 -7.037047e+00 48 54 60
-9.363763e-01 -1.605176e-01 -7.035521e+00 152 160 163
-9.292950e-01 -1.540675e-01 -7.045701e+00 92 88 105
-9.253792e-01 -1.613167e-01 -7.039788e+00 98 91 109
-9.294006e-01 -1.566214e-01 -7.041815e+00 80 82 108
-9.286195e-01 -1.610455e-01 -7.036881e+00 98 94 111
-9.355283e-01 -1.628607e-01 -7.035942e+00 154 159 163
-9.251283e-01 -1.564822e-01 -7.045567e+00 62 66 69
-9.394784e-01 -1.533822e-01 -7.040342e+00 138 144 148
-1.016964e+00 -1.596386e-01 -7.212110e+00 55 57 54
-9.353423e-01 -1.590653e-01 -7.034579e+00 43 51 54
-9.247735e-01 -1.682816e-01 -7.046620e+00 81 89 110
-9.197923e-01 -1.621037e-01 -7.046137e+00 93 90 109
-9.336135e-01 -1.674214e-01 -7.039743e+00 72 78 100
-9.221434e-01 -1.539850e-01 -7.051674e+00 68 65 82
-9.349804e-01 -1.630498e-01 -7.033852e+00 107 114 120
-9.349804e-01 -1.630498e-01 -7.033852e+00 107 114 120
-9.371866e-01 -1.606212e-01 -7.038903e+00 154 159 163
-9.059216e-01 -1.675005e-01 -7.045429e+00 132 132 132
-9.388913e-01 -1.519755e-01 -7.042992e+00 66 73 76
-9.365797e-01 -1.607787e-01 -7.036587e+00 152 160 163
-9.368226e-01 -1.649060e-01 -7.036697e+00 106 113 119
-9.368226e-01 -1.649060e-01 -7.036697e+00 106 113 119
-9.377525e-01 -1.662405e-01 -7.037846e+00 131 135 138
-9.377525e-01 -1.662405e-01 -7.037846e+00 131 135 138
-9.365654e-01 -1.594573e-01 -7.038121e+00 94 101 107
-9.272199e-01 -1.575491e-01 -7.043322e+00 69 69 70
-9.404606e-01 -1.531367e-01 -7.042919e+00 135 139 142
-1.140334e+00 -2.210131e-01 -7.372313e+00 52 53 56
-9.257560e-01 -1.564059e-01 -7.045203e+00 66 67 72
-9.377649e-01 -1.548965e-01 -7.038908e+00 84 87 92
-9.373277e-01 -1.651959e-01 -7.040199e+00 48 55 61
-9.050425e-01 -1.687633e-01 -7.047936e+00 132 132 132
-9.179471e-01 -1.698126e-01 -7.056207e+00 163 164 166
-9.380371e-01 -1.646308e-01 -7.037569e+00 67 78 82
-9.433910e-01 -1.529994e-01 -7.048085e+00 179 183 184
-9.273195e-01 -1.537493e-01 -7.046428e+00 99 95 110
-9.410736e-01 -1.533393e-01 -7.042096e+00 79 85 88
-9.367039e-01 -1.504333e-01 -7.041948e+00 70 68 82
-9.385745e-01 -1.505776e-01 -7.040179e+00 85 86 89
-9.271895e-01 -1.575735e-01 -7.043638e+00 66 66 68
-9.248161e-01 -1.554508e-01 -7.043527e+00 30 28 39
-9.289249e-01 -1.564122e-01 -7.043608e+00 22 22 32
-9.408252e-01 -1.641253e-01 -7.016014e+00 32 34 33
-9.408252e-01 -1.641253e-01 -7.016014e+00 32 34 33
-9.357839e-01 -1.648041e-01 -7.042928e+00 38 46 49
-9.417864e-01 -1.650574e-01 -7.017453e+00 15 17 15
-9.258389e-01 -1.566498e-01 -7.043664e+00 21 22 24
-9.419797e-01 -1.660251e-01 -7.017646e+00 5 7 4
-9.409697e-01 -1.588053e-01 -7.049545e+00 99 108 113
-9.368810e-01 -1.523058e-01 -7.010795e+00 108 110 107
-9.420283e-01 -1.661146e-01 -7.017174e+00 30 32 29
-9.348696e-01 -1.484424e-01 -7.006650e+00 3 5 2
-9.374244e-01 -1.668878e-01 -7.038109e+00 72 76 79
-9.346989e-01 -1.484317e-01 -7.006665e+00 49 51 48
-9.346989e-01 -1.484317e-01 -7.006665e+00 49 51 48
-9.188114e-01 -1.694234e-01 -7.046949e+00 165 167 166
-9.737490e-01 -2.485185e-01 -7.122116e+00 174 173 174
-1.041911e+00 -2.974317e-01 -7.262395e+00 35 34 32
-1.041911e+00 -2.974317e-01 -7.262395e+00 35 34 32
-9.403398e-01 -1.708464e-01 -7.041139e+00 179 179 177
-9.359912e-01 -1.500194e-01 -7.009027e+00 62 64 61
-9.389352e-01 -1.595939e-01 -7.015204e+00 71 71 68
-9.364614e-01 -1.511314e-01 -7.009856e+00 130 131 129
-9.375892e-01 -1.529701e-01 -7.011329e+00 28 29 26
-9.272573e-01 -1.591544e-01 -7.037481e+00 33 25 25
-1.008191e+00 -2.768154e-02 -7.229282e+00 73 76 75
-9.328843e-01 -1.671497e-01 -7.040242e+00 63 72 97
-9.314410e-01 -1.678544e-01 -7.040953e+00 79 83 102
-9.239526e-01 -1.615038e-01 -7.040361e+00 97 93 107
-9.346292e-01 -1.553351e-01 -7.010112e+00 5 5 3
-9.351658e-01 -1.566556e-01 -7.004174e+00 66 66 64
-9.359246e-01 -1.562010e-01 -7.004472e+00 8 10 7
-9.387333e-01 -1.659734e-01 -7.040862e+00 66 76 81
-9.395423e-01 -1.522805e-01 -7.009835e+00 7 9 6
-9.352236e-01 -1.565545e-01 -7.004826e+00 5 7 4
-9.369358e-01 -1.560290e-01 -7.005182e+00 81 83 80
-9.350702e-01 -1.567267e-01 -7.004596e+00 61 63 60
-9.338906e-01 -1.539310e-01 -7.009876e+00 57 64 77
-9.352387e-01 -1.568404e-01 -7.002966e+00 67 69 66
-9.368535e-01 -1.562491e-01 -7.004109e+00 8 10 7
-9.363375e-01 -1.565474e-01 -7.004417e+00 87 90 87
-9.367850e-01 -1.561735e-01 -7.004249e+00 79 81 77
-9.329688e-01 -1.548665e-01 -7.008867e+00 12 12 10
-9.334095e-01 -1.548035e-01 -7.008451e+00 41 41 39
-9.346661e-01 -1.545801e-01 -7.008080e+00 76 33 35
-9.358882e-01 -1.564613e-01 -7.005107e+00 52 53 50
-9.342352e-01 -1.561649e-01 -7.008237e+00 39 41 38
-9.350234e-01 -1.545658e-01 -7.008815e+00 72 42 46
-9.368919e-01 -1.502604e-01 -7.011394e+00 37 37 35
-9.358068e-01 -1.562463e-01 -7.005261e+00 0 1 0
-9.347950e-01 -1.559284e-01 -7.006484e+00 5 7 4
-9.371216e-01 -1.558821e-01 -7.005599e+00 83 85 83
-9.348701e-01 -1.547769e-01 -7.007824e+00 63 64 59
-9.359356e-01 -1.542687e-01 -7.010878e+00 52 52 52
-9.391788e-01 -1.535125e-01 -7.008525e+00 198 200 195
-9.355797e-01 -1.497995e-01 -7.012665e+00 110 109 106
-9.355797e-01 -1.497995e-01 -7.012665e+00 110 109 106
-9.247432e-01 -1.682871e-01 -7.044742e+00 76 84 103
-9.113965e-01 -1.483220e-01 -7.048576e+00 178 178 178
-9.481650e-01 -1.492082e-01 -7.024557e+00 81 83 80
-9.469019e-01 -1.531256e-01 -7.023566e+00 4 6 2
-9.243412e-01 -1.613343e-01 -7.041187e+00 96 91 104
-9.430721e-01 -1.495932e-01 -7.025546e+00 15 14 12
-9.451339e-01 -1.504022e-01 -7.025059e+00 136 138 135
-9.429310e-01 -1.492327e-01 -7.025525e+00 80 79 77
-9.418836e-01 -1.521041e-01 -7.024211e+00 84 84 76
-9.505729e-01 -1.507773e-01 -7.024370e+00 46 48 49
-9.497446e-01 -1.481811e-01 -7.023885e+00 42 44 41
-9.533575e-01 -1.484417e-01 -7.023911e+00 102 104 99
-9.257658e-01 -1.560622e-01 -7.044696e+00 60 59 65
-9.341492e-01 -1.614929e-01 -7.037510e+00 42 47 53
-9.351484e-01 -1.532475e-01 -7.041906e+00 66 65 81
-9.400021e-01 -1.626259e-01 -7.040383e+00 67 72 75
-9.335279e-01 -1.600123e-01 -7.035592e+00 90 93 98
-9.360469e-01 -1.582963e-01 -7.036255e+00 45 53 56
-9.360389e-01 -1.581822e-01 -7.036651e+00 45 53 56
-9.353439e-01 -1.646860e-01 -7.035234e+00 38 47 54
-9.363138e-01 -1.619633e-01 -7.036819e+00 47 54 60
-9.361786e-01 -1.616851e-01 -7.034258e+00 221 226 230
-9.362009e-01 -1.616727e-01 -7.034331e+00 221 226 230
-9.357605e-01 -1.651435e-01 -7.033942e+00 148 155 161
-9.352505e-01 -1.639511e-01 -7.033722e+00 163 170 177
-9.352563e-01 -1.639020e-01 -7.033866e+00 163 170 177
-9.315305e-01 -1.678484e-01 -7.041300e+00 72 78 103
-9.384044e-01 -1.654945e-01 -7.036397e+00 188 191 194
-9.378434e-01 -1.656790e-01 -7.033549e+00 102 106 109
-9.342555e-01 -1.628361e-01 -7.034042e+00 46 50 56
-1.084804e+00 4.130916e-02 -7.324728e+00 138 136 128
-1.070538e+00 3.688184e-02 -7.339105e+00 75 77 74
-9.395056e-01 -1.509300e-01 -7.011363e+00 83 85 82
-9.397454e-01 -1.552271e-01 -7.008504e+00 104 109 105
-9.411946e-01 -1.479166e-01 -7.011143e+00 3 4 0
-9.378605e-01 -1.550251e-01 -7.008459e+00 86 88 85
-9.363847e-01 -1.567938e-01 -7.004361e+00 88 90 87
-9.416739e-01 -1.498500e-01 -7.010804e+00 2 4 2
-9.412374e-01 -1.522974e-01 -7.009901e+00 134 134 132
-9.399414e-01 -1.515488e-01 -7.011363e+00 89 91 88
-9.414568e-01 -1.473659e-01 -7.011044e+00 107 109 105
-9.400780e-01 -1.539640e-01 -7.008250e+00 127 127 124
-9.414710e-01 -1.480443e-01 -7.011016e+00 5 5 0
-9.363405e-01 -1.463085e-01 -7.013365e+00 13 13 13
-9.310869e-01 -1.587544e-01 -7.005689e+00 11 12 11
-9.336003e-01 -1.551086e-01 -7.008949e+00 41 41 39
-9.405686e-01 -1.521236e-01 -7.010363e+00 131 132 130
-9.342570e-01 -1.559980e-01 -7.012447e+00 175 176 174
-9.402424e-01 -1.491554e-01 -7.011914e+00 7 7 5
-9.404181e-01 -1.478833e-01 -7.011386e+00 107 104 99
-9.350601e-01 -1.572413e-01 -7.002767e+00 56 58 57
-9.387919e-01 -1.524023e-01 -7.009657e+00 8 10 7
-9.407479e-01 -1.491778e-01 -7.009610e+00 101 101 101
-9.401465e-01 -1.544134e-01 -7.008201e+00 111 111 109
-9.399142e-01 -1.536100e-01 -7.008613e+00 60 60 58
-9.403289e-01 -1.523958e-01 -7.009340e+00 85 86 81
-9.418983e-01 -1.522898e-01 -7.010063e+00 98 92 74
-9.419773e-01 -1.500994e-01 -7.010896e+00 101 103 100
-9.420555e-01 -1.497768e-01 -7.010981e+00 108 109 110
-9.417757e-01 -1.475338e-01 -7.011267e+00 95 95 89
-9.951745e-01 2.655209e-02 -7.228029e+00 116 118 117
-9.865540e-01 2.427114e-03 -7.193998e+00 22 26 26
-9.909228e-01 1.809246e-03 -7.188909e+00 96 97 94
-9.831545e-01 -1.028388e-03 -7.181917e+00 118 121 114
-1.013477e+00 3.235992e-02 -7.246507e+00 56 58 55
-9.323096e-01 -1.459744e-01 -7.002016e+00 6 5 1
-9.405009e-01 -1.486666e-01 -7.047001e+00 180 182 181
-9.346166e-01 -1.628083e-01 -7.033284e+00 163 171 173
-9.419570e-01 -1.610506e-01 -7.046852e+00 72 76 81
-9.376724e-01 -1.640267e-01 -7.038220e+00 56 61 65
-9.143180e-01 -1.626531e-01 -7.049570e+00 50 51 55
-9.281250e-01 -1.681981e-01 -7.043632e+00 84 87 106
-9.370180e-01 -1.661501e-01 -7.036454e+00 75 86 91
-9.365130e-01 -1.640026e-01 -7.035687e+00 131 135 140
-9.334648e-01 -1.619170e-01 -7.035108e+00 41 46 52
-9.358849e-01 -1.520775e-01 -7.044579e+00 75 75 87
-9.306547e-01 -1.680895e-01 -7.041415e+00 89 92 111
-1.083742e+00 3.430996e-02 -7.358051e+00 7 9 6
-1.079583e+00 3.821865e-02 -7.359800e+00 100 103 98
-1.077454e+00 -3.406450e-02 -7.351641e+00 114 114 116
-1.171315e+00 -3.356091e-01 -7.374562e+00 81 80 78
-1.006416e+00 1.542071e-02 -7.230888e+00 42 44 45
-1.006543e+00 1.574215e-02 -7.231515e+00 42 44 45
-9.376996e-01 -1.468876e-01 -7.011421e+00 1 3 0
-9.325428e-01 -1.559047e-01 -7.008141e+00 10 10 8
-9.327705e-01 -1.551278e-01 -7.008492e+00 10 11 8
-9.364022e-01 -1.563298e-01 -7.004329e+00 2 4 1
-9.370903e-01 -1.519568e-01 -7.010674e+00 28 30 27
-9.409349e-01 -1.526201e-01 -7.042875e+00 79 87 89
-9.349059e-01 -1.562865e-01 -7.002234e+00 4 6 4
-9.339736e-01 -1.551696e-01 -7.009700e+00 32 32 32
-9.357674e-01 -1.564033e-01 -7.004874e+00 3 5 3
-9.372092e-01 -1.516042e-01 -7.011295e+00 124 126 123
-9.466605e-01 -1.578869e-01 -7.039375e+00 47 46 43
-1.007612e+00 2.052320e-02 -7.231265e+00 28 30 29
-9.346108e-01 -1.479617e-01 -7.007760e+00 14 13 11
-9.339054e-01 -1.502608e-01 -7.006298e+00 41 41 39
-9.403979e-01 -1.551601e-01 -7.044841e+00 122 129 135
-9.349811e-01 -1.491271e-01 -7.007191e+00 61 63 60
-9.343239e-01 -1.484596e-01 -7.007282e+00 110 109 104
-9.973242e-01 1.648478e-02 -7.208151e+00 92 92 89
-9.259446e-01 -1.682740e-01 -7.045700e+00 75 79 102
-1.014735e+00 3.079654e-02 -7.247557e+00 6 7 9
-9.186471e-01 -1.687006e-01 -7.049511e+00 73 76 83
-9.383733e-01 -1.659378e-01 -7.038377e+00 50 58 61
-9.383733e-01 -1.659378e-01 -7.038377e+00 50 58 61
-9.202566e-01 -1.689451e-01 -7.048488e+00 73 73 91
-9.368487e-01 -1.663154e-01 -7.035841e+00 105 110 114
-9.209179e-01 -1.683640e-01 -7.047690e+00 69 76 91
-9.204766e-01 -1.683461e-01 -7.049144e+00 75 81 97
-9.282116e-01 -1.703638e-01 -7.044672e+00 181 183 182
-9.334682e-01 -1.600558e-01 -7.035668e+00 116 119 124
-9.388630e-01 -1.513159e-01 -7.041916e+00 178 180 179
-1.014229e+00 -2.052917e-02 -7.244880e+00 79 83 91
-9.921796e-01 5.652470e-03 -7.181539e+00 132 132 126
-9.988589e-01 4.620605e-03 -7.178373e+00 132 123 118
-1.002223e+00 5.606454e-03 -7.179703e+00 63 60 51
-9.838241e-01 9.697811e-03 -7.183046e+00 116 117 109
-9.838241e-01 9.697811e-03 -7.183046e+00 116 117 109
-1.000321e+00 4.398851e-03 -7.171686e+00 122 114 111
-9.879065e-01 8.160352e-03 -7.195946e+00 83 90 83
-1.013718e+00 1.232675e-02 -7.190889e+00 25 24 22
-9.992510e-01 7.895489e-03 -7.189714e+00 115 110 105
-9.911621e-01 3.116682e-03 -7.185021e+00 122 126 113
-9.935719e-01 4.693074e-03 -7.185143e+00 44 43 38
-1.004893e+00 6.355041e-03 -7.179478e+00 128 121 115
-1.004384e+00 6.068379e-03 -7.177018e+00 58 48 42
-1.004384e+00 6.068379e-03 -7.177018e+00 58 48 42
-9.992533e-01 6.595505e-03 -7.172916e+00 61 52 47
-9.815525e-01 8.165299e-03 -7.180119e+00 60 72 70
-9.815525e-01 8.165299e-03 -7.180119e+00 60 72 70
-9.955282e-01 6.078504e-03 -7.189438e+00 38 36 31
-1.012741e+00 7.755116e-03 -7.185055e+00 149 148 146
-1.008784e+00 6.619564e-03 -7.185082e+00 92 90 88
-1.005862e+00 6.542279e-03 -7.183016e+00 105 102 97
-1.006871e+00 6.364775e-03 -7.181684e+00 53 45 42
-9.912251e-01 6.925730e-03 -7.178244e+00 56 55 43
-9.868079e-01 7.812691e-03 -7.179068e+00 121 120 108
-9.469465e-01 -1.532351e-01 -7.064610e+00 71 75 76
-9.352669e-01 -1.637590e-01 -7.033821e+00 133 142 147
-9.348831e-01 -1.582395e-01 -7.036908e+00 117 118 122
-9.343217e-01 -1.616893e-01 -7.032747e+00 59 63 66
-9.459011e-01 -1.448406e-01 -7.030645e+00 33 33 33
-1.103975e+00 6.493102e-02 -7.383910e+00 83 84 79
-1.085272e+00 -2.141770e-03 -7.377860e+00 97 90 84
-1.085272e+00 -2.141770e-03 -7.377860e+00 97 90 84
-9.292264e-01 -1.681533e-01 -7.042659e+00 80 83 98
-1.066527e+00 -8.065617e-03 -7.333536e+00 19 19 17
-1.012920e+00 2.901293e-02 -7.244112e+00 15 16 17
-1.011088e+00 -2.191284e-02 -7.237537e+00 60 61 65
-1.037806e+00 4.609410e-02 -7.205590e+00 146 147 147
-1.032519e+00 4.223286e-02 -7.201739e+00 6 18 41
-1.033507e+00 4.620642e-02 -7.211830e+00 118 118 119
-1.033138e+00 4.523560e-02 -7.210933e+00 118 118 119
-9.996878e-01 6.698737e-03 -7.180189e+00 134 125 120
-1.004729e+00 5.976232e-03 -7.179112e+00 128 121 115
-9.833867e-01 2.349451e-03 -7.178216e+00 70 76 56
-1.021613e+00 3.493236e-02 -7.202085e+00 7 16 43
-9.975902e-01 6.217599e-03 -7.173633e+00 126 113 110
-9.885822e-01 8.580227e-03 -7.176035e+00 53 49 44
-1.008870e+00 2.462009e-02 -7.237348e+00 47 49 47
-1.013451e+00 1.538746e-02 -7.188170e+00 168 167 164
-1.010386e+00 3.663861e-02 -7.226396e+00 109 108 106
-9.835119e-01 -4.231859e-03 -7.180632e+00 34 40 37
-1.001705e+00 9.860410e-03 -7.177234e+00 125 115 111
-9.991187e-01 9.106523e-03 -7.184942e+00 126 122 117
-1.037405e+00 5.303770e-02 -7.219045e+00 130 133 132
-1.001131e+00 4.955220e-03 -7.175405e+00 131 120 116
-1.000803e+00 3.897539e-03 -7.174427e+00 131 120 116
-1.029920e+00 3.431256e-02 -7.195531e+00 4 14 39
-1.041913e+00 5.305974e-02 -7.208513e+00 37 40 44
-9.843709e-01 3.106942e-03 -7.173359e+00 77 74 65
-9.914014e-01 3.888412e-03 -7.171026e+00 91 77 70
-9.930326e-01 4.444353e-03 -7.168312e+00 139 128 125
-9.930326e-01 4.444353e-03 -7.168312e+00 139 128 125
-9.989822e-01 5.765149e-03 -7.167693e+00 140 129 123
-9.995280e-01 8.327601e-03 -7.166588e+00 56 51 46
-9.952850e-01 4.665014e-03 -7.166080e+00 133 123 115
-9.924003e-01 -2.398324e-04 -7.166433e+00 72 57 52
-9.947647e-01 -3.888276e-03 -7.158520e+00 134 122 116
-9.911131e-01 3.378891e-03 -7.164733e+00 60 52 50
-9.363434e-01 -1.642702e-01 -7.035475e+00 93 100 104
-9.175361e-01 -1.623529e-01 -7.045350e+00 53 50 66
-9.344088e-01 -1.532520e-01 -7.067460e+00 69 72 95
-9.322315e-01 -1.617839e-01 -7.037121e+00 80 91 113
-9.390560e-01 -1.641529e-01 -7.041905e+00 63 67 71
-9.366897e-01 -1.660229e-01 -7.035880e+00 88 95 101
-9.354039e-01 -1.600743e-01 -7.035423e+00 127 134 138
-9.389665e-01 -1.648558e-01 -7.039337e+00 141 149 152
-9.230975e-01 -1.606331e-01 -7.063870e+00 58 59 77
-1.009940e+00 2.774665e-02 -7.238310e+00 10 11 13
-9.900005e-01 4.071929e-03 -7.184838e+00 79 85 64
-1.035672e+00 3.701442e-02 -7.193154e+00 19 20 24
-1.117650e+00 4.274270e-02 -7.458121e+00 51 51 51
-1.000584e+00 9.551668e-03 -7.194711e+00 9 10 6
-9.790508e-01 6.065408e-03 -7.181337e+00 54 57 57
-9.830774e-01 1.305667e-02 -7.181393e+00 128 129 125
-9.770797e-01 1.340197e-02 -7.179454e+00 20 20 22
-9.835273e-01 2.350944e-02 -7.185582e+00 28 28 28
-9.789446e-01 6.223059e-03 -7.177189e+00 130 125 122
-1.013237e+00 2.960759e-02 -7.244626e+00 11 12 11
-9.859738e-01 7.768937e-03 -7.197171e+00 97 100 93
-1.036096e+00 4.590093e-02 -7.210923e+00 43 45 44
-1.001424e+00 5.568522e-04 -7.170459e+00 125 115 109
-9.400413e-01 -1.694430e-01 -7.041060e+00 191 191 191
-9.997186e-01 7.984083e-03 -7.175495e+00 100 88 82
-1.030360e+00 5.722831e-02 -7.210455e+00 6 28 58
-1.038173e+00 5.086991e-02 -7.199452e+00 130 129 127
-9.731087e-01 9.662149e-03 -7.173836e+00 45 46 48
-9.904828e-01 1.715506e-02 -7.179164e+00 132 128 125
-9.946109e-01 3.692711e-02 -7.187152e+00 47 42 36
-9.885669e-01 6.501272e-03 -7.176793e+00 65 67 54
-9.884045e-01 6.011464e-03 -7.176348e+00 65 67 54
-9.877417e-01 6.195698e-03 -7.174839e+00 75 73 58
-9.806485e-01 2.397890e-02 -7.184958e+00 107 107 109
-9.906061e-01 2.344698e-02 -7.179276e+00 47 44 41
-1.001345e+00 2.087542e-03 -7.167572e+00 92 86 77
-1.048349e+00 5.485277e-02 -7.202284e+00 140 139 139
-1.041169e+00 5.087840e-02 -7.191815e+00 117 118 117
-9.783273e-01 2.570656e-02 -7.186120e+00 33 34 36
-1.048272e+00 4.608235e-02 -7.187211e+00 119 119 117
-1.048272e+00 4.608235e-02 -7.187211e+00 119 119 117
-9.803394e-01 1.128683e-02 -7.186095e+00 46 52 52
-9.956146e-01 1.105733e-01 -7.226289e+00 43 50 68
-9.995006e-01 7.272462e-03 -7.168852e+00 133 127 122
-1.049212e+00 5.015851e-02 -7.187380e+00 120 118 119
-1.052101e+00 5.761377e-02 -7.190465e+00 8 8 8
-1.053570e+00 6.008486e-02 -7.192205e+00 8 8 8
-1.010502e+00 1.525856e-01 -7.262764e+00 96 98 99
-9.824617e-01 1.445439e-02 -7.179477e+00 109 107 108
-9.971509e-01 5.872007e-03 -7.164707e+00 124 116 113
-9.945690e-01 1.556058e-02 -7.170990e+00 124 116 114
-9.819890e-01 6.789120e-02 -7.191414e+00 76 81 86
-1.049649e+00 2.880648e-02 -7.190916e+00 6 6 6
-9.272330e-01 -1.684481e-01 -7.047817e+00 174 175 177
-9.331200e-01 -1.644923e-01 -7.038786e+00 82 91 120
-9.382521e-01 -1.498056e-01 -7.043357e+00 177 177 177
-9.973644e-01 2.937326e-02 -7.227398e+00 19 21 18
-1.027328e+00 4.225743e-02 -7.212764e+00 1 1 2
-9.937688e-01 -3.370761e-03 -7.156406e+00 120 119 114
-9.885484e-01 1.534846e-02 -7.206973e+00 21 23 22
-1.004836e+00 3.651602e-03 -7.180447e+00 109 100 95
-1.021032e+00 4.593178e-02 -7.192132e+00 18 31 56
-9.750609e-01 2.459589e-02 -7.183514e+00 80 81 83
-9.195809e-01 -1.670945e-01 -7.051940e+00 58 57 73
-9.794998e-01 1.305831e-02 -7.182617e+00 102 103 105
-9.909326e-01 7.017712e-03 -7.168217e+00 120 112 110
-1.035879e+00 4.317651e-02 -7.184802e+00 7 7 7
-9.959753e-01 1.101013e-03 -7.169164e+00 119 109 102
-9.377035e-01 -1.520244e-01 -7.043268e+00 68 70 73
-9.401715e-01 -1.629746e-01 -7.041722e+00 72 75 78
-9.144916e-01 -1.729104e-01 -7.044226e+00 174 174 174
-9.342633e-01 -1.659706e-01 -7.039526e+00 83 91 114
-9.322367e-01 -1.604494e-01 -7.036779e+00 57 57 69
-9.204269e-01 -1.578455e-01 -6.987702e+00 0 255 0
-9.239498e-01 -1.632997e-01 -7.037279e+00 255 255 0
-9.219159e-01 -1.647542e-01 -6.988063e+00 255 0 0
-9.259654e-01 -1.617249e-01 -7.037806e+00 255 255 0
-9.224069e-01 -1.465293e-01 -6.986793e+00 0 255 0
-9.280628e-01 -1.585821e-01 -7.034988e+00 255 255 0
-9.216588e-01 -1.535587e-01 -6.989583e+00 255 0 0
-9.240268e-01 -1.701894e-01 -7.036677e+00 255 255 0
-9.221797e-01 -1.571319e-01 -6.988938e+00 0 255 0
-9.255986e-01 -1.660589e-01 -7.038015e+00 255 255 0
-9.222738e-01 -1.594175e-01 -6.988420e+00 255 0 0
-9.251309e-01 -1.626683e-01 -7.038232e+00 255 255 0
-9.223515e-01 -1.661639e-01 -6.986756e+00 0 255 0
-9.291123e-01 -1.752186e-01 -7.035462e+00 255 255 0
-9.228685e-01 -1.668870e-01 -6.986798e+00 255 0 0
-9.294298e-01 -1.692770e-01 -7.036308e+00 255 255 0
-9.230288e-01 -1.675922e-01 -6.986997e+00 0 255 0
-9.295383e-01 -1.654331e-01 -7.036525e+00 255 255 0
-9.230751e-01 -1.672227e-01 -6.987384e+00 255 0 0
-9.286547e-01 -1.606724e-01 -7.036638e+00 255 255 0
-9.267670e-01 -1.573378e-01 -6.997435e+00 0 255 0
-9.310044e-01 -1.661138e-01 -7.046476e+00 255 255 0
-9.274713e-01 -1.667327e-01 -6.998452e+00 255 0 0
-9.307157e-01 -1.667278e-01 -7.048347e+00 255 255 0
-9.263214e-01 -1.447662e-01 -6.990991e+00 0 255 0
-9.293963e-01 -1.650492e-01 -7.036589e+00 255 255 0
-9.263169e-01 -1.435563e-01 -6.991224e+00 255 0 0
-9.296061e-01 -1.625945e-01 -7.037341e+00 255 255 0
-9.262883e-01 -1.428194e-01 -6.991507e+00 0 255 0
-9.317647e-01 -1.598106e-01 -7.038211e+00 255 255 0
-9.265023e-01 -1.430519e-01 -6.991596e+00 255 0 0
-9.324726e-01 -1.561966e-01 -7.039467e+00 255 255 0
-9.231842e-01 -1.670541e-01 -6.986972e+00 0 255 0
-9.288698e-01 -1.577013e-01 -7.035760e+00 255 255 0
-9.320138e-01 -1.453588e-01 -7.001427e+00 255 0 0
-9.295763e-01 -1.693298e-01 -7.045239e+00 255 255 0
-9.293106e-01 -1.519846e-01 -6.997119e+00 0 255 0
-9.281658e-01 -1.678638e-01 -7.044516e+00 255 255 0
-9.271141e-01 -1.400633e-01 -6.991142e+00 255 0 0
-9.287369e-01 -1.609295e-01 -7.036551e+00 255 255 0
-9.277178e-01 -1.882660e-01 -7.091235e+00 0 255 0
-9.238308e-01 -2.123989e-01 -7.134852e+00 255 255 0
-9.266939e-01 -1.230667e-01 -6.996742e+00 255 0 0
-9.327633e-01 -1.548535e-01 -7.034857e+00 255 255 0
-9.267468e-01 -1.533949e-01 -6.993418e+00 0 255 0
-9.306036e-01 -1.594138e-01 -7.042905e+00 255 255 0
-9.242198e-01 -1.718070e-01 -6.990474e+00 255 0 0
-9.281670e-01 -1.618933e-01 -7.039322e+00 255 255 0
-9.242101e-01 -1.742349e-01 -6.990027e+00 0 255 0
-9.294826e-01 -1.655537e-01 -7.038985e+00 255 255 0
-9.281591e-01 -1.703487e-01 -6.999894e+00 255 0 0
-9.304131e-01 -1.644850e-01 -7.049497e+00 255 255 0
-9.279107e-01 -1.718041e-01 -7.001142e+00 0 255 0
-9.308866e-01 -1.653525e-01 -7.050635e+00 255 255 0
-9.248038e-01 -1.773921e-01 -6.990011e+00 255 0 0
-9.300227e-01 -1.651184e-01 -7.038199e+00 255 255 0
-9.287129e-01 -1.735724e-01 -7.002470e+00 0 255 0
-9.289021e-01 -1.639229e-01 -7.051529e+00 255 255 0
-9.273656e-01 -1.793179e-01 -6.994702e+00 255 0 0
-9.315419e-01 -1.669064e-01 -7.042956e+00 255 255 0
-9.316340e-01 -1.594434e-01 -7.007253e+00 0 255 0
-9.277981e-01 -1.651006e-01 -7.056783e+00 255 255 0
-9.317513e-01 -1.457087e-01 -7.001399e+00 255 0 0
-9.263245e-01 -1.721491e-01 -7.043488e+00 255 255 0
-9.294310e-01 -1.768486e-01 -7.002666e+00 0 255 0
-9.295119e-01 -1.624491e-01 -7.050548e+00 255 255 0
-9.293929e-01 -1.787743e-01 -7.003140e+00 255 0 0
-9.300703e-01 -1.626666e-01 -7.050470e+00 255 255 0
-9.290699e-01 -1.823234e-01 -6.997269e+00 0 255 0
-9.322353e-01 -1.640183e-01 -7.043690e+00 255 255 0
-9.319872e-01 -1.856915e-01 -7.002015e+00 255 0 0
-9.332688e-01 -1.635201e-01 -7.046812e+00 255 255 0
-9.313878e-01 -1.825322e-01 -7.004329e+00 0 255 0
-9.298601e-01 -1.651384e-01 -7.051181e+00 255 255 0
-9.322748e-01 -1.870538e-01 -7.004289e+00 255 0 0
-9.303111e-01 -1.662711e-01 -7.049722e+00 255 255 0
-9.332907e-01 -1.881765e-01 -7.006047e+00 0 255 0
-9.316236e-01 -1.619904e-01 -7.048609e+00 255 255 0
-9.354530e-01 -1.927156e-01 -7.008911e+00 255 0 0
-9.321061e-01 -1.637598e-01 -7.049536e+00 255 255 0
-9.326243e-01 -1.853973e-01 -7.006365e+00 0 255 0
-9.320757e-01 -1.595678e-01 -7.049173e+00 255 255 0
