ply
format ascii 1.0
element face 0
property list uchar int vertex_indices
element vertex 571
property float x
property float y
property float z
property uchar diffuse_red
property uchar diffuse_green
property uchar diffuse_blue
end_header
-9.289411e-01 -1.552567e-01 -7.044092e+00 30 31 52
-9.280875e-01 -1.573604e-01 -7.042301e+00 23 21 21
-9.244468e-01 -1.573894e-01 -7.045405e+00 26 27 30
-9.253476e-01 -1.613176e-01 -7.039842e+00 93 90 102
-9.239515e-01 -1.613761e-01 -7.041290e+00 95 93 105
-9.367197e-01 -1.513280e-01 -7.046337e+00 64 64 74
-9.238740e-01 -1.613463e-01 -7.041073e+00 95 93 105
-9.286936e-01 -1.610385e-01 -7.037354e+00 96 92 107
-9.296277e-01 -1.608726e-01 -7.036597e+00 97 94 113
-9.197341e-01 -1.618318e-01 -7.045180e+00 90 89 105
-9.370667e-01 -1.539636e-01 -7.044760e+00 55 58 65
-9.372416e-01 -1.653096e-01 -7.040177e+00 50 56 63
-9.152311e-01 -1.688068e-01 -7.050805e+00 103 105 104
-9.348977e-01 -1.605841e-01 -7.035342e+00 39 48 51
-9.354230e-01 -1.673736e-01 -7.039420e+00 76 83 93
-9.297228e-01 -1.608351e-01 -7.037194e+00 97 94 113
-9.196999e-01 -1.617802e-01 -7.044126e+00 90 89 105
-9.389578e-01 -1.524249e-01 -7.042868e+00 66 68 73
-9.320699e-01 -1.628435e-01 -7.035621e+00 86 97 119
-9.269334e-01 -1.523475e-01 -7.051101e+00 76 73 87
-1.063853e+00 -4.655898e-02 -7.322785e+00 118 116 117
-9.184057e-01 -1.686473e-01 -7.050227e+00 88 94 100
-9.336359e-01 -1.674776e-01 -7.039889e+00 70 76 97
-9.362151e-01 -1.641353e-01 -7.035178e+00 88 93 97
-9.333120e-01 -1.728378e-01 -7.034081e+00 176 176 176
-9.152555e-01 -1.733924e-01 -7.050084e+00 171 173 170
-9.223620e-01 -1.532988e-01 -7.056468e+00 66 65 81
-1.063450e+00 -4.730362e-02 -7.334831e+00 124 122 123
-9.364046e-01 -1.679063e-01 -7.038783e+00 177 179 178
-9.261016e-01 -1.678494e-01 -7.044654e+00 75 86 108
-9.369450e-01 -1.668084e-01 -7.038476e+00 46 53 59
-9.365388e-01 -1.607047e-01 -7.036324e+00 151 160 163
-9.285008e-01 -1.522877e-01 -7.049557e+00 78 76 90
-9.260461e-01 -1.679817e-01 -7.045110e+00 73 84 106
-9.205424e-01 -1.684371e-01 -7.048764e+00 77 85 107
-9.367961e-01 -1.512466e-01 -7.045281e+00 65 65 75
-1.070418e+00 -3.978278e-02 -7.329544e+00 10 12 13
-9.368640e-01 -1.656236e-01 -7.036621e+00 90 96 102
-9.229520e-01 -1.602749e-01 -7.043491e+00 32 30 38
-9.285607e-01 -1.582399e-01 -7.041120e+00 83 82 104
-9.376529e-01 -1.576333e-01 -7.037596e+00 99 104 108
-9.403226e-01 -1.535420e-01 -7.041629e+00 86 90 93
-9.356125e-01 -1.633244e-01 -7.035225e+00 95 102 106
-9.351646e-01 -1.631554e-01 -7.033812e+00 95 102 106
-9.345421e-01 -1.616883e-01 -7.034237e+00 80 89 92
-9.258611e-01 -1.582530e-01 -7.042982e+00 65 63 66
-9.265456e-01 -1.582022e-01 -7.042387e+00 64 62 63
-9.253766e-01 -1.573783e-01 -7.044402e+00 65 65 67
-9.253858e-01 -1.573453e-01 -7.044315e+00 65 65 67
-9.272048e-01 -1.573522e-01 -7.043167e+00 66 64 65
-9.282796e-01 -1.564302e-01 -7.043277e+00 63 65 69
-9.276109e-01 -1.564262e-01 -7.043785e+00 68 71 74
-9.276075e-01 -1.564271e-01 -7.043788e+00 68 71 74
-9.339506e-01 -1.423201e-01 -7.048167e+00 183 183 183
-9.465851e-01 -1.519315e-01 -7.052274e+00 121 123 122
-9.350633e-01 -1.526741e-01 -7.043810e+00 64 61 80
-9.355310e-01 -1.622919e-01 -7.034166e+00 47 54 60
-9.362581e-01 -1.609381e-01 -7.035374e+00 148 156 159
-9.355320e-01 -1.653401e-01 -7.032946e+00 112 120 125
-9.359387e-01 -1.653041e-01 -7.034324e+00 112 120 125
-9.345672e-01 -1.617446e-01 -7.034255e+00 91 100 103
-1.060125e+00 -1.770983e-01 -7.310592e+00 166 168 164
-1.079467e+00 -2.308396e-02 -7.357101e+00 49 50 50
-1.061977e+00 -2.860117e-02 -7.321224e+00 95 94 90
-1.061977e+00 -2.860117e-02 -7.321224e+00 95 94 90
-9.259502e-01 -1.552472e-01 -7.046584e+00 33 35 51
-9.356513e-01 -1.647289e-01 -7.037131e+00 48 54 60
-9.363550e-01 -1.604985e-01 -7.035610e+00 152 160 163
-9.292676e-01 -1.540453e-01 -7.045755e+00 92 88 105
-9.253424e-01 -1.612911e-01 -7.039839e+00 98 91 109
-9.293724e-01 -1.565964e-01 -7.041861e+00 80 82 108
-9.285907e-01 -1.610211e-01 -7.036936e+00 98 94 111
-9.355068e-01 -1.628414e-01 -7.036030e+00 154 159 163
-9.251006e-01 -1.564593e-01 -7.045620e+00 62 66 69
-9.394597e-01 -1.533611e-01 -7.040439e+00 138 144 148
-1.016765e+00 -1.596230e-01 -7.211847e+00 55 57 54
-9.353194e-01 -1.590418e-01 -7.034654e+00 43 51 54
-9.247468e-01 -1.682577e-01 -7.046689e+00 81 89 110
-9.197645e-01 -1.620771e-01 -7.046188e+00 93 90 109
-9.335947e-01 -1.674040e-01 -7.039845e+00 72 78 100
-9.221212e-01 -1.540193e-01 -7.051462e+00 68 65 82
-9.349869e-01 -1.630214e-01 -7.034034e+00 107 114 120
-9.349869e-01 -1.630214e-01 -7.034034e+00 107 114 120
-9.371823e-01 -1.605964e-01 -7.038986e+00 154 159 163
-9.059021e-01 -1.674611e-01 -7.045462e+00 132 132 132
-9.388565e-01 -1.519516e-01 -7.043021e+00 66 73 76
-9.365612e-01 -1.607637e-01 -7.036694e+00 152 160 163
-9.367995e-01 -1.648853e-01 -7.036783e+00 106 113 119
-9.367995e-01 -1.648853e-01 -7.036783e+00 106 113 119
-9.377266e-01 -1.662154e-01 -7.037923e+00 131 135 138
-9.377266e-01 -1.662154e-01 -7.037923e+00 131 135 138
-9.365460e-01 -1.594405e-01 -7.038225e+00 94 101 107
-9.271920e-01 -1.575245e-01 -7.043370e+00 69 69 70
-9.404231e-01 -1.531119e-01 -7.042941e+00 135 139 142
-1.140177e+00 -2.207991e-01 -7.372370e+00 52 53 56
-9.257285e-01 -1.563834e-01 -7.045257e+00 66 67 72
-9.377455e-01 -1.548749e-01 -7.039006e+00 84 87 92
-9.373070e-01 -1.651744e-01 -7.040291e+00 48 55 61
-9.049754e-01 -1.687791e-01 -7.048088e+00 132 132 132
-9.179045e-01 -1.698283e-01 -7.056352e+00 163 164 166
-9.380294e-01 -1.646615e-01 -7.037731e+00 67 78 82
-9.434451e-01 -1.530299e-01 -7.048435e+00 179 183 184
-9.272924e-01 -1.537283e-01 -7.046484e+00 99 95 110
-9.410363e-01 -1.533140e-01 -7.042119e+00 79 85 88
-9.366809e-01 -1.504165e-01 -7.042019e+00 70 68 82
-9.385459e-01 -1.505575e-01 -7.040226e+00 85 86 89
-9.271613e-01 -1.575498e-01 -7.043689e+00 66 66 68
-9.247879e-01 -1.554308e-01 -7.043598e+00 30 28 39
-9.288969e-01 -1.563886e-01 -7.043656e+00 22 22 32
-9.407988e-01 -1.641127e-01 -7.016083e+00 32 34 33
-9.407988e-01 -1.641127e-01 -7.016083e+00 32 34 33
-9.357581e-01 -1.648007e-01 -7.043022e+00 38 46 49
-9.417649e-01 -1.650557e-01 -7.017532e+00 15 17 15
-9.258093e-01 -1.566336e-01 -7.043742e+00 21 22 24
-9.419619e-01 -1.660316e-01 -7.017733e+00 5 7 4
-9.409397e-01 -1.587857e-01 -7.049602e+00 99 108 113
-9.368186e-01 -1.522502e-01 -7.010794e+00 108 110 107
-9.420098e-01 -1.661194e-01 -7.017258e+00 30 32 29
-9.347892e-01 -1.483828e-01 -7.006618e+00 3 5 2
-9.374154e-01 -1.669349e-01 -7.038292e+00 72 76 79
-9.346155e-01 -1.483650e-01 -7.006620e+00 49 51 48
-9.346155e-01 -1.483650e-01 -7.006620e+00 49 51 48
-9.187901e-01 -1.693910e-01 -7.047004e+00 165 167 166
-9.736616e-01 -2.483244e-01 -7.122096e+00 174 173 174
-1.041859e+00 -2.972830e-01 -7.262579e+00 35 34 32
-1.041859e+00 -2.972830e-01 -7.262579e+00 35 34 32
-9.403034e-01 -1.708124e-01 -7.041185e+00 179 179 177
-9.359088e-01 -1.499514e-01 -7.008987e+00 62 64 61
-9.388962e-01 -1.595601e-01 -7.015249e+00 71 71 68
-9.363869e-01 -1.510668e-01 -7.009834e+00 130 131 129
-9.375228e-01 -1.529116e-01 -7.011326e+00 28 29 26
-9.272275e-01 -1.591302e-01 -7.037535e+00 33 25 25
-1.008122e+00 -2.787179e-02 -7.229094e+00 73 76 75
-9.328548e-01 -1.671333e-01 -7.040319e+00 63 72 97
-9.314242e-01 -1.678385e-01 -7.041137e+00 79 83 102
-9.238980e-01 -1.614932e-01 -7.040344e+00 97 93 107
-9.345677e-01 -1.552636e-01 -7.010105e+00 5 5 3
-9.351215e-01 -1.566081e-01 -7.004216e+00 66 66 64
-9.358753e-01 -1.561484e-01 -7.004507e+00 8 10 7
-9.387046e-01 -1.659459e-01 -7.040904e+00 66 76 81
-9.394381e-01 -1.522026e-01 -7.009790e+00 7 9 6
-9.351753e-01 -1.565015e-01 -7.004861e+00 5 7 4
-9.368808e-01 -1.559720e-01 -7.005211e+00 81 83 80
-9.350257e-01 -1.566788e-01 -7.004638e+00 61 63 60
-9.338262e-01 -1.538556e-01 -7.009856e+00 57 64 77
-9.351997e-01 -1.568004e-01 -7.003016e+00 67 69 66
-9.368050e-01 -1.561989e-01 -7.004147e+00 8 10 7
-9.362891e-01 -1.564967e-01 -7.004454e+00 87 90 87
-9.367359e-01 -1.561224e-01 -7.004286e+00 79 81 77
-9.329119e-01 -1.547938e-01 -7.008863e+00 12 12 10
-9.333530e-01 -1.547353e-01 -7.008454e+00 41 41 39
-9.346016e-01 -1.545071e-01 -7.008075e+00 76 33 35
-9.358380e-01 -1.564072e-01 -7.005140e+00 52 53 50
-9.341814e-01 -1.561018e-01 -7.008252e+00 39 41 38
-9.349564e-01 -1.544918e-01 -7.008805e+00 72 42 46
-9.368315e-01 -1.502096e-01 -7.011398e+00 37 37 35
-9.357555e-01 -1.561910e-01 -7.005292e+00 0 1 0
-9.347400e-01 -1.558653e-01 -7.006503e+00 5 7 4
-9.370639e-01 -1.558226e-01 -7.005623e+00 83 85 83
-9.348074e-01 -1.547062e-01 -7.007825e+00 63 64 59
-9.358633e-01 -1.541936e-01 -7.010854e+00 52 52 52
-9.390894e-01 -1.534377e-01 -7.008505e+00 198 200 195
-9.354871e-01 -1.497278e-01 -7.012583e+00 110 109 106
-9.354871e-01 -1.497278e-01 -7.012583e+00 110 109 106
-9.247175e-01 -1.682627e-01 -7.044836e+00 76 84 103
-9.113451e-01 -1.483070e-01 -7.048710e+00 178 178 178
-9.480707e-01 -1.491657e-01 -7.024514e+00 81 83 80
-9.468143e-01 -1.530722e-01 -7.023527e+00 4 6 2
-9.243130e-01 -1.613183e-01 -7.041266e+00 96 91 104
-9.429992e-01 -1.495523e-01 -7.025513e+00 15 14 12
-9.450533e-01 -1.503580e-01 -7.025023e+00 136 138 135
-9.428583e-01 -1.491927e-01 -7.025493e+00 80 79 77
-9.418150e-01 -1.520568e-01 -7.024183e+00 84 84 76
-9.504685e-01 -1.507290e-01 -7.024322e+00 46 48 49
-9.496413e-01 -1.481407e-01 -7.023839e+00 42 44 41
-9.532370e-01 -1.483992e-01 -7.023857e+00 102 104 99
-9.257380e-01 -1.560411e-01 -7.044750e+00 60 59 65
-9.341180e-01 -1.614695e-01 -7.037547e+00 42 47 53
-9.351342e-01 -1.532062e-01 -7.041991e+00 66 65 81
-9.399967e-01 -1.626011e-01 -7.040454e+00 67 72 75
-9.334789e-01 -1.600139e-01 -7.035529e+00 90 93 98
-9.360389e-01 -1.582395e-01 -7.036337e+00 45 53 56
-9.360150e-01 -1.581554e-01 -7.036694e+00 45 53 56
-9.353210e-01 -1.646619e-01 -7.035305e+00 38 47 54
-9.362878e-01 -1.619422e-01 -7.036851e+00 47 54 60
-9.361543e-01 -1.616585e-01 -7.034297e+00 221 226 230
-9.361724e-01 -1.616480e-01 -7.034372e+00 221 226 230
-9.357410e-01 -1.651212e-01 -7.034011e+00 148 155 161
-9.352211e-01 -1.639326e-01 -7.033753e+00 163 170 177
-9.352276e-01 -1.638820e-01 -7.033901e+00 163 170 177
-9.315861e-01 -1.676993e-01 -7.042119e+00 72 78 103
-9.383799e-01 -1.654819e-01 -7.036424e+00 188 191 194
-9.378554e-01 -1.656506e-01 -7.033686e+00 102 106 109
-9.342170e-01 -1.628220e-01 -7.034043e+00 46 50 56
-1.084955e+00 4.130388e-02 -7.324689e+00 138 136 128
-1.071341e+00 3.743562e-02 -7.340547e+00 75 77 74
-9.393933e-01 -1.508549e-01 -7.011296e+00 83 85 82
-9.396650e-01 -1.551558e-01 -7.008499e+00 104 109 105
-9.410423e-01 -1.478515e-01 -7.011038e+00 3 4 0
-9.377902e-01 -1.549569e-01 -7.008460e+00 86 88 85
-9.363432e-01 -1.567511e-01 -7.004408e+00 88 90 87
-9.415336e-01 -1.497759e-01 -7.010721e+00 2 4 2
-9.411226e-01 -1.522189e-01 -7.009852e+00 134 134 132
-9.398287e-01 -1.514716e-01 -7.011300e+00 89 91 88
-9.412994e-01 -1.473045e-01 -7.010935e+00 107 109 105
-9.399864e-01 -1.538891e-01 -7.008233e+00 127 127 124
-9.413173e-01 -1.479785e-01 -7.010912e+00 5 5 0
-9.362340e-01 -1.462572e-01 -7.013258e+00 13 13 13
-9.310431e-01 -1.587042e-01 -7.005729e+00 11 12 11
-9.335428e-01 -1.550402e-01 -7.008951e+00 41 41 39
-9.404585e-01 -1.520468e-01 -7.010314e+00 131 132 130
-9.341981e-01 -1.559269e-01 -7.012434e+00 175 176 174
-9.401113e-01 -1.490857e-01 -7.011822e+00 7 7 5
-9.402747e-01 -1.478193e-01 -7.011282e+00 107 104 99
-9.350284e-01 -1.572126e-01 -7.002828e+00 56 58 57
-9.386973e-01 -1.523272e-01 -7.009622e+00 8 10 7
-9.406117e-01 -1.491066e-01 -7.009533e+00 101 101 101
-9.400610e-01 -1.543413e-01 -7.008191e+00 111 111 109
-9.398165e-01 -1.535314e-01 -7.008585e+00 60 60 58
-9.402233e-01 -1.523191e-01 -7.009301e+00 85 86 81
-9.417763e-01 -1.522101e-01 -7.010010e+00 98 92 74
-9.418396e-01 -1.500256e-01 -7.010819e+00 101 103 100
-9.419105e-01 -1.497026e-01 -7.010893e+00 108 109 110
-9.416165e-01 -1.474716e-01 -7.011158e+00 95 95 89
-9.952871e-01 2.643270e-02 -7.227727e+00 116 118 117
-9.875463e-01 4.134249e-03 -7.195996e+00 22 26 26
-9.910718e-01 1.914430e-03 -7.188920e+00 96 97 94
-9.833258e-01 -7.578843e-04 -7.182158e+00 118 121 114
-1.013657e+00 3.235034e-02 -7.246308e+00 56 58 55
-9.322731e-01 -1.459536e-01 -7.002059e+00 6 5 1
-9.404855e-01 -1.486355e-01 -7.047012e+00 180 182 181
-9.345787e-01 -1.627889e-01 -7.033295e+00 163 171 173
-9.419383e-01 -1.610395e-01 -7.046871e+00 72 76 81
-9.376619e-01 -1.640044e-01 -7.038292e+00 56 61 65
-9.142457e-01 -1.626617e-01 -7.049438e+00 50 51 55
-9.280654e-01 -1.682018e-01 -7.043621e+00 84 87 106
-9.369685e-01 -1.661631e-01 -7.036396e+00 75 86 91
-9.365029e-01 -1.639734e-01 -7.035775e+00 131 135 140
-9.334375e-01 -1.618750e-01 -7.035179e+00 41 46 52
-9.358723e-01 -1.519886e-01 -7.044682e+00 75 75 87
-9.306694e-01 -1.679375e-01 -7.042280e+00 89 92 111
-1.083887e+00 3.431556e-02 -7.358020e+00 7 9 6
-1.079810e+00 3.842398e-02 -7.360110e+00 100 103 98
-1.077524e+00 -3.410189e-02 -7.351631e+00 114 114 116
-1.171204e+00 -3.353793e-01 -7.374790e+00 81 80 78
-1.006537e+00 1.539887e-02 -7.230823e+00 42 44 45
-1.006679e+00 1.591626e-02 -7.231711e+00 42 44 45
-9.375830e-01 -1.468311e-01 -7.011325e+00 1 3 0
-9.324901e-01 -1.558322e-01 -7.008144e+00 10 10 8
-9.327089e-01 -1.550420e-01 -7.008471e+00 10 11 8
-9.363555e-01 -1.562821e-01 -7.004369e+00 2 4 1
-9.369953e-01 -1.518761e-01 -7.010617e+00 28 30 27
-9.408969e-01 -1.525971e-01 -7.042891e+00 79 87 89
-9.348658e-01 -1.562446e-01 -7.002283e+00 4 6 4
-9.339062e-01 -1.550844e-01 -7.009673e+00 32 32 32
-9.357192e-01 -1.563519e-01 -7.004910e+00 3 5 3
-9.371118e-01 -1.515243e-01 -7.011231e+00 124 126 123
-9.466088e-01 -1.578562e-01 -7.039371e+00 47 46 43
-1.007580e+00 2.014504e-02 -7.230734e+00 28 30 29
-9.345378e-01 -1.479131e-01 -7.007715e+00 14 13 11
-9.338627e-01 -1.502161e-01 -7.006321e+00 41 41 39
-9.403652e-01 -1.551333e-01 -7.044881e+00 122 129 135
-9.349094e-01 -1.490676e-01 -7.007169e+00 61 63 60
-9.342606e-01 -1.484084e-01 -7.007256e+00 110 109 104
-9.973608e-01 1.635782e-02 -7.208001e+00 92 92 89
-9.258880e-01 -1.682509e-01 -7.045674e+00 75 79 102
-1.014612e+00 3.060161e-02 -7.247535e+00 6 7 9
-9.184883e-01 -1.686168e-01 -7.049972e+00 73 76 83
-9.383462e-01 -1.659282e-01 -7.038404e+00 50 58 61
-9.383462e-01 -1.659282e-01 -7.038404e+00 50 58 61
-9.201492e-01 -1.688733e-01 -7.048798e+00 73 73 91
-9.368364e-01 -1.662933e-01 -7.035914e+00 105 110 114
-9.208537e-01 -1.683622e-01 -7.047644e+00 69 76 91
-9.204135e-01 -1.683453e-01 -7.049087e+00 75 81 97
-9.282292e-01 -1.700861e-01 -7.045947e+00 181 183 182
-9.334773e-01 -1.599101e-01 -7.035920e+00 116 119 124
-9.390332e-01 -1.508584e-01 -7.042594e+00 178 180 179
-1.014294e+00 -2.060466e-02 -7.244741e+00 79 83 91
-9.920675e-01 5.409804e-03 -7.181302e+00 132 132 126
-9.987618e-01 4.407357e-03 -7.178184e+00 132 123 118
-1.002099e+00 5.338606e-03 -7.179414e+00 63 60 51
-9.836822e-01 9.383033e-03 -7.182731e+00 116 117 109
-9.836822e-01 9.383033e-03 -7.182731e+00 116 117 109
-1.000390e+00 4.423312e-03 -7.171601e+00 122 114 111
-9.879363e-01 8.147204e-03 -7.195925e+00 83 90 83
-1.013734e+00 1.220946e-02 -7.190761e+00 25 24 22
-9.992977e-01 7.884135e-03 -7.189690e+00 115 110 105
-9.912258e-01 3.182285e-03 -7.185149e+00 122 126 113
-9.935893e-01 4.657704e-03 -7.185131e+00 44 43 38
-1.004640e+00 5.868785e-03 -7.178989e+00 128 121 115
-1.004253e+00 5.763965e-03 -7.176706e+00 58 48 42
-1.004253e+00 5.763965e-03 -7.176706e+00 58 48 42
-9.991372e-01 6.281760e-03 -7.172564e+00 61 52 47
-9.815486e-01 8.114457e-03 -7.180058e+00 60 72 70
-9.815581e-01 8.122478e-03 -7.180071e+00 60 72 70
-9.955170e-01 6.013632e-03 -7.189410e+00 38 36 31
-1.012813e+00 7.758661e-03 -7.185043e+00 149 148 146
-1.008850e+00 6.647056e-03 -7.185082e+00 92 90 88
-1.005704e+00 6.280389e-03 -7.182753e+00 105 102 97
-1.006703e+00 6.044231e-03 -7.181360e+00 53 45 42
-9.911695e-01 6.777745e-03 -7.178093e+00 56 55 43
-9.867522e-01 7.627959e-03 -7.178856e+00 121 120 108
-9.469226e-01 -1.532365e-01 -7.064606e+00 71 75 76
-9.352966e-01 -1.636375e-01 -7.034085e+00 133 142 147
-9.348861e-01 -1.581713e-01 -7.037020e+00 117 118 122
-9.343288e-01 -1.616100e-01 -7.032890e+00 59 63 66
-9.460109e-01 -1.446251e-01 -7.030820e+00 33 33 33
-1.104193e+00 6.491247e-02 -7.383810e+00 83 84 79
-1.085317e+00 -2.240314e-03 -7.377690e+00 97 90 84
-1.085317e+00 -2.240314e-03 -7.377690e+00 97 90 84
-9.292022e-01 -1.680261e-01 -7.043586e+00 80 83 98
-1.066633e+00 -8.170465e-03 -7.333560e+00 19 19 17
-1.012954e+00 2.896491e-02 -7.244034e+00 15 16 17
-1.010884e+00 -2.207003e-02 -7.237301e+00 60 61 65
-1.037878e+00 4.608954e-02 -7.205567e+00 146 147 147
-1.032539e+00 4.216642e-02 -7.201643e+00 6 18 41
-1.033500e+00 4.606382e-02 -7.211674e+00 118 118 119
-1.033158e+00 4.515334e-02 -7.210820e+00 118 118 119
-9.995244e-01 6.633373e-03 -7.180150e+00 134 125 120
-1.004501e+00 5.553821e-03 -7.178687e+00 128 121 115
-9.834102e-01 2.417251e-03 -7.178290e+00 70 76 56
-1.021479e+00 3.471513e-02 -7.201915e+00 7 16 43
-9.974806e-01 5.981628e-03 -7.173374e+00 126 113 110
-9.886022e-01 8.560965e-03 -7.176013e+00 53 49 44
-1.008921e+00 2.466282e-02 -7.237394e+00 47 49 47
-1.013521e+00 1.538015e-02 -7.188154e+00 168 167 164
-1.010779e+00 3.687852e-02 -7.226443e+00 109 108 106
-9.836344e-01 -4.087211e-03 -7.180861e+00 34 40 37
-1.001402e+00 9.362883e-03 -7.176675e+00 125 115 111
-9.986781e-01 8.760484e-03 -7.184534e+00 126 122 117
-1.037382e+00 5.295663e-02 -7.218935e+00 130 133 132
-1.001076e+00 4.833498e-03 -7.175248e+00 131 120 116
-1.000777e+00 3.789680e-03 -7.174302e+00 131 120 116
-1.029958e+00 3.428120e-02 -7.195450e+00 4 14 39
-1.041904e+00 5.293497e-02 -7.208367e+00 37 40 44
-9.844085e-01 3.105391e-03 -7.173361e+00 77 74 65
-9.914579e-01 3.934597e-03 -7.171079e+00 91 77 70
-9.930271e-01 4.403676e-03 -7.168290e+00 139 128 125
-9.930401e-01 4.416661e-03 -7.168294e+00 139 128 125
-9.988721e-01 5.553217e-03 -7.167499e+00 140 129 123
-9.995613e-01 8.298167e-03 -7.166518e+00 56 51 46
-9.953586e-01 4.733013e-03 -7.166082e+00 133 123 115
-9.924724e-01 -1.997486e-04 -7.166429e+00 72 57 52
-9.951940e-01 -3.528507e-03 -7.158931e+00 134 122 116
-9.914005e-01 3.632311e-03 -7.165004e+00 60 52 50
-9.365525e-01 -1.640013e-01 -7.036141e+00 93 100 104
-9.176180e-01 -1.627932e-01 -7.044937e+00 53 50 66
-9.344775e-01 -1.540331e-01 -7.066399e+00 69 72 95
-9.323415e-01 -1.621902e-01 -7.036829e+00 80 91 113
-9.389986e-01 -1.650417e-01 -7.040726e+00 63 67 71
-9.368093e-01 -1.663799e-01 -7.035655e+00 88 95 101
-9.355454e-01 -1.602379e-01 -7.035414e+00 127 134 138
-9.390948e-01 -1.652082e-01 -7.039128e+00 141 149 152
-9.235273e-01 -1.619540e-01 -7.061285e+00 58 59 77
-1.010059e+00 2.774033e-02 -7.238247e+00 10 11 13
-9.900522e-01 4.077123e-03 -7.184798e+00 79 85 64
-1.035789e+00 3.697024e-02 -7.193163e+00 19 20 24
-1.117680e+00 4.262625e-02 -7.458182e+00 51 51 51
-1.000661e+00 9.541894e-03 -7.194699e+00 9 10 6
-9.790713e-01 6.080179e-03 -7.181376e+00 54 57 57
-9.830791e-01 1.305663e-02 -7.181386e+00 128 129 125
-9.771850e-01 1.353232e-02 -7.179470e+00 20 20 22
-9.836034e-01 2.359496e-02 -7.185595e+00 28 28 28
-9.790192e-01 6.228250e-03 -7.177246e+00 130 125 122
-1.013245e+00 2.960706e-02 -7.244598e+00 11 12 11
-9.860155e-01 7.780814e-03 -7.197147e+00 97 100 93
-1.036134e+00 4.588818e-02 -7.210869e+00 43 45 44
-1.001486e+00 5.534551e-04 -7.170424e+00 125 115 109
-9.403306e-01 -1.692803e-01 -7.041580e+00 191 191 191
-9.997594e-01 7.987665e-03 -7.175485e+00 100 88 82
-1.030370e+00 5.725003e-02 -7.210419e+00 6 28 58
-1.038198e+00 5.088245e-02 -7.199399e+00 130 129 127
-9.730839e-01 9.683478e-03 -7.173837e+00 45 46 48
-9.904953e-01 1.716599e-02 -7.179138e+00 132 128 125
-9.946330e-01 3.694674e-02 -7.187135e+00 47 42 36
-9.884588e-01 6.416625e-03 -7.176695e+00 65 67 54
-9.884063e-01 5.994490e-03 -7.176327e+00 65 67 54
-9.877809e-01 6.182111e-03 -7.174820e+00 75 73 58
-9.807084e-01 2.405113e-02 -7.184976e+00 107 107 109
-9.906087e-01 2.345620e-02 -7.179278e+00 47 44 41
-1.001360e+00 2.089230e-03 -7.167508e+00 92 86 77
-1.048346e+00 5.486338e-02 -7.202223e+00 140 139 139
-1.041177e+00 5.091743e-02 -7.191743e+00 117 118 117
-9.782876e-01 2.572474e-02 -7.186122e+00 33 34 36
-1.048296e+00 4.609183e-02 -7.187128e+00 119 119 117
-1.048296e+00 4.609183e-02 -7.187128e+00 119 119 117
-9.802814e-01 1.123719e-02 -7.186070e+00 46 52 52
-9.961536e-01 1.108306e-01 -7.226243e+00 43 50 68
-9.995201e-01 7.273049e-03 -7.168812e+00 133 127 122
-1.049234e+00 5.017770e-02 -7.187300e+00 120 118 119
-1.052098e+00 5.766190e-02 -7.190361e+00 8 8 8
-1.053614e+00 6.009394e-02 -7.192104e+00 8 8 8
-1.010591e+00 1.524551e-01 -7.263178e+00 96 98 99
-9.824613e-01 1.445374e-02 -7.179506e+00 109 107 108
-9.972139e-01 5.813933e-03 -7.164813e+00 124 116 113
-9.945879e-01 1.558263e-02 -7.170953e+00 124 116 114
-9.821885e-01 6.817798e-02 -7.191235e+00 76 81 86
-1.049683e+00 2.883569e-02 -7.190860e+00 6 6 6
-9.273362e-01 -1.689342e-01 -7.047374e+00 174 175 177
-9.332453e-01 -1.652508e-01 -7.037928e+00 82 91 120
-9.383619e-01 -1.500382e-01 -7.043251e+00 177 177 177
-9.972548e-01 2.933726e-02 -7.227413e+00 19 21 18
-1.027318e+00 4.226946e-02 -7.212746e+00 1 1 2
-9.941250e-01 -3.036651e-03 -7.156680e+00 120 119 114
-9.888378e-01 1.551534e-02 -7.207169e+00 21 23 22
-1.004856e+00 3.660790e-03 -7.180409e+00 109 100 95
-1.021027e+00 4.597851e-02 -7.192066e+00 18 31 56
-9.749524e-01 2.457815e-02 -7.183525e+00 80 81 83
-9.198242e-01 -1.677450e-01 -7.051157e+00 58 57 73
-9.793858e-01 1.299845e-02 -7.182583e+00 102 103 105
-9.909356e-01 7.040577e-03 -7.168201e+00 120 112 110
-1.035907e+00 4.323234e-02 -7.184718e+00 7 7 7
-9.959518e-01 1.055021e-03 -7.169109e+00 119 109 102
-9.378706e-01 -1.520525e-01 -7.043380e+00 68 70 73
-9.403724e-01 -1.630898e-01 -7.041890e+00 72 75 78
-9.143494e-01 -1.731597e-01 -7.044377e+00 174 174 174
-9.344142e-01 -1.669544e-01 -7.038387e+00 83 91 114
-9.324392e-01 -1.622453e-01 -7.034953e+00 57 57 69
-9.926561e-01 8.062220e-03 -7.168793e+00 60 52 50
-9.898053e-01 2.290138e-03 -7.174040e+00 60 56 45
-1.002946e+00 6.477312e-03 -7.183128e+00 116 109 103
-9.942867e-01 -3.809651e-02 -7.155263e+00 169 169 169
-9.942867e-01 -3.809651e-02 -7.155263e+00 169 169 169
-9.743810e-01 6.114817e-02 -7.181596e+00 107 107 114
-9.841532e-01 9.747085e-02 -7.191826e+00 51 62 84
-9.865588e-01 8.697417e-02 -7.183707e+00 0 9 21
-9.836635e-01 8.867373e-02 -7.181243e+00 2 13 41
-9.802272e-01 9.745995e-02 -7.185757e+00 2 15 34
-9.733840e-01 5.351988e-02 -7.180245e+00 114 115 119
-9.818667e-01 9.262910e-02 -7.181049e+00 60 72 112
-9.818943e-01 9.250148e-02 -7.181018e+00 60 72 112
-9.925471e-01 1.436814e-03 -7.170238e+00 119 114 104
-9.897059e-01 2.838391e-03 -7.164652e+00 120 112 110
-9.503224e-01 2.698118e-02 -7.133708e+00 13 13 11
-9.916553e-01 4.526605e-03 -7.180560e+00 133 133 119
-9.788174e-01 8.749884e-02 -7.175180e+00 63 73 110
-9.480838e-01 3.225431e-02 -7.129672e+00 109 107 108
-1.020582e+00 6.252298e-02 -7.243236e+00 3 1 1
-9.697604e-01 4.892557e-02 -7.177973e+00 18 19 23
-9.546088e-01 3.444709e-02 -7.144428e+00 114 116 113
-9.900914e-01 -1.450798e-03 -7.183513e+00 12 17 11
-9.489309e-01 2.838887e-02 -7.127608e+00 110 108 109
-9.489309e-01 2.838887e-02 -7.127608e+00 110 108 109
-9.727682e-01 4.531059e-02 -7.174826e+00 119 119 127
-9.757835e-01 9.115035e-02 -7.177921e+00 1 10 36
-9.896372e-01 9.865424e-03 -7.197422e+00 86 93 84
-9.228721e-01 -1.629714e-01 -7.036299e+00 168 170 169
-9.825455e-01 1.107743e-02 -7.179780e+00 118 119 114
-9.427443e-01 6.191786e-02 -7.126868e+00 109 107 108
-9.794394e-01 2.678439e-02 -7.190343e+00 29 30 32
-9.478464e-01 6.360687e-02 -7.134182e+00 98 98 98
-9.386548e-01 -1.678614e-01 -7.035595e+00 140 148 150
-9.349916e-01 -1.627476e-01 -7.034783e+00 103 110 114
-9.478861e-01 2.203500e-02 -7.124246e+00 110 110 110
-9.438046e-01 7.213562e-02 -7.126663e+00 58 56 51
-9.841473e-01 1.013080e-01 -7.174468e+00 67 80 118
-9.253817e-01 -1.745808e-01 -7.032516e+00 51 62 74
-9.253817e-01 -1.745808e-01 -7.032516e+00 51 62 74
-9.359983e-01 -1.654588e-01 -7.036114e+00 27 34 38
-9.146293e-01 -1.747319e-01 -7.042796e+00 153 155 152
-9.781509e-01 1.620545e-02 -7.165305e+00 106 106 108
-9.582868e-01 7.085506e-02 -7.144430e+00 84 84 84
-9.410458e-01 -1.715412e-01 -7.029560e+00 72 77 81
-9.393119e-01 -1.667548e-01 -7.029255e+00 70 76 85
-9.823900e-01 9.978770e-03 -7.178853e+00 104 106 103
-9.911685e-01 1.931892e-02 -7.181564e+00 109 106 102
-9.342561e-01 -1.735860e-01 -7.023039e+00 47 50 58
-9.628679e-01 6.111074e-02 -7.140829e+00 95 95 97
-9.429119e-01 3.453363e-02 -7.117968e+00 23 21 22
-9.774131e-01 8.196852e-02 -7.186455e+00 16 20 26
-9.577799e-01 2.404182e-02 -7.135383e+00 105 105 107
-9.388593e-01 -1.684927e-01 -7.034829e+00 98 105 108
-9.748268e-01 9.597362e-02 -7.169219e+00 6 6 10
-9.712789e-01 8.193658e-02 -7.161411e+00 81 86 89
-1.014271e+00 3.672990e-02 -7.250316e+00 52 54 53
-1.014271e+00 3.672990e-02 -7.250316e+00 52 54 53
-9.482942e-01 5.342329e-02 -7.123269e+00 92 89 88
-9.862094e-01 6.942698e-02 -7.165215e+00 69 74 80
-9.592092e-01 8.846099e-02 -7.146361e+00 96 96 98
-9.980937e-01 4.145403e-02 -7.189303e+00 30 28 24
-9.795780e-01 1.537402e-02 -7.184858e+00 95 99 102
-1.002100e+00 6.623015e-03 -7.180475e+00 52 46 43
-9.474767e-01 5.048241e-02 -7.125359e+00 98 96 97
-9.204101e-01 -1.578195e-01 -6.987769e+00 0 255 0
-9.239252e-01 -1.632748e-01 -7.037346e+00 255 255 0
-9.219090e-01 -1.647269e-01 -6.988290e+00 255 0 0
-9.259828e-01 -1.616971e-01 -7.038031e+00 255 255 0
-9.223996e-01 -1.465262e-01 -6.986876e+00 0 255 0
-9.280416e-01 -1.585649e-01 -7.035076e+00 255 255 0
-9.216515e-01 -1.535602e-01 -6.989655e+00 255 0 0
-9.240056e-01 -1.701696e-01 -7.036757e+00 255 255 0
-9.221791e-01 -1.571371e-01 -6.989005e+00 0 255 0
-9.255770e-01 -1.660374e-01 -7.038089e+00 255 255 0
-9.222502e-01 -1.593928e-01 -6.988481e+00 255 0 0
-9.251049e-01 -1.626437e-01 -7.038293e+00 255 255 0
-9.223290e-01 -1.661388e-01 -6.986813e+00 0 255 0
-9.290863e-01 -1.751956e-01 -7.035520e+00 255 255 0
-9.228757e-01 -1.668606e-01 -6.987010e+00 255 0 0
-9.294392e-01 -1.692398e-01 -7.036520e+00 255 255 0
-9.229901e-01 -1.675730e-01 -6.987017e+00 0 255 0
-9.295078e-01 -1.654207e-01 -7.036544e+00 255 255 0
-9.230354e-01 -1.672028e-01 -6.987424e+00 255 0 0
-9.286250e-01 -1.606529e-01 -7.036677e+00 255 255 0
-9.267500e-01 -1.573099e-01 -6.997500e+00 0 255 0
-9.309773e-01 -1.660889e-01 -7.046541e+00 255 255 0
-9.274280e-01 -1.667305e-01 -6.998292e+00 255 0 0
-9.306574e-01 -1.667417e-01 -7.048187e+00 255 255 0
-9.262756e-01 -1.447106e-01 -6.991047e+00 0 255 0
-9.293642e-01 -1.650222e-01 -7.036631e+00 255 255 0
-9.262837e-01 -1.435114e-01 -6.991286e+00 255 0 0
-9.295743e-01 -1.625708e-01 -7.037393e+00 255 255 0
-9.262631e-01 -1.427853e-01 -6.991571e+00 0 255 0
-9.317349e-01 -1.597903e-01 -7.038271e+00 255 255 0
-9.264751e-01 -1.430133e-01 -6.991660e+00 255 0 0
-9.324445e-01 -1.561768e-01 -7.039525e+00 255 255 0
-9.231103e-01 -1.670990e-01 -6.987138e+00 0 255 0
-9.288528e-01 -1.576814e-01 -7.035906e+00 255 255 0
-9.319875e-01 -1.453596e-01 -7.001491e+00 255 0 0
-9.295470e-01 -1.693109e-01 -7.045313e+00 255 255 0
-9.292960e-01 -1.519889e-01 -6.997197e+00 0 255 0
-9.281414e-01 -1.678387e-01 -7.044604e+00 255 255 0
-9.270875e-01 -1.400539e-01 -6.991202e+00 255 0 0
-9.287077e-01 -1.609111e-01 -7.036615e+00 255 255 0
-9.276879e-01 -1.882671e-01 -7.091318e+00 0 255 0
-9.237987e-01 -2.124010e-01 -7.134935e+00 255 255 0
-9.266694e-01 -1.230405e-01 -6.996792e+00 255 0 0
-9.327361e-01 -1.548294e-01 -7.034906e+00 255 255 0
-9.267082e-01 -1.533295e-01 -6.993462e+00 0 255 0
-9.305779e-01 -1.593866e-01 -7.042942e+00 255 255 0
-9.241430e-01 -1.718000e-01 -6.990536e+00 255 0 0
-9.281391e-01 -1.618642e-01 -7.039376e+00 255 255 0
-9.240790e-01 -1.742699e-01 -6.989839e+00 0 255 0
-9.293984e-01 -1.655929e-01 -7.038792e+00 255 255 0
-9.281152e-01 -1.703305e-01 -6.999909e+00 255 0 0
-9.303869e-01 -1.644717e-01 -7.049513e+00 255 255 0
-9.278417e-01 -1.718168e-01 -7.001035e+00 0 255 0
-9.308372e-01 -1.653658e-01 -7.050527e+00 255 255 0
-9.247248e-01 -1.773968e-01 -6.989915e+00 255 0 0
-9.299515e-01 -1.651268e-01 -7.038104e+00 255 255 0
-9.286437e-01 -1.736042e-01 -7.002328e+00 0 255 0
-9.288381e-01 -1.639479e-01 -7.051386e+00 255 255 0
-9.273028e-01 -1.793311e-01 -6.994592e+00 255 0 0
-9.314680e-01 -1.669163e-01 -7.042846e+00 255 255 0
-9.315929e-01 -1.593963e-01 -7.007299e+00 0 255 0
-9.277771e-01 -1.650839e-01 -7.056827e+00 255 255 0
-9.317241e-01 -1.456978e-01 -7.001456e+00 255 0 0
-9.262967e-01 -1.721280e-01 -7.043551e+00 255 255 0
-9.293988e-01 -1.768585e-01 -7.002633e+00 0 255 0
-9.294706e-01 -1.624446e-01 -7.050510e+00 255 255 0
-9.293786e-01 -1.787895e-01 -7.003133e+00 255 0 0
-9.300609e-01 -1.626765e-01 -7.050461e+00 255 255 0
-9.290003e-01 -1.824837e-01 -6.996953e+00 0 255 0
-9.321782e-01 -1.641939e-01 -7.043379e+00 255 255 0
-9.320843e-01 -1.860058e-01 -7.001794e+00 255 0 0
-9.334129e-01 -1.638799e-01 -7.046613e+00 255 255 0
-9.314715e-01 -1.829238e-01 -7.004002e+00 0 255 0
-9.299994e-01 -1.655788e-01 -7.050874e+00 255 255 0
-9.324634e-01 -1.875047e-01 -7.004072e+00 255 0 0
-9.303746e-01 -1.666275e-01 -7.049457e+00 255 255 0
-9.334597e-01 -1.886919e-01 -7.005677e+00 0 255 0
-9.317288e-01 -1.624789e-01 -7.048220e+00 255 255 0
-9.357639e-01 -1.936814e-01 -7.007738e+00 255 0 0
-9.322919e-01 -1.647575e-01 -7.048375e+00 255 255 0
-9.327671e-01 -1.857915e-01 -7.006079e+00 0 255 0
-9.321677e-01 -1.599526e-01 -7.048881e+00 255 255 0
-9.385470e-01 -2.015447e-01 -6.992891e+00 255 0 0
-9.245594e-01 -1.749802e-01 -7.032875e+00 255 255 0
-9.409749e-01 -2.033657e-01 -6.994380e+00 0 255 0
-9.262515e-01 -1.741272e-01 -7.032173e+00 255 255 0
-9.504092e-01 -2.018961e-01 -7.002933e+00 255 0 0
-9.316757e-01 -1.680410e-01 -7.034602e+00 255 255 0
