ply
format ascii 1.0
element face 0
property list uchar int vertex_indices
element vertex 601
property float x
property float y
property float z
property uchar diffuse_red
property uchar diffuse_green
property uchar diffuse_blue
end_header
-9.289583e-01 -1.552313e-01 -7.044268e+00 30 31 52
-9.281027e-01 -1.573396e-01 -7.042474e+00 23 21 21
-9.244531e-01 -1.573700e-01 -7.045593e+00 26 27 30
-9.253557e-01 -1.613083e-01 -7.040020e+00 93 90 102
-9.239566e-01 -1.613684e-01 -7.041478e+00 95 93 105
-9.367484e-01 -1.512943e-01 -7.046485e+00 64 64 74
-9.238767e-01 -1.613367e-01 -7.041255e+00 95 93 105
-9.287110e-01 -1.610280e-01 -7.037523e+00 96 92 107
-9.296474e-01 -1.608613e-01 -7.036761e+00 97 94 113
-9.197252e-01 -1.618257e-01 -7.045390e+00 90 89 105
-9.371074e-01 -1.539318e-01 -7.044948e+00 55 58 65
-9.372940e-01 -1.653136e-01 -7.040383e+00 50 56 63
-9.152074e-01 -1.688208e-01 -7.051027e+00 103 105 104
-9.349367e-01 -1.605731e-01 -7.035507e+00 39 48 51
-9.354770e-01 -1.673875e-01 -7.039646e+00 76 83 93
-9.297443e-01 -1.608249e-01 -7.037359e+00 97 94 113
-9.196919e-01 -1.617737e-01 -7.044322e+00 90 89 105
-9.390080e-01 -1.523878e-01 -7.043055e+00 66 68 73
-9.321001e-01 -1.628382e-01 -7.035791e+00 86 97 119
-9.269446e-01 -1.523146e-01 -7.051301e+00 76 73 87
-1.064092e+00 -4.637185e-02 -7.323407e+00 118 116 117
-9.183877e-01 -1.686598e-01 -7.050414e+00 88 94 100
-9.336754e-01 -1.674885e-01 -7.040095e+00 70 76 97
-9.362603e-01 -1.641343e-01 -7.035355e+00 88 93 97
-9.333311e-01 -1.728487e-01 -7.034222e+00 176 176 176
-9.152263e-01 -1.734330e-01 -7.050361e+00 171 173 170
-9.223575e-01 -1.532628e-01 -7.056686e+00 66 65 81
-1.063457e+00 -4.730871e-02 -7.334873e+00 124 122 123
-9.364585e-01 -1.679214e-01 -7.039001e+00 177 179 178
-9.261136e-01 -1.678606e-01 -7.044862e+00 75 86 108
-9.369910e-01 -1.668164e-01 -7.038667e+00 46 53 59
-9.365771e-01 -1.606926e-01 -7.036480e+00 151 160 163
-9.285153e-01 -1.522548e-01 -7.049745e+00 78 76 90
-9.260558e-01 -1.679929e-01 -7.045316e+00 73 84 106
-9.205331e-01 -1.684507e-01 -7.048980e+00 77 85 107
-9.368314e-01 -1.512087e-01 -7.045457e+00 65 65 75
-1.070424e+00 -3.978848e-02 -7.329573e+00 10 12 13
-9.369154e-01 -1.656307e-01 -7.036819e+00 90 96 102
-9.229543e-01 -1.602630e-01 -7.043681e+00 32 30 38
-9.285773e-01 -1.582215e-01 -7.041288e+00 83 82 104
-9.376906e-01 -1.576129e-01 -7.037748e+00 99 104 108
-9.403687e-01 -1.535097e-01 -7.041801e+00 86 90 93
-9.356588e-01 -1.633234e-01 -7.035413e+00 95 102 106
-9.351956e-01 -1.631495e-01 -7.033946e+00 95 102 106
-9.345657e-01 -1.616775e-01 -7.034352e+00 80 89 92
-9.258715e-01 -1.582345e-01 -7.043160e+00 65 63 66
-9.265576e-01 -1.581831e-01 -7.042562e+00 64 62 63
-9.253858e-01 -1.573582e-01 -7.044583e+00 65 65 67
-9.253953e-01 -1.573250e-01 -7.044496e+00 65 65 67
-9.272180e-01 -1.573310e-01 -7.043340e+00 66 64 65
-9.282951e-01 -1.564064e-01 -7.043447e+00 63 65 69
-9.276251e-01 -1.564026e-01 -7.043959e+00 68 71 74
-9.276216e-01 -1.564035e-01 -7.043962e+00 68 71 74
-9.339741e-01 -1.422901e-01 -7.048278e+00 183 183 183
-9.466342e-01 -1.519084e-01 -7.052425e+00 121 123 122
-9.350961e-01 -1.526432e-01 -7.043979e+00 64 61 80
-9.356062e-01 -1.622715e-01 -7.034462e+00 47 54 60
-9.363146e-01 -1.609210e-01 -7.035593e+00 148 156 159
-9.356060e-01 -1.653387e-01 -7.033226e+00 112 120 125
-9.360423e-01 -1.653000e-01 -7.034715e+00 112 120 125
-9.346250e-01 -1.617263e-01 -7.034505e+00 91 100 103
-1.059988e+00 -1.771358e-01 -7.310505e+00 166 168 164
-1.079472e+00 -2.309276e-02 -7.357126e+00 49 50 50
-1.061986e+00 -2.861492e-02 -7.321239e+00 95 94 90
-1.061986e+00 -2.861492e-02 -7.321239e+00 95 94 90
-9.259614e-01 -1.552233e-01 -7.046769e+00 33 35 51
-9.356898e-01 -1.647278e-01 -7.037302e+00 48 54 60
-9.363944e-01 -1.604888e-01 -7.035774e+00 152 160 163
-9.292859e-01 -1.540171e-01 -7.045930e+00 92 88 105
-9.253500e-01 -1.612818e-01 -7.040018e+00 98 91 109
-9.293903e-01 -1.565722e-01 -7.042027e+00 80 82 108
-9.286060e-01 -1.610092e-01 -7.037103e+00 98 94 111
-9.355443e-01 -1.628366e-01 -7.036195e+00 154 159 163
-9.251099e-01 -1.564380e-01 -7.045805e+00 62 66 69
-9.394959e-01 -1.533288e-01 -7.040590e+00 138 144 148
-1.016497e+00 -1.595743e-01 -7.211366e+00 55 57 54
-9.353480e-01 -1.590234e-01 -7.034777e+00 43 51 54
-9.247525e-01 -1.682694e-01 -7.046906e+00 81 89 110
-9.197562e-01 -1.620699e-01 -7.046393e+00 93 90 109
-9.336300e-01 -1.674140e-01 -7.040035e+00 72 78 100
-9.221250e-01 -1.540347e-01 -7.051459e+00 68 65 82
-9.350606e-01 -1.630049e-01 -7.034339e+00 107 114 120
-9.350606e-01 -1.630049e-01 -7.034339e+00 107 114 120
-9.372243e-01 -1.605863e-01 -7.039145e+00 154 159 163
-9.058747e-01 -1.674413e-01 -7.045617e+00 132 132 132
-9.388853e-01 -1.519175e-01 -7.043152e+00 66 73 76
-9.366030e-01 -1.607568e-01 -7.036874e+00 152 160 163
-9.368362e-01 -1.648790e-01 -7.036938e+00 106 113 119
-9.368362e-01 -1.648790e-01 -7.036938e+00 106 113 119
-9.377611e-01 -1.662050e-01 -7.038067e+00 131 135 138
-9.377611e-01 -1.662050e-01 -7.038067e+00 131 135 138
-9.365859e-01 -1.594280e-01 -7.038403e+00 94 101 107
-9.272055e-01 -1.575032e-01 -7.043544e+00 69 69 70
-9.404502e-01 -1.530786e-01 -7.043059e+00 135 139 142
-1.139977e+00 -2.204166e-01 -7.372417e+00 52 53 56
-9.257392e-01 -1.563618e-01 -7.045442e+00 66 67 72
-9.377832e-01 -1.548484e-01 -7.039165e+00 84 87 92
-9.373520e-01 -1.651763e-01 -7.040485e+00 48 55 61
-9.048912e-01 -1.688270e-01 -7.048397e+00 132 132 132
-9.178792e-01 -1.698788e-01 -7.056661e+00 163 164 166
-9.380902e-01 -1.647232e-01 -7.038028e+00 67 78 82
-9.436059e-01 -1.530746e-01 -7.049025e+00 179 183 184
-9.273076e-01 -1.537016e-01 -7.046666e+00 99 95 110
-9.410645e-01 -1.532806e-01 -7.042238e+00 79 85 88
-9.367073e-01 -1.503795e-01 -7.042140e+00 70 68 82
-9.385633e-01 -1.505143e-01 -7.040303e+00 85 86 89
-9.271745e-01 -1.575290e-01 -7.043863e+00 66 66 68
-9.247970e-01 -1.554044e-01 -7.043772e+00 30 28 39
-9.289140e-01 -1.563649e-01 -7.043828e+00 22 22 32
-9.408393e-01 -1.641129e-01 -7.016216e+00 32 34 33
-9.408393e-01 -1.641129e-01 -7.016216e+00 32 34 33
-9.357847e-01 -1.648018e-01 -7.043204e+00 38 46 49
-9.418166e-01 -1.650800e-01 -7.017688e+00 15 17 15
-9.258205e-01 -1.566106e-01 -7.043915e+00 21 22 24
-9.420198e-01 -1.660698e-01 -7.017899e+00 5 7 4
-9.409528e-01 -1.587400e-01 -7.049673e+00 99 108 113
-9.367870e-01 -1.521533e-01 -7.010790e+00 108 110 107
-9.420648e-01 -1.661515e-01 -7.017418e+00 30 32 29
-9.347270e-01 -1.482778e-01 -7.006561e+00 3 5 2
-9.374754e-01 -1.670280e-01 -7.038631e+00 72 76 79
-9.345479e-01 -1.482477e-01 -7.006541e+00 49 51 48
-9.345479e-01 -1.482477e-01 -7.006541e+00 49 51 48
-9.187926e-01 -1.693878e-01 -7.047185e+00 165 167 166
-9.735802e-01 -2.479775e-01 -7.122006e+00 174 173 174
-1.041853e+00 -2.970299e-01 -7.262870e+00 35 34 32
-1.041853e+00 -2.970299e-01 -7.262870e+00 35 34 32
-9.403285e-01 -1.707997e-01 -7.041316e+00 179 179 177
-9.358403e-01 -1.498288e-01 -7.008913e+00 62 64 61
-9.389120e-01 -1.595168e-01 -7.015338e+00 71 71 68
-9.363329e-01 -1.509512e-01 -7.009791e+00 130 131 129
-9.374872e-01 -1.528125e-01 -7.011323e+00 28 29 26
-9.272373e-01 -1.590857e-01 -7.037629e+00 33 25 25
-1.008297e+00 -2.772638e-02 -7.229522e+00 73 76 75
-9.328905e-01 -1.671415e-01 -7.040542e+00 63 72 97
-9.314613e-01 -1.678481e-01 -7.041407e+00 79 83 102
-9.238987e-01 -1.614875e-01 -7.040507e+00 97 93 107
-9.345217e-01 -1.551251e-01 -7.010060e+00 5 5 3
-9.351053e-01 -1.565109e-01 -7.004257e+00 66 66 64
-9.358496e-01 -1.560414e-01 -7.004536e+00 8 10 7
-9.387391e-01 -1.659315e-01 -7.041035e+00 66 76 81
-9.393133e-01 -1.520514e-01 -7.009675e+00 7 9 6
-9.351520e-01 -1.563943e-01 -7.004890e+00 5 7 4
-9.368439e-01 -1.558564e-01 -7.005226e+00 81 83 80
-9.350093e-01 -1.565810e-01 -7.004678e+00 61 63 60
-9.337758e-01 -1.537114e-01 -7.009790e+00 57 64 77
-9.351925e-01 -1.567160e-01 -7.003072e+00 67 69 66
-9.367796e-01 -1.560952e-01 -7.004180e+00 8 10 7
-9.362643e-01 -1.563926e-01 -7.004487e+00 87 90 87
-9.367095e-01 -1.560176e-01 -7.004318e+00 79 81 77
-9.328749e-01 -1.546546e-01 -7.008824e+00 12 12 10
-9.333156e-01 -1.546025e-01 -7.008427e+00 41 41 39
-9.345508e-01 -1.543663e-01 -7.008035e+00 76 33 35
-9.358105e-01 -1.562975e-01 -7.005164e+00 52 53 50
-9.341486e-01 -1.559772e-01 -7.008245e+00 39 41 38
-9.349008e-01 -1.543490e-01 -7.008755e+00 72 42 46
-9.368018e-01 -1.501169e-01 -7.011402e+00 37 37 35
-9.357263e-01 -1.560796e-01 -7.005313e+00 0 1 0
-9.347051e-01 -1.557408e-01 -7.006504e+00 5 7 4
-9.370219e-01 -1.557025e-01 -7.005631e+00 83 85 83
-9.347592e-01 -1.545690e-01 -7.007792e+00 63 64 59
-9.357976e-01 -1.540486e-01 -7.010779e+00 52 52 52
-9.389897e-01 -1.532906e-01 -7.008432e+00 198 200 195
-9.353871e-01 -1.495903e-01 -7.012407e+00 110 109 106
-9.353871e-01 -1.495903e-01 -7.012407e+00 110 109 106
-9.247212e-01 -1.682770e-01 -7.045061e+00 76 84 103
-9.112942e-01 -1.482805e-01 -7.048991e+00 178 178 178
-9.479922e-01 -1.490883e-01 -7.024443e+00 81 83 80
-9.467472e-01 -1.529809e-01 -7.023465e+00 4 6 2
-9.243211e-01 -1.613085e-01 -7.041441e+00 96 91 104
-9.429536e-01 -1.494786e-01 -7.025466e+00 15 14 12
-9.449966e-01 -1.502795e-01 -7.024967e+00 136 138 135
-9.428128e-01 -1.491201e-01 -7.025446e+00 80 79 77
-9.417760e-01 -1.519755e-01 -7.024142e+00 84 84 76
-9.503741e-01 -1.506431e-01 -7.024240e+00 46 48 49
-9.495478e-01 -1.480655e-01 -7.023760e+00 42 44 41
-9.531157e-01 -1.483204e-01 -7.023762e+00 102 104 99
-9.257483e-01 -1.560195e-01 -7.044931e+00 60 59 65
-9.341535e-01 -1.614649e-01 -7.037707e+00 42 47 53
-9.351701e-01 -1.531819e-01 -7.042146e+00 66 65 81
-9.400731e-01 -1.625870e-01 -7.040695e+00 67 72 75
-9.335126e-01 -1.600068e-01 -7.035675e+00 90 93 98
-9.360835e-01 -1.582292e-01 -7.036479e+00 45 53 56
-9.360403e-01 -1.581635e-01 -7.036779e+00 45 53 56
-9.353597e-01 -1.646672e-01 -7.035457e+00 38 47 54
-9.363332e-01 -1.619408e-01 -7.037014e+00 47 54 60
-9.361928e-01 -1.616622e-01 -7.034428e+00 221 226 230
-9.362125e-01 -1.616510e-01 -7.034507e+00 221 226 230
-9.357955e-01 -1.651192e-01 -7.034216e+00 148 155 161
-9.352695e-01 -1.639286e-01 -7.033939e+00 163 170 177
-9.352740e-01 -1.638811e-01 -7.034077e+00 163 170 177
-9.316189e-01 -1.676943e-01 -7.042456e+00 72 78 103
-9.384469e-01 -1.654821e-01 -7.036637e+00 188 191 194
-9.379273e-01 -1.656485e-01 -7.033914e+00 102 106 109
-9.342587e-01 -1.628161e-01 -7.034216e+00 46 50 56
-1.084996e+00 4.128804e-02 -7.324773e+00 138 136 128
-1.072385e+00 3.893658e-02 -7.343042e+00 75 77 74
-9.392552e-01 -1.507096e-01 -7.011144e+00 83 85 82
-9.395809e-01 -1.550144e-01 -7.008452e+00 104 109 105
-9.408332e-01 -1.477243e-01 -7.010817e+00 3 4 0
-9.377240e-01 -1.548202e-01 -7.008422e+00 86 88 85
-9.363280e-01 -1.566577e-01 -7.004452e+00 88 90 87
-9.413445e-01 -1.496322e-01 -7.010540e+00 2 4 2
-9.409736e-01 -1.520638e-01 -7.009724e+00 134 134 132
-9.396891e-01 -1.513220e-01 -7.011152e+00 89 91 88
-9.410795e-01 -1.471836e-01 -7.010707e+00 107 109 105
-9.398826e-01 -1.537419e-01 -7.008167e+00 127 127 124
-9.411054e-01 -1.478501e-01 -7.010695e+00 5 5 0
-9.361085e-01 -1.461556e-01 -7.013037e+00 13 13 13
-9.310401e-01 -1.586364e-01 -7.005802e+00 11 12 11
-9.335045e-01 -1.549079e-01 -7.008924e+00 41 41 39
-9.403206e-01 -1.518961e-01 -7.010189e+00 131 132 130
-9.341570e-01 -1.557900e-01 -7.012382e+00 175 176 174
-9.399401e-01 -1.489503e-01 -7.011626e+00 7 7 5
-9.400793e-01 -1.476936e-01 -7.011062e+00 107 104 99
-9.350325e-01 -1.571452e-01 -7.002899e+00 56 58 57
-9.385876e-01 -1.521796e-01 -7.009520e+00 8 10 7
-9.404280e-01 -1.489676e-01 -7.009358e+00 101 101 101
-9.399658e-01 -1.541973e-01 -7.008136e+00 111 111 109
-9.397026e-01 -1.533781e-01 -7.008500e+00 60 60 58
-9.400937e-01 -1.521687e-01 -7.009194e+00 85 86 81
-9.416178e-01 -1.520548e-01 -7.009879e+00 98 92 74
-9.416518e-01 -1.498812e-01 -7.010642e+00 101 103 100
-9.417079e-01 -1.495571e-01 -7.010697e+00 108 109 110
-9.413925e-01 -1.473491e-01 -7.010927e+00 95 95 89
-9.952212e-01 2.609635e-02 -7.227355e+00 116 118 117
-9.887326e-01 7.711782e-03 -7.199855e+00 22 26 26
-9.911626e-01 2.053818e-03 -7.189098e+00 96 97 94
-9.835628e-01 -1.247207e-04 -7.182868e+00 118 121 114
-1.013657e+00 3.221198e-02 -7.246173e+00 56 58 55
-9.322904e-01 -1.459274e-01 -7.002143e+00 6 5 1
-9.405084e-01 -1.486494e-01 -7.047070e+00 180 182 181
-9.346199e-01 -1.627890e-01 -7.033449e+00 163 171 173
-9.419997e-01 -1.610386e-01 -7.047064e+00 72 76 81
-9.377196e-01 -1.640028e-01 -7.038496e+00 56 61 65
-9.142655e-01 -1.627368e-01 -7.049241e+00 50 51 55
-9.280712e-01 -1.682261e-01 -7.043757e+00 84 87 106
-9.370188e-01 -1.661761e-01 -7.036570e+00 75 86 91
-9.365561e-01 -1.639706e-01 -7.035969e+00 131 135 140
-9.334756e-01 -1.618658e-01 -7.035352e+00 41 46 52
-9.359152e-01 -1.519561e-01 -7.044850e+00 75 75 87
-9.307001e-01 -1.679093e-01 -7.042731e+00 89 92 111
-1.083913e+00 3.429789e-02 -7.358108e+00 7 9 6
-1.080116e+00 3.876533e-02 -7.360822e+00 100 103 98
-1.077495e+00 -3.415530e-02 -7.351678e+00 114 114 116
-1.171098e+00 -3.349808e-01 -7.375139e+00 81 80 78
-1.006544e+00 1.533245e-02 -7.230790e+00 42 44 45
-1.006823e+00 1.620813e-02 -7.232128e+00 42 44 45
-9.374252e-01 -1.467152e-01 -7.011097e+00 1 3 0
-9.324595e-01 -1.556913e-01 -7.008117e+00 10 10 8
-9.326653e-01 -1.548827e-01 -7.008409e+00 10 11 8
-9.363272e-01 -1.561749e-01 -7.004398e+00 2 4 1
-9.368834e-01 -1.517164e-01 -7.010473e+00 28 30 27
-9.409227e-01 -1.525660e-01 -7.042999e+00 79 87 89
-9.348537e-01 -1.561522e-01 -7.002334e+00 4 6 4
-9.338496e-01 -1.549214e-01 -7.009594e+00 32 32 32
-9.356898e-01 -1.562396e-01 -7.004932e+00 3 5 3
-9.369952e-01 -1.513661e-01 -7.011073e+00 124 126 123
-9.466203e-01 -1.578222e-01 -7.039429e+00 47 46 43
-1.007323e+00 1.939438e-02 -7.229889e+00 28 30 29
-9.344879e-01 -1.478263e-01 -7.007635e+00 14 13 11
-9.338543e-01 -1.501141e-01 -7.006334e+00 41 41 39
-9.403994e-01 -1.551017e-01 -7.045034e+00 122 129 135
-9.348579e-01 -1.489580e-01 -7.007122e+00 61 63 60
-9.342243e-01 -1.483142e-01 -7.007203e+00 110 109 104
-9.973156e-01 1.611523e-02 -7.207796e+00 92 92 89
-9.258795e-01 -1.682721e-01 -7.045816e+00 75 79 102
-1.014459e+00 3.032009e-02 -7.247380e+00 6 7 9
-9.183627e-01 -1.685613e-01 -7.050595e+00 73 76 83
-9.383997e-01 -1.659431e-01 -7.038579e+00 50 58 61
-9.383997e-01 -1.659431e-01 -7.038579e+00 50 58 61
-9.200753e-01 -1.688499e-01 -7.049226e+00 73 73 91
-9.368944e-01 -1.663000e-01 -7.036110e+00 105 110 114
-9.208499e-01 -1.683927e-01 -7.047706e+00 69 76 91
-9.204135e-01 -1.683791e-01 -7.049123e+00 75 81 97
-9.281974e-01 -1.699781e-01 -7.046716e+00 181 183 182
-9.335374e-01 -1.598028e-01 -7.036246e+00 116 119 124
-9.390855e-01 -1.508349e-01 -7.042705e+00 178 180 179
-1.014230e+00 -2.078037e-02 -7.244558e+00 79 83 91
-9.918148e-01 4.628550e-03 -7.180573e+00 132 132 126
-9.987355e-01 4.119116e-03 -7.177928e+00 132 123 118
-1.001819e+00 4.537047e-03 -7.178657e+00 63 60 51
-9.834170e-01 8.463873e-03 -7.181891e+00 116 117 109
-9.834170e-01 8.463873e-03 -7.181891e+00 116 117 109
-1.000401e+00 4.359935e-03 -7.171566e+00 122 114 111
-9.879518e-01 8.100128e-03 -7.195929e+00 83 90 83
-1.013686e+00 1.197335e-02 -7.190573e+00 25 24 22
-9.993239e-01 7.841436e-03 -7.189693e+00 115 110 105
-9.912874e-01 3.308716e-03 -7.185313e+00 122 126 113
-9.935063e-01 4.392772e-03 -7.184901e+00 44 43 38
-1.004352e+00 4.967709e-03 -7.178181e+00 128 121 115
-1.004084e+00 5.181551e-03 -7.176199e+00 58 48 42
-1.004084e+00 5.181551e-03 -7.176199e+00 58 48 42
-9.987749e-01 5.251539e-03 -7.171607e+00 61 52 47
-9.815405e-01 7.988321e-03 -7.179978e+00 60 72 70
-9.815546e-01 8.016184e-03 -7.180007e+00 60 72 70
-9.954312e-01 5.756187e-03 -7.189211e+00 38 36 31
-1.012863e+00 7.747415e-03 -7.185071e+00 149 148 146
-1.008911e+00 6.665618e-03 -7.185131e+00 92 90 88
-1.005362e+00 5.422685e-03 -7.181944e+00 105 102 97
-1.006519e+00 5.434631e-03 -7.180818e+00 53 45 42
-9.909067e-01 6.019493e-03 -7.177379e+00 56 55 43
-9.865822e-01 7.005834e-03 -7.178277e+00 121 120 108
-9.469354e-01 -1.532966e-01 -7.064629e+00 71 75 76
-9.353785e-01 -1.635606e-01 -7.034414e+00 133 142 147
-9.349455e-01 -1.581003e-01 -7.037264e+00 117 118 122
-9.343924e-01 -1.615396e-01 -7.033151e+00 59 63 66
-9.461900e-01 -1.443999e-01 -7.031071e+00 33 33 33
-1.104206e+00 6.484951e-02 -7.383838e+00 83 84 79
-1.085204e+00 -2.442975e-03 -7.377448e+00 97 90 84
-1.085204e+00 -2.442975e-03 -7.377448e+00 97 90 84
-9.292020e-01 -1.680811e-01 -7.043788e+00 80 83 98
-1.066779e+00 -8.266255e-03 -7.333606e+00 19 19 17
-1.012889e+00 2.883026e-02 -7.243943e+00 15 16 17
-1.010745e+00 -2.247297e-02 -7.236840e+00 60 61 65
-1.037919e+00 4.605270e-02 -7.205580e+00 146 147 147
-1.032509e+00 4.200414e-02 -7.201521e+00 6 18 41
-1.033410e+00 4.576020e-02 -7.211428e+00 118 118 119
-1.033114e+00 4.495250e-02 -7.210658e+00 118 118 119
-9.995066e-01 6.447122e-03 -7.179996e+00 134 125 120
-1.004256e+00 4.757809e-03 -7.177977e+00 128 121 115
-9.834753e-01 2.521672e-03 -7.178445e+00 70 76 56
-1.021357e+00 3.430603e-02 -7.201572e+00 7 16 43
-9.972238e-01 5.205559e-03 -7.172660e+00 126 113 110
-9.886093e-01 8.499950e-03 -7.176001e+00 53 49 44
-1.008986e+00 2.471227e-02 -7.237525e+00 47 49 47
-1.013559e+00 1.535494e-02 -7.188176e+00 168 167 164
-1.010925e+00 3.721296e-02 -7.226829e+00 109 108 106
-9.841506e-01 -3.111185e-03 -7.181979e+00 34 40 37
-1.000920e+00 8.095483e-03 -7.175528e+00 125 115 111
-9.983745e-01 7.854947e-03 -7.183692e+00 126 122 117
-1.037331e+00 5.275818e-02 -7.218779e+00 130 133 132
-1.001016e+00 4.548388e-03 -7.175017e+00 131 120 116
-1.000732e+00 3.552532e-03 -7.174115e+00 131 120 116
-1.029957e+00 3.417011e-02 -7.195362e+00 4 14 39
-1.041819e+00 5.266091e-02 -7.208146e+00 37 40 44
-9.844323e-01 3.093227e-03 -7.173404e+00 77 74 65
-9.914580e-01 3.896664e-03 -7.171065e+00 91 77 70
-9.929578e-01 4.153649e-03 -7.168069e+00 139 128 125
-9.929692e-01 4.176841e-03 -7.168081e+00 139 128 125
-9.987683e-01 5.135465e-03 -7.167157e+00 140 129 123
-9.995635e-01 8.200803e-03 -7.166450e+00 56 51 46
-9.954238e-01 4.807631e-03 -7.166166e+00 133 123 115
-9.927577e-01 1.398868e-04 -7.166796e+00 72 57 52
-9.954862e-01 -2.781663e-03 -7.159589e+00 134 122 116
-9.916261e-01 4.223261e-03 -7.165516e+00 60 52 50
-9.366417e-01 -1.639638e-01 -7.036364e+00 93 100 104
-9.175949e-01 -1.629952e-01 -7.044853e+00 53 50 66
-9.344351e-01 -1.554420e-01 -7.063962e+00 69 72 95
-9.323759e-01 -1.621819e-01 -7.036982e+00 80 91 113
-9.390388e-01 -1.652939e-01 -7.040506e+00 63 67 71
-9.369232e-01 -1.663148e-01 -7.035958e+00 88 95 101
-9.356295e-01 -1.601455e-01 -7.035624e+00 127 134 138
-9.392447e-01 -1.651302e-01 -7.039474e+00 141 149 152
-9.242981e-01 -1.642560e-01 -7.056031e+00 58 59 77
-1.010057e+00 2.767647e-02 -7.238230e+00 10 11 13
-9.901210e-01 4.113564e-03 -7.184888e+00 79 85 64
-1.035853e+00 3.693434e-02 -7.193211e+00 19 20 24
-1.117800e+00 4.251338e-02 -7.458229e+00 51 51 51
-1.000700e+00 9.519502e-03 -7.194724e+00 9 10 6
-9.790876e-01 6.112093e-03 -7.181496e+00 54 57 57
-9.830874e-01 1.301287e-02 -7.181390e+00 128 129 125
-9.772227e-01 1.365364e-02 -7.179619e+00 20 20 22
-9.836347e-01 2.367698e-02 -7.185704e+00 28 28 28
-9.790908e-01 6.314632e-03 -7.177428e+00 130 125 122
-1.013189e+00 2.955730e-02 -7.244599e+00 11 12 11
-9.860134e-01 7.755835e-03 -7.197146e+00 97 100 93
-1.036148e+00 4.583015e-02 -7.210849e+00 43 45 44
-1.001521e+00 5.123158e-04 -7.170429e+00 125 115 109
-9.405074e-01 -1.692478e-01 -7.041947e+00 191 191 191
-9.997913e-01 7.983197e-03 -7.175507e+00 100 88 82
-1.030385e+00 5.724072e-02 -7.210420e+00 6 28 58
-1.038219e+00 5.086870e-02 -7.199380e+00 130 129 127
-9.730354e-01 9.559819e-03 -7.173763e+00 45 46 48
-9.905043e-01 1.713831e-02 -7.179142e+00 132 128 125
-9.946360e-01 3.693732e-02 -7.187151e+00 47 42 36
-9.883193e-01 6.043305e-03 -7.176346e+00 65 67 54
-9.884138e-01 5.930181e-03 -7.176310e+00 65 67 54
-9.877996e-01 6.138259e-03 -7.174801e+00 75 73 58
-9.806940e-01 2.406550e-02 -7.185024e+00 107 107 109
-9.906027e-01 2.344818e-02 -7.179311e+00 47 44 41
-1.001374e+00 2.033517e-03 -7.167466e+00 92 86 77
-1.048362e+00 5.480930e-02 -7.202181e+00 140 139 139
-1.041200e+00 5.092522e-02 -7.191717e+00 117 118 117
-9.782822e-01 2.569814e-02 -7.186149e+00 33 34 36
-1.048319e+00 4.607243e-02 -7.187066e+00 119 119 117
-1.048319e+00 4.607243e-02 -7.187066e+00 119 119 117
-9.802096e-01 1.104483e-02 -7.185962e+00 46 52 52
-9.964733e-01 1.114154e-01 -7.226668e+00 43 50 68
-9.995412e-01 7.234963e-03 -7.168785e+00 133 127 122
-1.049254e+00 5.016444e-02 -7.187239e+00 120 118 119
-1.052103e+00 5.766498e-02 -7.190284e+00 8 8 8
-1.053632e+00 6.003456e-02 -7.192047e+00 8 8 8
-1.010744e+00 1.527414e-01 -7.263722e+00 96 98 99
-9.824619e-01 1.444340e-02 -7.179562e+00 109 107 108
-9.972599e-01 5.846346e-03 -7.164857e+00 124 116 113
-9.946014e-01 1.556558e-02 -7.170951e+00 124 116 114
-9.822591e-01 6.840775e-02 -7.191249e+00 76 81 86
-1.049757e+00 2.885932e-02 -7.190834e+00 6 6 6
-9.273227e-01 -1.690489e-01 -7.047566e+00 174 175 177
-9.332975e-01 -1.654028e-01 -7.037892e+00 82 91 120
-9.384003e-01 -1.501221e-01 -7.043199e+00 177 177 177
-9.971834e-01 2.917853e-02 -7.227407e+00 19 21 18
-1.027341e+00 4.223849e-02 -7.212757e+00 1 1 2
-9.943412e-01 -2.362834e-03 -7.157220e+00 120 119 114
-9.890394e-01 1.596797e-02 -7.207687e+00 21 23 22
-1.004900e+00 3.632682e-03 -7.180401e+00 109 100 95
-1.021054e+00 4.596616e-02 -7.192055e+00 18 31 56
-9.749185e-01 2.449507e-02 -7.183532e+00 80 81 83
-9.200685e-01 -1.683337e-01 -7.050223e+00 58 57 73
-9.792822e-01 1.274516e-02 -7.182392e+00 102 103 105
-9.909319e-01 7.005565e-03 -7.168155e+00 120 112 110
-1.035951e+00 4.324980e-02 -7.184708e+00 7 7 7
-9.959517e-01 9.276321e-04 -7.169030e+00 119 109 102
-9.379672e-01 -1.520115e-01 -7.043523e+00 68 70 73
-9.405052e-01 -1.630785e-01 -7.042141e+00 72 75 78
-9.141733e-01 -1.732737e-01 -7.044600e+00 174 174 174
-9.344936e-01 -1.674206e-01 -7.037972e+00 83 91 114
-9.325558e-01 -1.632267e-01 -7.034042e+00 57 57 69
-9.925965e-01 7.933366e-03 -7.168629e+00 60 52 50
-9.897992e-01 2.253074e-03 -7.174008e+00 60 56 45
-1.002949e+00 6.394994e-03 -7.183072e+00 116 109 103
-9.942378e-01 -3.835312e-02 -7.155024e+00 169 169 169
-9.942378e-01 -3.835312e-02 -7.155024e+00 169 169 169
-9.744568e-01 6.135830e-02 -7.181583e+00 107 107 114
-9.842119e-01 9.762994e-02 -7.191983e+00 51 62 84
-9.865912e-01 8.708403e-02 -7.183780e+00 0 9 21
-9.836825e-01 8.878207e-02 -7.181299e+00 2 13 41
-9.802523e-01 9.759651e-02 -7.185827e+00 2 15 34
-9.733782e-01 5.361617e-02 -7.180298e+00 114 115 119
-9.819182e-01 9.277258e-02 -7.181157e+00 60 72 112
-9.819353e-01 9.262731e-02 -7.181104e+00 60 72 112
-9.925489e-01 1.417090e-03 -7.170241e+00 119 114 104
-9.897237e-01 2.838066e-03 -7.164688e+00 120 112 110
-9.502670e-01 2.703320e-02 -7.133625e+00 13 13 11
-9.916564e-01 4.520150e-03 -7.180532e+00 133 133 119
-9.788477e-01 8.760173e-02 -7.175234e+00 63 73 110
-9.479750e-01 3.220613e-02 -7.129481e+00 109 107 108
-1.020680e+00 6.264231e-02 -7.243172e+00 3 1 1
-9.698499e-01 4.908255e-02 -7.178107e+00 18 19 23
-9.545505e-01 3.451218e-02 -7.144287e+00 114 116 113
-9.902230e-01 -1.413826e-03 -7.183643e+00 12 17 11
-9.489557e-01 2.861103e-02 -7.127587e+00 110 108 109
-9.489557e-01 2.861103e-02 -7.127587e+00 110 108 109
-9.727632e-01 4.540656e-02 -7.174885e+00 119 119 127
-9.758038e-01 9.126140e-02 -7.177988e+00 1 10 36
-9.896537e-01 9.855846e-03 -7.197457e+00 86 93 84
-9.227632e-01 -1.632341e-01 -7.036222e+00 168 170 169
-9.825421e-01 1.107319e-02 -7.179805e+00 118 119 114
-9.426336e-01 6.205316e-02 -7.126812e+00 109 107 108
-9.794288e-01 2.686898e-02 -7.190273e+00 29 30 32
-9.475508e-01 6.345330e-02 -7.134208e+00 98 98 98
-9.387960e-01 -1.684814e-01 -7.034953e+00 140 148 150
-9.351803e-01 -1.641778e-01 -7.033557e+00 103 110 114
-9.478267e-01 2.223115e-02 -7.124277e+00 110 110 110
-9.437017e-01 7.228055e-02 -7.126616e+00 58 56 51
-9.841335e-01 1.013705e-01 -7.174614e+00 67 80 118
-9.246104e-01 -1.732273e-01 -7.034684e+00 51 62 74
-9.246104e-01 -1.732273e-01 -7.034684e+00 51 62 74
-9.358649e-01 -1.655450e-01 -7.036072e+00 27 34 38
-9.148518e-01 -1.749748e-01 -7.042349e+00 153 155 152
-9.779757e-01 1.609806e-02 -7.165435e+00 106 106 108
-9.583225e-01 7.101087e-02 -7.144695e+00 84 84 84
-9.411765e-01 -1.699570e-01 -7.031604e+00 72 77 81
-9.393371e-01 -1.649191e-01 -7.031251e+00 70 76 85
-9.823032e-01 9.946190e-03 -7.178737e+00 104 106 103
-9.911623e-01 1.932910e-02 -7.181432e+00 109 106 102
-9.332631e-01 -1.680923e-01 -7.028879e+00 47 50 58
-9.630250e-01 6.131352e-02 -7.141183e+00 95 95 97
-9.429022e-01 3.480579e-02 -7.118159e+00 23 21 22
-9.774824e-01 8.201049e-02 -7.186700e+00 16 20 26
-9.578441e-01 2.417400e-02 -7.135548e+00 105 105 107
-9.389163e-01 -1.689123e-01 -7.034434e+00 98 105 108
-9.748791e-01 9.609318e-02 -7.169422e+00 6 6 10
-9.714083e-01 8.195474e-02 -7.161723e+00 81 86 89
-1.014319e+00 3.669743e-02 -7.250296e+00 52 54 53
-1.014319e+00 3.669743e-02 -7.250296e+00 52 54 53
-9.483149e-01 5.364384e-02 -7.123471e+00 92 89 88
-9.861763e-01 6.949737e-02 -7.165241e+00 69 74 80
-9.589912e-01 8.860233e-02 -7.146465e+00 96 96 98
-9.979684e-01 4.159679e-02 -7.189240e+00 30 28 24
-9.795364e-01 1.541289e-02 -7.184765e+00 95 99 102
-1.002090e+00 6.669968e-03 -7.180314e+00 52 46 43
-9.474106e-01 5.055531e-02 -7.125545e+00 98 96 97
-1.024784e+00 3.697261e-02 -7.204968e+00 106 107 110
-1.044266e+00 4.202077e-02 -7.189471e+00 131 130 128
-9.894077e-01 1.226697e-01 -7.211586e+00 43 56 85
-9.748742e-01 1.139612e-01 -7.188530e+00 30 41 64
-9.559994e-01 3.242229e-02 -7.145200e+00 113 114 118
-9.452802e-01 2.135933e-02 -7.132224e+00 122 120 123
-9.362220e-01 -1.669594e-01 -7.034118e+00 27 34 38
-9.687335e-01 1.270248e-01 -7.199528e+00 95 96 100
-9.793413e-01 1.161384e-01 -7.185876e+00 52 64 91
-9.929025e-01 1.013054e-02 -7.166537e+00 101 96 92
-9.412767e-01 -1.628180e-01 -7.039588e+00 70 75 78
-9.351483e-01 -1.641376e-01 -7.037700e+00 61 66 69
-9.089974e-01 -1.652393e-01 -7.036063e+00 108 108 108
-9.366190e-01 -1.609566e-01 -7.052720e+00 163 163 163
-9.222588e-01 -1.568606e-01 -7.065402e+00 152 153 155
-9.412410e-01 -1.605108e-01 -7.046511e+00 163 164 166
-9.333724e-01 -1.637607e-01 -7.033368e+00 43 48 52
-9.296826e-01 -1.631928e-01 -7.049628e+00 60 61 66
-9.334808e-01 -1.633351e-01 -7.032654e+00 36 41 42
-9.326343e-01 -1.631091e-01 -7.031790e+00 157 159 158
-9.170702e-01 -1.645053e-01 -7.042759e+00 46 51 55
-9.356528e-01 -1.651442e-01 -7.030518e+00 58 62 63
-9.348728e-01 -1.645704e-01 -7.031800e+00 153 158 161
-9.348728e-01 -1.645704e-01 -7.031800e+00 153 158 161
-9.370025e-01 -1.683592e-01 -7.033936e+00 117 125 127
-9.357072e-01 -1.660600e-01 -7.032281e+00 134 141 147
-9.204090e-01 -1.577982e-01 -6.987797e+00 0 255 0
-9.239198e-01 -1.632543e-01 -7.037374e+00 255 255 0
-9.218885e-01 -1.647139e-01 -6.988314e+00 255 0 0
-9.259792e-01 -1.616989e-01 -7.038055e+00 255 255 0
-9.224287e-01 -1.465085e-01 -6.986913e+00 0 255 0
-9.280483e-01 -1.585224e-01 -7.035122e+00 255 255 0
-9.216792e-01 -1.535759e-01 -6.989689e+00 255 0 0
-9.240114e-01 -1.701453e-01 -7.036806e+00 255 255 0
-9.222188e-01 -1.571666e-01 -6.989035e+00 0 255 0
-9.255830e-01 -1.660212e-01 -7.038130e+00 255 255 0
-9.222502e-01 -1.593750e-01 -6.988506e+00 255 0 0
-9.251036e-01 -1.626277e-01 -7.038318e+00 255 255 0
-9.223337e-01 -1.661388e-01 -6.986832e+00 0 255 0
-9.290861e-01 -1.751997e-01 -7.035538e+00 255 255 0
-9.228751e-01 -1.668713e-01 -6.987025e+00 255 0 0
-9.294387e-01 -1.692479e-01 -7.036536e+00 255 255 0
-9.229842e-01 -1.675786e-01 -6.987029e+00 0 255 0
-9.295075e-01 -1.654312e-01 -7.036556e+00 255 255 0
-9.230374e-01 -1.672122e-01 -6.987441e+00 255 0 0
-9.286261e-01 -1.606618e-01 -7.036694e+00 255 255 0
-9.267771e-01 -1.572832e-01 -6.997556e+00 0 255 0
-9.309891e-01 -1.660679e-01 -7.046598e+00 255 255 0
-9.274447e-01 -1.667384e-01 -6.998324e+00 255 0 0
-9.306714e-01 -1.667527e-01 -7.048219e+00 255 255 0
-9.262595e-01 -1.446002e-01 -6.991115e+00 0 255 0
-9.293693e-01 -1.649656e-01 -7.036673e+00 255 255 0
-9.262901e-01 -1.434215e-01 -6.991364e+00 255 0 0
-9.295797e-01 -1.625182e-01 -7.037456e+00 255 255 0
-9.262835e-01 -1.427137e-01 -6.991653e+00 0 255 0
-9.317437e-01 -1.597429e-01 -7.038346e+00 255 255 0
-9.264912e-01 -1.429361e-01 -6.991741e+00 255 0 0
-9.324569e-01 -1.561301e-01 -7.039599e+00 255 255 0
-9.231105e-01 -1.671159e-01 -6.987152e+00 0 255 0
-9.288540e-01 -1.576908e-01 -7.035918e+00 255 255 0
-9.320146e-01 -1.453545e-01 -7.001593e+00 255 0 0
-9.295701e-01 -1.692707e-01 -7.045434e+00 255 255 0
-9.293338e-01 -1.520019e-01 -6.997265e+00 0 255 0
-9.281632e-01 -1.678038e-01 -7.044688e+00 255 255 0
-9.271002e-01 -1.400238e-01 -6.991272e+00 255 0 0
-9.287181e-01 -1.608622e-01 -7.036694e+00 255 255 0
-9.276965e-01 -1.882907e-01 -7.091558e+00 0 255 0
-9.238028e-01 -2.124264e-01 -7.135174e+00 255 255 0
-9.266879e-01 -1.229608e-01 -6.996897e+00 255 0 0
-9.327495e-01 -1.547535e-01 -7.035009e+00 255 255 0
-9.266961e-01 -1.532148e-01 -6.993501e+00 0 255 0
-9.305937e-01 -1.593478e-01 -7.042971e+00 255 255 0
-9.241547e-01 -1.718338e-01 -6.990542e+00 255 0 0
-9.281412e-01 -1.618904e-01 -7.039380e+00 255 255 0
-9.240804e-01 -1.743141e-01 -6.989824e+00 0 255 0
-9.293951e-01 -1.656351e-01 -7.038778e+00 255 255 0
-9.281267e-01 -1.703480e-01 -6.999946e+00 255 0 0
-9.304045e-01 -1.644969e-01 -7.049550e+00 255 255 0
-9.278561e-01 -1.718458e-01 -7.001076e+00 0 255 0
-9.308505e-01 -1.653938e-01 -7.050567e+00 255 255 0
-9.247440e-01 -1.774625e-01 -6.989879e+00 255 0 0
-9.299452e-01 -1.651848e-01 -7.038068e+00 255 255 0
-9.286689e-01 -1.736531e-01 -7.002355e+00 0 255 0
-9.288456e-01 -1.639821e-01 -7.051411e+00 255 255 0
-9.273316e-01 -1.794222e-01 -6.994538e+00 255 0 0
-9.314606e-01 -1.669934e-01 -7.042793e+00 255 255 0
-9.315952e-01 -1.593348e-01 -7.007381e+00 0 255 0
-9.278135e-01 -1.650821e-01 -7.056906e+00 255 255 0
-9.317532e-01 -1.456752e-01 -7.001549e+00 255 0 0
-9.263191e-01 -1.720855e-01 -7.043656e+00 255 255 0
-9.294297e-01 -1.769289e-01 -7.002636e+00 0 255 0
-9.294790e-01 -1.624991e-01 -7.050509e+00 255 255 0
-9.294017e-01 -1.788771e-01 -7.003124e+00 255 0 0
-9.300767e-01 -1.627565e-01 -7.050449e+00 255 255 0
-9.290053e-01 -1.826361e-01 -6.996809e+00 0 255 0
-9.321818e-01 -1.643515e-01 -7.043237e+00 255 255 0
-9.320494e-01 -1.862264e-01 -7.001497e+00 255 0 0
-9.334641e-01 -1.641651e-01 -7.046345e+00 255 255 0
-9.314301e-01 -1.831493e-01 -7.003672e+00 0 255 0
-9.300601e-01 -1.658871e-01 -7.050578e+00 255 255 0
-9.325840e-01 -1.877993e-01 -7.003925e+00 255 0 0
-9.303803e-01 -1.668562e-01 -7.049274e+00 255 255 0
-9.335448e-01 -1.890035e-01 -7.005485e+00 0 255 0
-9.317734e-01 -1.627727e-01 -7.048016e+00 255 255 0
-9.359148e-01 -1.942203e-01 -7.007251e+00 255 0 0
-9.324062e-01 -1.653146e-01 -7.047898e+00 255 255 0
-9.328330e-01 -1.860614e-01 -7.005872e+00 0 255 0
-9.322025e-01 -1.602164e-01 -7.048670e+00 255 255 0
-9.385274e-01 -2.017404e-01 -6.992780e+00 255 0 0
-9.245399e-01 -1.751774e-01 -7.032764e+00 255 255 0
-9.411251e-01 -2.036656e-01 -6.994343e+00 0 255 0
-9.263867e-01 -1.744348e-01 -7.032136e+00 255 255 0
-9.504215e-01 -2.019815e-01 -7.002778e+00 255 0 0
-9.316849e-01 -1.681413e-01 -7.034461e+00 255 255 0
-9.434943e-01 -2.058831e-01 -6.996421e+00 0 255 0
-9.265262e-01 -1.746757e-01 -7.031609e+00 255 255 0
-9.480506e-01 -2.072188e-01 -7.000563e+00 255 0 0
-9.293318e-01 -1.746267e-01 -7.033538e+00 255 255 0
