ply
format ascii 1.0
element face 0
property list uchar int vertex_indices
element vertex 634
property float x
property float y
property float z
property uchar diffuse_red
property uchar diffuse_green
property uchar diffuse_blue
end_header
-9.289676e-01 -1.551659e-01 -7.044547e+00 30 31 52
-9.281418e-01 -1.573019e-01 -7.042748e+00 23 21 21
-9.244788e-01 -1.572926e-01 -7.045970e+00 26 27 30
-9.253753e-01 -1.612793e-01 -7.040301e+00 93 90 102
-9.239683e-01 -1.613434e-01 -7.041779e+00 95 93 105
-9.368203e-01 -1.512147e-01 -7.046779e+00 64 64 74
-9.238873e-01 -1.613059e-01 -7.041545e+00 95 93 105
-9.287470e-01 -1.609976e-01 -7.037793e+00 96 92 107
-9.296874e-01 -1.608300e-01 -7.037022e+00 97 94 113
-9.197093e-01 -1.618001e-01 -7.045727e+00 90 89 105
-9.371871e-01 -1.538609e-01 -7.045275e+00 55 58 65
-9.373729e-01 -1.653041e-01 -7.040681e+00 50 56 63
-9.151700e-01 -1.688278e-01 -7.051378e+00 103 105 104
-9.350056e-01 -1.605425e-01 -7.035772e+00 39 48 51
-9.355388e-01 -1.673881e-01 -7.039904e+00 76 83 93
-9.297865e-01 -1.607950e-01 -7.037624e+00 97 94 113
-9.196798e-01 -1.617480e-01 -7.044639e+00 90 89 105
-9.391030e-01 -1.523060e-01 -7.043387e+00 66 68 73
-9.321561e-01 -1.628157e-01 -7.036069e+00 86 97 119
-9.269688e-01 -1.522383e-01 -7.051652e+00 76 73 87
-1.064621e+00 -4.587395e-02 -7.324820e+00 118 116 117
-9.183723e-01 -1.686599e-01 -7.050718e+00 88 94 100
-9.337367e-01 -1.674894e-01 -7.040389e+00 70 76 97
-9.363358e-01 -1.641189e-01 -7.035620e+00 88 93 97
-9.333642e-01 -1.728457e-01 -7.034400e+00 176 176 176
-9.151794e-01 -1.734854e-01 -7.050790e+00 171 173 170
-9.223490e-01 -1.531812e-01 -7.057094e+00 66 65 81
-1.063423e+00 -4.726968e-02 -7.334972e+00 124 122 123
-9.365320e-01 -1.679251e-01 -7.039289e+00 177 179 178
-9.261365e-01 -1.678736e-01 -7.045215e+00 75 86 108
-9.370737e-01 -1.668174e-01 -7.038963e+00 46 53 59
-9.366516e-01 -1.606607e-01 -7.036739e+00 151 160 163
-9.285482e-01 -1.521775e-01 -7.050096e+00 78 76 90
-9.260758e-01 -1.679937e-01 -7.045621e+00 73 84 106
-9.205250e-01 -1.684534e-01 -7.049307e+00 77 85 107
-9.369168e-01 -1.511227e-01 -7.045808e+00 65 65 75
-1.070383e+00 -3.975746e-02 -7.329646e+00 10 12 13
-9.370179e-01 -1.656369e-01 -7.037169e+00 90 96 102
-9.229576e-01 -1.602297e-01 -7.043999e+00 32 30 38
-9.286130e-01 -1.581772e-01 -7.041586e+00 83 82 104
-9.377709e-01 -1.575663e-01 -7.038017e+00 99 104 108
-9.404828e-01 -1.534344e-01 -7.042158e+00 86 90 93
-9.357508e-01 -1.633136e-01 -7.035744e+00 95 102 106
-9.352799e-01 -1.631370e-01 -7.034245e+00 95 102 106
-9.346345e-01 -1.616531e-01 -7.034611e+00 80 89 92
-9.258942e-01 -1.581911e-01 -7.043466e+00 65 63 66
-9.265850e-01 -1.581387e-01 -7.042862e+00 64 62 63
-9.254143e-01 -1.573056e-01 -7.044919e+00 65 65 67
-9.254263e-01 -1.572734e-01 -7.044831e+00 65 65 67
-9.272502e-01 -1.572812e-01 -7.043644e+00 66 64 65
-9.283319e-01 -1.563521e-01 -7.043750e+00 63 65 69
-9.276564e-01 -1.563516e-01 -7.044263e+00 68 71 74
-9.276534e-01 -1.563529e-01 -7.044266e+00 68 71 74
-9.340449e-01 -1.421505e-01 -7.048638e+00 183 183 183
-9.467806e-01 -1.518168e-01 -7.052840e+00 121 123 122
-9.351661e-01 -1.525655e-01 -7.044301e+00 64 61 80
-9.357120e-01 -1.622331e-01 -7.034854e+00 47 54 60
-9.364510e-01 -1.608637e-01 -7.036079e+00 148 156 159
-9.357388e-01 -1.653228e-01 -7.033697e+00 112 120 125
-9.361662e-01 -1.652844e-01 -7.035163e+00 112 120 125
-9.347169e-01 -1.616864e-01 -7.034872e+00 91 100 103
-1.059772e+00 -1.771331e-01 -7.310345e+00 166 168 164
-1.079422e+00 -2.306457e-02 -7.357189e+00 49 50 50
-1.061940e+00 -2.859614e-02 -7.321278e+00 95 94 90
-1.061940e+00 -2.859614e-02 -7.321278e+00 95 94 90
-9.259861e-01 -1.551688e-01 -7.047117e+00 33 35 51
-9.357630e-01 -1.647167e-01 -7.037574e+00 48 54 60
-9.364759e-01 -1.604650e-01 -7.036053e+00 152 160 163
-9.293324e-01 -1.539531e-01 -7.046262e+00 92 88 105
-9.253680e-01 -1.612521e-01 -7.040302e+00 98 91 109
-9.294341e-01 -1.565175e-01 -7.042319e+00 80 82 108
-9.286374e-01 -1.609761e-01 -7.037370e+00 98 94 111
-9.356205e-01 -1.628235e-01 -7.036475e+00 154 159 163
-9.251290e-01 -1.563897e-01 -7.046144e+00 62 66 69
-9.395884e-01 -1.532588e-01 -7.040883e+00 138 144 148
-1.016042e+00 -1.594551e-01 -7.210519e+00 55 57 54
-9.354062e-01 -1.589814e-01 -7.034980e+00 43 51 54
-9.247660e-01 -1.682714e-01 -7.047233e+00 81 89 110
-9.197369e-01 -1.620446e-01 -7.046733e+00 93 90 109
-9.337041e-01 -1.674302e-01 -7.040393e+00 72 78 100
-9.221275e-01 -1.539777e-01 -7.051749e+00 68 65 82
-9.351726e-01 -1.629685e-01 -7.034775e+00 107 114 120
-9.351726e-01 -1.629685e-01 -7.034775e+00 107 114 120
-9.373239e-01 -1.605416e-01 -7.039509e+00 154 159 163
-9.057754e-01 -1.674237e-01 -7.045923e+00 132 132 132
-9.388971e-01 -1.518354e-01 -7.043372e+00 66 73 76
-9.366904e-01 -1.607400e-01 -7.037187e+00 152 160 163
-9.369220e-01 -1.648803e-01 -7.037240e+00 106 113 119
-9.369220e-01 -1.648803e-01 -7.037240e+00 106 113 119
-9.378511e-01 -1.662111e-01 -7.038375e+00 131 135 138
-9.378511e-01 -1.662111e-01 -7.038375e+00 131 135 138
-9.366703e-01 -1.593995e-01 -7.038716e+00 94 101 107
-9.272367e-01 -1.574602e-01 -7.043847e+00 69 69 70
-9.405571e-01 -1.530333e-01 -7.043245e+00 135 139 142
-1.139670e+00 -2.197172e-01 -7.372402e+00 52 53 56
-9.257634e-01 -1.563132e-01 -7.045779e+00 66 67 72
-9.378690e-01 -1.547892e-01 -7.039464e+00 84 87 92
-9.374392e-01 -1.651720e-01 -7.040808e+00 48 55 61
-9.046427e-01 -1.689846e-01 -7.049088e+00 132 132 132
-9.177872e-01 -1.700717e-01 -7.057447e+00 163 164 166
-9.382283e-01 -1.648454e-01 -7.038558e+00 67 78 82
-9.439202e-01 -1.531299e-01 -7.050046e+00 179 183 184
-9.273438e-01 -1.536390e-01 -7.047011e+00 99 95 110
-9.411613e-01 -1.531983e-01 -7.042428e+00 79 85 88
-9.367853e-01 -1.503182e-01 -7.042416e+00 70 68 82
-9.386395e-01 -1.504215e-01 -7.040495e+00 85 86 89
-9.272111e-01 -1.574818e-01 -7.044175e+00 66 66 68
-9.248162e-01 -1.553469e-01 -7.044099e+00 30 28 39
-9.289573e-01 -1.563107e-01 -7.044132e+00 22 22 32
-9.409296e-01 -1.640876e-01 -7.016364e+00 32 34 33
-9.409296e-01 -1.640876e-01 -7.016364e+00 32 34 33
-9.358637e-01 -1.648357e-01 -7.043588e+00 38 46 49
-9.419284e-01 -1.650991e-01 -7.017878e+00 15 17 15
-9.258420e-01 -1.565618e-01 -7.044241e+00 21 22 24
-9.421423e-01 -1.661123e-01 -7.018107e+00 5 7 4
-9.410101e-01 -1.586540e-01 -7.049818e+00 99 108 113
-9.367434e-01 -1.519347e-01 -7.010666e+00 108 110 107
-9.421845e-01 -1.661874e-01 -7.017617e+00 30 32 29
-9.346214e-01 -1.480432e-01 -7.006342e+00 3 5 2
-9.376182e-01 -1.672361e-01 -7.039277e+00 72 76 79
-9.344348e-01 -1.479927e-01 -7.006286e+00 49 51 48
-9.344348e-01 -1.479927e-01 -7.006286e+00 49 51 48
-9.187741e-01 -1.694091e-01 -7.047551e+00 165 167 166
-9.734360e-01 -2.473156e-01 -7.121723e+00 174 173 174
-1.041913e+00 -2.966323e-01 -7.263393e+00 35 34 32
-1.041913e+00 -2.966323e-01 -7.263393e+00 35 34 32
-9.403974e-01 -1.707847e-01 -7.041536e+00 179 179 177
-9.357303e-01 -1.495688e-01 -7.008675e+00 62 64 61
-9.362491e-01 -1.507052e-01 -7.009611e+00 130 131 129
-9.374356e-01 -1.525962e-01 -7.011217e+00 28 29 26
-9.272612e-01 -1.589993e-01 -7.037783e+00 33 25 25
-1.008532e+00 -2.737810e-02 -7.230144e+00 73 76 75
-9.329445e-01 -1.671409e-01 -7.040829e+00 63 72 97
-9.315144e-01 -1.678486e-01 -7.041744e+00 79 83 102
-9.239159e-01 -1.614676e-01 -7.040747e+00 97 93 107
-9.344578e-01 -1.548488e-01 -7.009895e+00 5 5 3
-9.350877e-01 -1.562978e-01 -7.004228e+00 66 66 64
-9.358163e-01 -1.558123e-01 -7.004487e+00 8 10 7
-9.388529e-01 -1.659134e-01 -7.041247e+00 66 76 81
-9.391231e-01 -1.517544e-01 -7.009397e+00 7 9 6
-9.351234e-01 -1.561663e-01 -7.004842e+00 5 7 4
-9.367926e-01 -1.556138e-01 -7.005155e+00 81 83 80
-9.349915e-01 -1.563674e-01 -7.004646e+00 61 63 60
-9.337044e-01 -1.534242e-01 -7.009589e+00 57 64 77
-9.351888e-01 -1.565240e-01 -7.003066e+00 67 69 66
-9.367457e-01 -1.558717e-01 -7.004136e+00 8 10 7
-9.362321e-01 -1.561674e-01 -7.004441e+00 87 90 87
-9.366740e-01 -1.557921e-01 -7.004271e+00 79 81 77
-9.328249e-01 -1.543750e-01 -7.008666e+00 12 12 10
-9.332631e-01 -1.543305e-01 -7.008284e+00 41 41 39
-9.344782e-01 -1.540845e-01 -7.007876e+00 76 33 35
-9.357752e-01 -1.560653e-01 -7.005108e+00 52 53 50
-9.341052e-01 -1.557207e-01 -7.008138e+00 39 41 38
-9.348201e-01 -1.540647e-01 -7.008581e+00 72 42 46
-9.367553e-01 -1.499068e-01 -7.011269e+00 37 37 35
-9.356865e-01 -1.558427e-01 -7.005250e+00 0 1 0
-9.346577e-01 -1.554841e-01 -7.006409e+00 5 7 4
-9.369620e-01 -1.554535e-01 -7.005548e+00 83 85 83
-9.346898e-01 -1.542920e-01 -7.007645e+00 63 64 59
-9.357025e-01 -1.537621e-01 -7.010565e+00 52 52 52
-9.388379e-01 -1.529990e-01 -7.008221e+00 198 200 195
-9.351687e-01 -1.493040e-01 -7.012101e+00 110 109 106
-9.351687e-01 -1.493040e-01 -7.012101e+00 110 109 106
-9.247321e-01 -1.682795e-01 -7.045466e+00 76 84 103
-9.111516e-01 -1.482075e-01 -7.049588e+00 178 178 178
-9.478773e-01 -1.489080e-01 -7.024188e+00 81 83 80
-9.466543e-01 -1.527787e-01 -7.023224e+00 4 6 2
-9.243401e-01 -1.613028e-01 -7.041777e+00 96 91 104
-9.428987e-01 -1.493066e-01 -7.025265e+00 15 14 12
-9.449221e-01 -1.500990e-01 -7.024745e+00 136 138 135
-9.427577e-01 -1.489499e-01 -7.025245e+00 80 79 77
-9.417328e-01 -1.517923e-01 -7.023951e+00 84 84 76
-9.502307e-01 -1.504480e-01 -7.023960e+00 46 48 49
-9.494043e-01 -1.478879e-01 -7.023486e+00 42 44 41
-9.529206e-01 -1.481360e-01 -7.023453e+00 102 104 99
-9.257748e-01 -1.559720e-01 -7.045259e+00 60 59 65
-9.342264e-01 -1.614246e-01 -7.038037e+00 42 47 53
-9.352389e-01 -1.531136e-01 -7.042443e+00 66 65 81
-9.401932e-01 -1.625450e-01 -7.041089e+00 67 72 75
-9.335806e-01 -1.599629e-01 -7.035975e+00 90 93 98
-9.361644e-01 -1.581814e-01 -7.036775e+00 45 53 56
-9.360973e-01 -1.581431e-01 -7.036983e+00 45 53 56
-9.354426e-01 -1.646453e-01 -7.035788e+00 38 47 54
-9.364179e-01 -1.619076e-01 -7.037332e+00 47 54 60
-9.362778e-01 -1.616278e-01 -7.034731e+00 221 226 230
-9.363006e-01 -1.616145e-01 -7.034820e+00 221 226 230
-9.358769e-01 -1.651030e-01 -7.034522e+00 148 155 161
-9.353484e-01 -1.639053e-01 -7.034242e+00 163 170 177
-9.353520e-01 -1.638593e-01 -7.034376e+00 163 170 177
-9.316653e-01 -1.677032e-01 -7.042719e+00 72 78 103
-9.385339e-01 -1.654734e-01 -7.036932e+00 188 191 194
-9.380467e-01 -1.656232e-01 -7.034300e+00 102 106 109
-9.343341e-01 -1.627826e-01 -7.034530e+00 46 50 56
-1.085070e+00 4.136186e-02 -7.324995e+00 138 136 128
-1.074456e+00 4.202283e-02 -7.347999e+00 75 77 74
-9.390442e-01 -1.504224e-01 -7.010807e+00 83 85 82
-9.394563e-01 -1.547338e-01 -7.008286e+00 104 109 105
-9.405118e-01 -1.474668e-01 -7.010375e+00 3 4 0
-9.376292e-01 -1.545478e-01 -7.008271e+00 86 88 85
-9.363129e-01 -1.564516e-01 -7.004428e+00 88 90 87
-9.410537e-01 -1.493483e-01 -7.010160e+00 2 4 2
-9.407469e-01 -1.517625e-01 -7.009429e+00 134 134 132
-9.394767e-01 -1.510287e-01 -7.010826e+00 89 91 88
-9.407396e-01 -1.469358e-01 -7.010251e+00 107 109 105
-9.397247e-01 -1.534506e-01 -7.007966e+00 127 127 124
-9.407786e-01 -1.475904e-01 -7.010259e+00 5 5 0
-9.359205e-01 -1.459383e-01 -7.012594e+00 13 13 13
-9.311119e-01 -1.585022e-01 -7.005831e+00 11 12 11
-9.334540e-01 -1.546415e-01 -7.008788e+00 41 41 39
-9.401078e-01 -1.515997e-01 -7.009895e+00 131 132 130
-9.341027e-01 -1.555199e-01 -7.012211e+00 175 176 174
-9.396769e-01 -1.486792e-01 -7.011221e+00 7 7 5
-9.397822e-01 -1.474393e-01 -7.010623e+00 107 104 99
-9.350481e-01 -1.569794e-01 -7.002917e+00 56 58 57
-9.384226e-01 -1.518890e-01 -7.009264e+00 8 10 7
-9.401476e-01 -1.486914e-01 -7.008990e+00 101 101 101
-9.398210e-01 -1.539112e-01 -7.007953e+00 111 111 109
-9.395317e-01 -1.530793e-01 -7.008274e+00 60 60 58
-9.398944e-01 -1.518724e-01 -7.008929e+00 85 86 81
-9.413755e-01 -1.517529e-01 -7.009580e+00 98 92 74
-9.413598e-01 -1.495950e-01 -7.010268e+00 101 103 100
-9.413975e-01 -1.492713e-01 -7.010295e+00 108 109 110
-9.410443e-01 -1.470978e-01 -7.010468e+00 95 95 89
-9.950286e-01 2.539305e-02 -7.226590e+00 116 118 117
-9.900090e-01 1.203399e-02 -7.204459e+00 22 26 26
-9.913522e-01 2.423924e-03 -7.189595e+00 96 97 94
-9.838904e-01 8.696511e-04 -7.183974e+00 118 121 114
-1.013592e+00 3.195117e-02 -7.245908e+00 56 58 55
-9.323440e-01 -1.458579e-01 -7.002208e+00 6 5 1
-9.406001e-01 -1.485745e-01 -7.047373e+00 180 182 181
-9.346956e-01 -1.627620e-01 -7.033741e+00 163 171 173
-9.421004e-01 -1.610079e-01 -7.047409e+00 72 76 81
-9.378221e-01 -1.639696e-01 -7.038872e+00 56 61 65
-9.143408e-01 -1.628401e-01 -7.048924e+00 50 51 55
-9.281008e-01 -1.682227e-01 -7.044077e+00 84 87 106
-9.370927e-01 -1.661753e-01 -7.036845e+00 75 86 91
-9.366550e-01 -1.639354e-01 -7.036336e+00 131 135 140
-9.335500e-01 -1.618175e-01 -7.035696e+00 41 46 52
-9.360078e-01 -1.518437e-01 -7.045247e+00 75 75 87
-9.307503e-01 -1.678891e-01 -7.043142e+00 89 92 111
-1.083958e+00 3.435109e-02 -7.358312e+00 7 9 6
-1.080788e+00 3.963955e-02 -7.362390e+00 100 103 98
-1.077454e+00 -3.418189e-02 -7.351751e+00 114 114 116
-1.171003e+00 -3.342761e-01 -7.375735e+00 81 80 78
-1.006550e+00 1.523766e-02 -7.230770e+00 42 44 45
-1.007126e+00 1.683773e-02 -7.232984e+00 42 44 45
-9.371467e-01 -1.464621e-01 -7.010574e+00 1 3 0
-9.324191e-01 -1.554064e-01 -7.007975e+00 10 10 8
-9.326083e-01 -1.545763e-01 -7.008222e+00 10 11 8
-9.362918e-01 -1.559470e-01 -7.004349e+00 2 4 1
-9.367016e-01 -1.513947e-01 -7.010124e+00 28 30 27
-9.410342e-01 -1.524013e-01 -7.043192e+00 79 87 89
-9.348508e-01 -1.559576e-01 -7.002327e+00 4 6 4
-9.337691e-01 -1.546051e-01 -7.009372e+00 32 32 32
-9.356523e-01 -1.560030e-01 -7.004873e+00 3 5 3
-9.368030e-01 -1.510452e-01 -7.010697e+00 124 126 123
-9.467135e-01 -1.577441e-01 -7.039494e+00 47 46 43
-1.006761e+00 1.786104e-02 -7.228171e+00 28 30 29
-9.344057e-01 -1.476262e-01 -7.007370e+00 14 13 11
-9.338296e-01 -1.498303e-01 -7.006196e+00 41 41 39
-9.405074e-01 -1.550287e-01 -7.045291e+00 122 129 135
-9.347635e-01 -1.487034e-01 -7.006905e+00 61 63 60
-9.341618e-01 -1.480916e-01 -7.006974e+00 110 109 104
-9.972174e-01 1.564661e-02 -7.207419e+00 92 92 89
-9.258999e-01 -1.682692e-01 -7.046114e+00 75 79 102
-1.014310e+00 2.978598e-02 -7.246838e+00 6 7 9
-9.182992e-01 -1.684924e-01 -7.051236e+00 73 76 83
-9.384787e-01 -1.659411e-01 -7.038865e+00 50 58 61
-9.384787e-01 -1.659411e-01 -7.038865e+00 50 58 61
-9.200478e-01 -1.688139e-01 -7.049708e+00 73 73 91
-9.369656e-01 -1.663025e-01 -7.036372e+00 105 110 114
-9.208377e-01 -1.683777e-01 -7.048069e+00 69 76 91
-9.204037e-01 -1.683676e-01 -7.049463e+00 75 81 97
-9.282321e-01 -1.699831e-01 -7.046986e+00 181 183 182
-9.336037e-01 -1.597587e-01 -7.036544e+00 116 119 124
-9.390959e-01 -1.509776e-01 -7.042676e+00 178 180 179
-1.014076e+00 -2.111615e-02 -7.244144e+00 79 83 91
-9.916170e-01 3.653953e-03 -7.179803e+00 132 132 126
-9.985925e-01 3.519246e-03 -7.177500e+00 132 123 118
-1.001343e+00 3.063712e-03 -7.177398e+00 63 60 51
-9.831031e-01 7.024376e-03 -7.180706e+00 116 117 109
-9.830831e-01 6.933637e-03 -7.180601e+00 116 117 109
-1.000331e+00 4.061100e-03 -7.171409e+00 122 114 111
-9.879794e-01 7.988949e-03 -7.195946e+00 83 90 83
-1.013505e+00 1.130021e-02 -7.190012e+00 25 24 22
-9.992933e-01 7.640263e-03 -7.189608e+00 115 110 105
-9.915020e-01 3.753682e-03 -7.185880e+00 122 126 113
-9.935884e-01 4.336016e-03 -7.184988e+00 44 43 38
-1.003751e+00 3.225595e-03 -7.176660e+00 128 121 115
-1.003714e+00 4.051968e-03 -7.175273e+00 58 48 42
-1.003714e+00 4.051968e-03 -7.175273e+00 58 48 42
-9.982385e-01 3.516219e-03 -7.170180e+00 61 52 47
-9.815171e-01 7.708050e-03 -7.179853e+00 60 72 70
-9.815345e-01 7.752095e-03 -7.179895e+00 60 72 70
-9.955560e-01 5.824733e-03 -7.189449e+00 38 36 31
-1.012892e+00 7.619501e-03 -7.185057e+00 149 148 146
-1.009033e+00 6.687253e-03 -7.185275e+00 92 90 88
-1.004837e+00 3.852316e-03 -7.180581e+00 105 102 97
-1.006155e+00 4.255344e-03 -7.179830e+00 53 45 42
-9.906577e-01 4.908707e-03 -7.176489e+00 56 55 43
-9.864173e-01 6.138653e-03 -7.177619e+00 121 120 108
-9.469532e-01 -1.533640e-01 -7.064697e+00 71 75 76
-9.354487e-01 -1.635458e-01 -7.034683e+00 133 142 147
-9.350427e-01 -1.579634e-01 -7.037713e+00 117 118 122
-9.344821e-01 -1.614432e-01 -7.033548e+00 59 63 66
-9.464446e-01 -1.440476e-01 -7.031545e+00 33 33 33
-1.104191e+00 6.480584e-02 -7.383891e+00 83 84 79
-1.084955e+00 -2.779004e-03 -7.376838e+00 97 90 84
-1.084955e+00 -2.779004e-03 -7.376838e+00 97 90 84
-9.292341e-01 -1.681173e-01 -7.043991e+00 80 83 98
-1.066966e+00 -8.274695e-03 -7.333670e+00 19 19 17
-1.012803e+00 2.853545e-02 -7.243705e+00 15 16 17
-1.010450e+00 -2.323093e-02 -7.235831e+00 60 61 65
-1.037917e+00 4.590872e-02 -7.205563e+00 146 147 147
-1.032162e+00 4.120681e-02 -7.200823e+00 6 18 41
-1.033142e+00 4.502667e-02 -7.210857e+00 118 118 119
-1.032942e+00 4.442950e-02 -7.210276e+00 118 118 119
-9.994019e-01 5.981822e-03 -7.179668e+00 134 125 120
-1.003761e+00 3.284469e-03 -7.176721e+00 128 121 115
-9.835939e-01 2.730009e-03 -7.178771e+00 70 76 56
-1.021034e+00 3.337840e-02 -7.200825e+00 7 16 43
-9.967924e-01 3.766268e-03 -7.171483e+00 126 113 110
-9.886149e-01 8.346765e-03 -7.175996e+00 53 49 44
-1.009156e+00 2.505017e-02 -7.238103e+00 47 49 47
-1.013588e+00 1.527877e-02 -7.188225e+00 168 167 164
-1.011219e+00 3.788231e-02 -7.227615e+00 109 108 106
-9.847045e-01 -1.221619e-03 -7.183954e+00 34 40 37
-1.000145e+00 5.669904e-03 -7.173470e+00 125 115 111
-9.978518e-01 6.052503e-03 -7.182122e+00 126 122 117
-1.037171e+00 5.228129e-02 -7.218428e+00 130 133 132
-1.000821e+00 3.878973e-03 -7.174521e+00 131 120 116
-1.000567e+00 2.968371e-03 -7.173698e+00 131 120 116
-1.029867e+00 3.385604e-02 -7.195171e+00 4 14 39
-1.041620e+00 5.198362e-02 -7.207639e+00 37 40 44
-9.844820e-01 3.070144e-03 -7.173540e+00 77 74 65
-9.913929e-01 3.582933e-03 -7.170903e+00 91 77 70
-9.927862e-01 3.406530e-03 -7.167544e+00 139 128 125
-9.927980e-01 3.518050e-03 -7.167626e+00 139 128 125
-9.985149e-01 4.195572e-03 -7.166462e+00 140 129 123
-9.995153e-01 7.939522e-03 -7.166337e+00 56 51 46
-9.955073e-01 4.924128e-03 -7.166378e+00 133 123 115
-9.929437e-01 7.063045e-04 -7.167399e+00 72 57 52
-9.959040e-01 -1.577749e-03 -7.160718e+00 134 122 116
-9.918317e-01 4.967826e-03 -7.166256e+00 60 52 50
-9.366988e-01 -1.639888e-01 -7.036534e+00 93 100 104
-9.176368e-01 -1.631069e-01 -7.044939e+00 53 50 66
-9.342725e-01 -1.587311e-01 -7.057829e+00 69 72 95
-9.324161e-01 -1.621612e-01 -7.037211e+00 80 91 113
-9.391215e-01 -1.652915e-01 -7.040734e+00 63 67 71
-9.370029e-01 -1.662688e-01 -7.036247e+00 88 95 101
-9.357062e-01 -1.599425e-01 -7.036038e+00 127 134 138
-9.393400e-01 -1.650838e-01 -7.039771e+00 141 149 152
-9.254050e-01 -1.672625e-01 -7.048931e+00 58 59 77
-1.010053e+00 2.754213e-02 -7.238182e+00 10 11 13
-9.904958e-01 4.843132e-03 -7.185785e+00 79 85 64
-1.035911e+00 3.685830e-02 -7.193294e+00 19 20 24
-1.117996e+00 4.250154e-02 -7.458242e+00 51 51 51
-1.000753e+00 9.465716e-03 -7.194803e+00 9 10 6
-9.791154e-01 6.069308e-03 -7.181586e+00 54 57 57
-9.830933e-01 1.286872e-02 -7.181391e+00 128 129 125
-9.772995e-01 1.382763e-02 -7.179908e+00 20 20 22
-9.836192e-01 2.368405e-02 -7.185814e+00 28 28 28
-9.791744e-01 6.508248e-03 -7.177741e+00 130 125 122
-1.013158e+00 2.942483e-02 -7.244560e+00 11 12 11
-9.860238e-01 7.643675e-03 -7.197143e+00 97 100 93
-1.036161e+00 4.593361e-02 -7.211140e+00 43 45 44
-1.001543e+00 4.081943e-04 -7.170462e+00 125 115 109
-9.405745e-01 -1.692749e-01 -7.042152e+00 191 191 191
-9.998268e-01 7.957224e-03 -7.175594e+00 100 88 82
-1.030457e+00 5.713287e-02 -7.210384e+00 6 28 58
-1.038285e+00 5.073187e-02 -7.199307e+00 130 129 127
-9.729826e-01 9.236578e-03 -7.173656e+00 45 46 48
-9.905125e-01 1.703113e-02 -7.179170e+00 132 128 125
-9.946449e-01 3.686095e-02 -7.187207e+00 47 42 36
-9.882455e-01 5.442110e-03 -7.175970e+00 65 67 54
-9.884046e-01 5.750634e-03 -7.176271e+00 65 67 54
-9.878013e-01 5.987644e-03 -7.174780e+00 75 73 58
-9.806322e-01 2.380883e-02 -7.184946e+00 107 107 109
-9.906151e-01 2.340046e-02 -7.179406e+00 47 44 41
-1.001354e+00 1.869624e-03 -7.167424e+00 92 86 77
-1.048335e+00 5.464188e-02 -7.202126e+00 140 139 139
-1.041213e+00 5.091319e-02 -7.191757e+00 117 118 117
-9.782936e-01 2.559501e-02 -7.186196e+00 33 34 36
-1.048296e+00 4.599362e-02 -7.187037e+00 119 119 117
-1.048296e+00 4.599362e-02 -7.187037e+00 119 119 117
-9.801409e-01 1.057679e-02 -7.185674e+00 46 52 52
-9.966428e-01 1.127360e-01 -7.227646e+00 43 50 68
-9.995364e-01 7.111856e-03 -7.168776e+00 133 127 122
-1.049230e+00 5.009030e-02 -7.187213e+00 120 118 119
-1.052069e+00 5.759254e-02 -7.190247e+00 8 8 8
-1.053197e+00 6.010610e-02 -7.192228e+00 8 8 8
-1.010931e+00 1.537074e-01 -7.264576e+00 96 98 99
-9.824819e-01 1.440089e-02 -7.179681e+00 109 107 108
-9.972975e-01 5.872896e-03 -7.164993e+00 124 116 113
-9.946061e-01 1.548448e-02 -7.170993e+00 124 116 114
-9.823098e-01 6.864654e-02 -7.191530e+00 76 81 86
-1.049821e+00 2.892188e-02 -7.190902e+00 6 6 6
-9.273624e-01 -1.690950e-01 -7.047755e+00 174 175 177
-9.333442e-01 -1.654159e-01 -7.038096e+00 82 91 120
-9.384701e-01 -1.499777e-01 -7.043511e+00 177 177 177
-9.971585e-01 2.886143e-02 -7.227206e+00 19 21 18
-1.027384e+00 4.219920e-02 -7.212838e+00 1 1 2
-9.946926e-01 -1.173970e-03 -7.158284e+00 120 119 114
-9.893049e-01 1.689663e-02 -7.208702e+00 21 23 22
-1.004927e+00 3.569883e-03 -7.180432e+00 109 100 95
-1.021070e+00 4.591215e-02 -7.192091e+00 18 31 56
-9.749066e-01 2.428543e-02 -7.183509e+00 80 81 83
-9.203182e-01 -1.687670e-01 -7.049583e+00 58 57 73
-9.791822e-01 1.211846e-02 -7.181973e+00 102 103 105
-9.908684e-01 6.757001e-03 -7.168062e+00 120 112 110
-1.035981e+00 4.328974e-02 -7.184786e+00 7 7 7
-9.958928e-01 6.344854e-04 -7.168883e+00 119 109 102
-9.380450e-01 -1.519067e-01 -7.043817e+00 68 70 73
-9.406249e-01 -1.629347e-01 -7.042586e+00 72 75 78
-9.140592e-01 -1.732684e-01 -7.045001e+00 174 174 174
-9.345465e-01 -1.675165e-01 -7.038079e+00 83 91 114
-9.325971e-01 -1.633661e-01 -7.034096e+00 57 57 69
-9.924697e-01 7.461503e-03 -7.168346e+00 60 52 50
-9.897537e-01 2.016092e-03 -7.173905e+00 60 56 45
-1.002880e+00 6.151430e-03 -7.182945e+00 116 109 103
-9.940241e-01 -3.898396e-02 -7.154494e+00 169 169 169
-9.940241e-01 -3.898396e-02 -7.154494e+00 169 169 169
-9.745995e-01 6.192200e-02 -7.182034e+00 107 107 114
-9.842498e-01 9.788394e-02 -7.192210e+00 51 62 84
-9.866012e-01 8.723564e-02 -7.183974e+00 0 9 21
-9.836990e-01 8.888369e-02 -7.181406e+00 2 13 41
-9.801774e-01 9.760675e-02 -7.185854e+00 2 15 34
-9.733189e-01 5.345621e-02 -7.180213e+00 114 115 119
-9.819216e-01 9.292321e-02 -7.181271e+00 60 72 112
-9.819165e-01 9.274952e-02 -7.181223e+00 60 72 112
-9.925118e-01 1.313411e-03 -7.170269e+00 119 114 104
-9.897376e-01 2.820938e-03 -7.164795e+00 120 112 110
-9.502595e-01 2.669364e-02 -7.133501e+00 13 13 11
-9.918253e-01 4.341873e-03 -7.180521e+00 133 133 119
-9.788360e-01 8.775563e-02 -7.175453e+00 63 73 110
-9.478334e-01 3.086968e-02 -7.128746e+00 109 107 108
-1.020628e+00 6.344131e-02 -7.244220e+00 3 1 1
-9.698972e-01 4.940550e-02 -7.178435e+00 18 19 23
-9.544496e-01 3.390001e-02 -7.144043e+00 114 116 113
-9.903144e-01 -1.357263e-03 -7.183815e+00 12 17 11
-9.489329e-01 2.880230e-02 -7.127859e+00 110 108 109
-9.489329e-01 2.880230e-02 -7.127859e+00 110 108 109
-9.727745e-01 4.552224e-02 -7.175097e+00 119 119 127
-9.757899e-01 9.144783e-02 -7.178237e+00 1 10 36
-9.896882e-01 9.834377e-03 -7.197545e+00 86 93 84
-9.228126e-01 -1.633068e-01 -7.036407e+00 168 170 169
-9.825738e-01 1.099207e-02 -7.179828e+00 118 119 114
-9.424981e-01 6.158484e-02 -7.126638e+00 109 107 108
-9.793922e-01 2.679912e-02 -7.190289e+00 29 30 32
-9.472962e-01 6.217184e-02 -7.133417e+00 98 98 98
-9.388637e-01 -1.685835e-01 -7.035057e+00 140 148 150
-9.352786e-01 -1.645769e-01 -7.033488e+00 103 110 114
-9.477784e-01 2.250340e-02 -7.124600e+00 110 110 110
-9.434858e-01 7.176046e-02 -7.126473e+00 58 56 51
-9.841857e-01 1.016752e-01 -7.174966e+00 67 80 118
-9.234621e-01 -1.709623e-01 -7.038133e+00 51 62 74
-9.234621e-01 -1.709623e-01 -7.038133e+00 51 62 74
-9.358823e-01 -1.656392e-01 -7.036193e+00 27 34 38
-9.148783e-01 -1.749532e-01 -7.042658e+00 153 155 152
-9.779411e-01 1.597571e-02 -7.165481e+00 106 106 108
-9.582714e-01 7.156615e-02 -7.145315e+00 84 84 84
-9.413024e-01 -1.676395e-01 -7.034540e+00 72 77 81
-9.393250e-01 -1.620864e-01 -7.034321e+00 70 76 85
-9.823079e-01 9.679169e-03 -7.178627e+00 104 106 103
-9.911100e-01 1.912326e-02 -7.181363e+00 109 106 102
-9.330539e-01 -1.669960e-01 -7.030210e+00 47 50 58
-9.633562e-01 6.286406e-02 -7.142653e+00 95 95 97
-9.428338e-01 3.540372e-02 -7.118704e+00 23 21 22
-9.776077e-01 8.256221e-02 -7.187348e+00 16 20 26
-9.578148e-01 2.447822e-02 -7.135927e+00 105 105 107
-9.389202e-01 -1.687206e-01 -7.034874e+00 98 105 108
-9.748325e-01 9.644974e-02 -7.169860e+00 6 6 10
-9.715667e-01 8.250440e-02 -7.162526e+00 81 86 89
-1.014346e+00 3.662867e-02 -7.250222e+00 52 54 53
-1.014346e+00 3.662867e-02 -7.250222e+00 52 54 53
-9.481992e-01 5.440357e-02 -7.124103e+00 92 89 88
-9.861225e-01 6.958349e-02 -7.165422e+00 69 74 80
-9.589282e-01 8.887471e-02 -7.146809e+00 96 96 98
-9.979588e-01 4.163740e-02 -7.189370e+00 30 28 24
-9.795200e-01 1.528299e-02 -7.184769e+00 95 99 102
-1.002015e+00 6.500820e-03 -7.180231e+00 52 46 43
-9.470342e-01 5.061675e-02 -7.125770e+00 98 96 97
-1.024810e+00 3.693843e-02 -7.205031e+00 106 107 110
-1.044292e+00 4.198778e-02 -7.189534e+00 131 130 128
-9.894738e-01 1.225855e-01 -7.211657e+00 43 56 85
-9.746658e-01 1.136510e-01 -7.188417e+00 30 41 64
-9.559823e-01 3.240260e-02 -7.145345e+00 113 114 118
-9.452595e-01 2.125877e-02 -7.132344e+00 122 120 123
-9.361345e-01 -1.661699e-01 -7.035195e+00 27 34 38
-9.687031e-01 1.270439e-01 -7.199697e+00 95 96 100
-9.790162e-01 1.159319e-01 -7.185709e+00 52 64 91
-9.928406e-01 9.956040e-03 -7.166505e+00 101 96 92
-9.413293e-01 -1.644415e-01 -7.038238e+00 70 75 78
-9.099692e-01 -1.661384e-01 -7.035536e+00 108 108 108
-9.368965e-01 -1.620570e-01 -7.051561e+00 163 163 163
-9.234391e-01 -1.587841e-01 -7.062585e+00 152 153 155
-9.412609e-01 -1.611607e-01 -7.046094e+00 163 164 166
-9.336186e-01 -1.644895e-01 -7.033025e+00 43 48 52
-9.307259e-01 -1.652767e-01 -7.047188e+00 60 61 66
-9.337134e-01 -1.640296e-01 -7.032366e+00 36 41 42
-9.327008e-01 -1.632192e-01 -7.031966e+00 157 159 158
-9.177181e-01 -1.652875e-01 -7.042180e+00 46 51 55
-9.356120e-01 -1.651402e-01 -7.030762e+00 58 62 63
-9.350716e-01 -1.652262e-01 -7.031537e+00 153 158 161
-9.350716e-01 -1.652262e-01 -7.031537e+00 153 158 161
-9.369651e-01 -1.681786e-01 -7.034248e+00 117 125 127
-9.356907e-01 -1.661106e-01 -7.032465e+00 134 141 147
-1.038319e+00 5.077471e-02 -7.193813e+00 130 128 130
-9.733716e-01 5.041531e-02 -7.182688e+00 110 109 115
-1.003191e+00 4.224240e-03 -7.183827e+00 93 83 81
-1.023692e+00 3.031211e-02 -7.190790e+00 34 49 73
-9.365064e-01 -1.664270e-01 -7.035238e+00 119 125 128
-9.365064e-01 -1.664270e-01 -7.035238e+00 119 125 128
-9.353626e-01 -1.640961e-01 -7.033978e+00 103 110 114
-9.671164e-01 4.631835e-03 -7.165302e+00 48 49 51
-9.671164e-01 4.631835e-03 -7.165302e+00 48 49 51
-9.407543e-01 6.208590e-02 -7.119819e+00 72 70 71
-9.128744e-01 -3.130155e-02 -7.042283e+00 182 180 181
-9.236676e-01 -1.619641e-01 -7.033808e+00 156 158 155
-9.386432e-01 -1.644041e-01 -7.043098e+00 88 89 94
-9.388684e-01 -1.660769e-01 -7.038051e+00 51 55 58
-9.404853e-01 -1.647291e-01 -7.042085e+00 86 87 89
-9.508507e-01 1.974349e-02 -7.105244e+00 99 99 99
-9.770426e-01 6.838125e-02 -7.163824e+00 48 61 94
-9.740042e-01 8.266263e-02 -7.163163e+00 0 2 7
-9.474628e-01 3.694518e-02 -7.121376e+00 81 79 80
-9.808628e-01 7.072385e-02 -7.193051e+00 84 88 91
-9.366983e-01 -1.494943e-01 -7.015430e+00 41 40 36
-9.370498e-01 -1.661576e-01 -7.038007e+00 170 171 173
-9.357102e-01 -1.655538e-01 -7.038292e+00 72 77 79
-9.386343e-01 -1.670423e-01 -7.041484e+00 135 143 145
-9.607086e-01 -1.788068e-01 -7.078927e+00 10 8 8
-9.637617e-01 -1.785386e-01 -7.073020e+00 57 55 53
-9.637617e-01 -1.785386e-01 -7.073020e+00 57 55 53
-9.204142e-01 -1.577482e-01 -6.987814e+00 0 255 0
-9.239134e-01 -1.632055e-01 -7.037392e+00 255 255 0
-9.218816e-01 -1.646921e-01 -6.988340e+00 255 0 0
-9.259787e-01 -1.616862e-01 -7.038081e+00 255 255 0
-9.224724e-01 -1.464562e-01 -6.986907e+00 0 255 0
-9.280569e-01 -1.584240e-01 -7.035132e+00 255 255 0
-9.217191e-01 -1.535983e-01 -6.989705e+00 255 0 0
-9.240218e-01 -1.700893e-01 -7.036851e+00 255 255 0
-9.222810e-01 -1.572093e-01 -6.989056e+00 0 255 0
-9.255954e-01 -1.659805e-01 -7.038169e+00 255 255 0
-9.222653e-01 -1.593348e-01 -6.988523e+00 255 0 0
-9.251055e-01 -1.625877e-01 -7.038336e+00 255 255 0
-9.223478e-01 -1.661229e-01 -6.986851e+00 0 255 0
-9.290904e-01 -1.751917e-01 -7.035558e+00 255 255 0
-9.228930e-01 -1.668718e-01 -6.987047e+00 255 0 0
-9.294454e-01 -1.692451e-01 -7.036559e+00 255 255 0
-9.229985e-01 -1.675844e-01 -6.987050e+00 0 255 0
-9.295146e-01 -1.654329e-01 -7.036577e+00 255 255 0
-9.230592e-01 -1.672172e-01 -6.987466e+00 255 0 0
-9.286350e-01 -1.606606e-01 -7.036720e+00 255 255 0
-9.268263e-01 -1.572321e-01 -6.997626e+00 0 255 0
-9.310134e-01 -1.660176e-01 -7.046670e+00 255 255 0
-9.274863e-01 -1.667430e-01 -6.998398e+00 255 0 0
-9.306993e-01 -1.667500e-01 -7.048294e+00 255 255 0
-9.262469e-01 -1.443598e-01 -6.991130e+00 0 255 0
-9.293770e-01 -1.648249e-01 -7.036642e+00 255 255 0
-9.263189e-01 -1.432192e-01 -6.991398e+00 255 0 0
-9.295954e-01 -1.623856e-01 -7.037462e+00 255 255 0
-9.263282e-01 -1.425374e-01 -6.991690e+00 0 255 0
-9.317581e-01 -1.596139e-01 -7.038369e+00 255 255 0
-9.265327e-01 -1.427561e-01 -6.991780e+00 255 0 0
-9.324836e-01 -1.560059e-01 -7.039624e+00 255 255 0
-9.231326e-01 -1.671248e-01 -6.987169e+00 0 255 0
-9.288633e-01 -1.576899e-01 -7.035935e+00 255 255 0
-9.320792e-01 -1.453086e-01 -7.001678e+00 255 0 0
-9.296273e-01 -1.691627e-01 -7.045552e+00 255 255 0
-9.293960e-01 -1.520053e-01 -6.997328e+00 0 255 0
-9.282039e-01 -1.677253e-01 -7.044778e+00 255 255 0
-9.271281e-01 -1.399225e-01 -6.991257e+00 255 0 0
-9.287433e-01 -1.607214e-01 -7.036697e+00 255 255 0
-9.277185e-01 -1.884553e-01 -7.092189e+00 0 255 0
-9.238148e-01 -2.125945e-01 -7.135802e+00 255 255 0
-9.267301e-01 -1.226820e-01 -6.996915e+00 255 0 0
-9.327799e-01 -1.544833e-01 -7.035021e+00 255 255 0
-9.266889e-01 -1.529653e-01 -6.993419e+00 0 255 0
-9.306553e-01 -1.592657e-01 -7.042861e+00 255 255 0
-9.241860e-01 -1.718650e-01 -6.990591e+00 255 0 0
-9.281554e-01 -1.619093e-01 -7.039429e+00 255 255 0
-9.241050e-01 -1.743560e-01 -6.989872e+00 0 255 0
-9.294074e-01 -1.656684e-01 -7.038825e+00 255 255 0
-9.281600e-01 -1.703639e-01 -7.000034e+00 255 0 0
-9.304366e-01 -1.645125e-01 -7.049639e+00 255 255 0
-9.278961e-01 -1.718772e-01 -7.001176e+00 0 255 0
-9.308770e-01 -1.654122e-01 -7.050667e+00 255 255 0
-9.247953e-01 -1.775102e-01 -6.989952e+00 255 0 0
-9.299665e-01 -1.652232e-01 -7.038143e+00 255 255 0
-9.287217e-01 -1.736965e-01 -7.002477e+00 0 255 0
-9.288750e-01 -1.639998e-01 -7.051527e+00 255 255 0
-9.273909e-01 -1.794784e-01 -6.994662e+00 255 0 0
-9.314940e-01 -1.670332e-01 -7.042914e+00 255 255 0
-9.316639e-01 -1.591965e-01 -7.007391e+00 0 255 0
-9.279347e-01 -1.650845e-01 -7.056903e+00 255 255 0
-9.318292e-01 -1.456014e-01 -7.001628e+00 255 0 0
-9.263697e-01 -1.719757e-01 -7.043754e+00 255 255 0
-9.294810e-01 -1.769784e-01 -7.002767e+00 0 255 0
-9.295170e-01 -1.625343e-01 -7.050635e+00 255 255 0
-9.294517e-01 -1.789293e-01 -7.003276e+00 255 0 0
-9.301213e-01 -1.627952e-01 -7.050596e+00 255 255 0
-9.290367e-01 -1.827115e-01 -6.996896e+00 0 255 0
-9.322219e-01 -1.644270e-01 -7.043324e+00 255 255 0
-9.320353e-01 -1.863194e-01 -7.001480e+00 255 0 0
-9.335220e-01 -1.642998e-01 -7.046346e+00 255 255 0
-9.314005e-01 -1.832637e-01 -7.003610e+00 0 255 0
-9.301388e-01 -1.660722e-01 -7.050545e+00 255 255 0
-9.326689e-01 -1.878739e-01 -7.004079e+00 255 0 0
-9.304084e-01 -1.668845e-01 -7.049404e+00 255 255 0
-9.335991e-01 -1.891337e-01 -7.005549e+00 0 255 0
-9.318216e-01 -1.628964e-01 -7.048075e+00 255 255 0
-9.359683e-01 -1.943270e-01 -7.007350e+00 255 0 0
-9.324675e-01 -1.654208e-01 -7.047997e+00 255 255 0
-9.328805e-01 -1.861667e-01 -7.005938e+00 0 255 0
-9.322494e-01 -1.603187e-01 -7.048734e+00 255 255 0
-9.384798e-01 -2.017035e-01 -6.992981e+00 255 0 0
-9.245245e-01 -1.751565e-01 -7.032988e+00 255 255 0
-9.412041e-01 -2.037402e-01 -6.994608e+00 0 255 0
-9.264695e-01 -1.745114e-01 -7.032404e+00 255 255 0
-9.503017e-01 -2.018473e-01 -7.003078e+00 255 0 0
-9.315948e-01 -1.680206e-01 -7.034793e+00 255 255 0
-9.435034e-01 -2.057606e-01 -6.996813e+00 0 255 0
-9.265535e-01 -1.745615e-01 -7.032017e+00 255 255 0
-9.478872e-01 -2.067784e-01 -7.001103e+00 255 0 0
-9.292126e-01 -1.741814e-01 -7.034099e+00 255 255 0
-9.329436e-01 -1.949587e-01 -7.009899e+00 0 255 0
-9.255763e-01 -1.616840e-01 -7.046485e+00 255 255 0
-9.474807e-01 -1.960335e-01 -7.013622e+00 255 0 0
-9.255796e-01 -1.624725e-01 -7.043521e+00 255 255 0
-9.590407e-01 -2.129822e-01 -7.009770e+00 0 255 0
-9.344293e-01 -1.751260e-01 -7.031246e+00 255 255 0
-9.334656e-01 -1.488989e-01 -7.008388e+00 255 0 0
-9.268692e-01 -1.644107e-01 -7.055461e+00 255 255 0
